<?xml version="1.0" encoding="utf-8"?>
<!-- Generator: Adobe Illustrator 18.1.1, SVG Export Plug-In . SVG Version: 6.00 Build 0)  -->
<svg version="1.1" id="レイヤー_1" xmlns="http://www.w3.org/2000/svg" xmlns:xlink="http://www.w3.org/1999/xlink" x="0px"
	 y="0px" viewBox="326 115 338 212" enable-background="new 326 115 338 212" xml:space="preserve">
<g>
	<circle fill="#FFFFFF" cx="607.232" cy="173.056" r="15.616"/>
	<path fill="#FFFFFF" d="M646.912,121.6c-0.768,0.256-73.984,13.568-151.552,13.568c-77.312,0-150.784-13.312-151.552-13.568
		l-17.152-3.072v144.64l17.152-3.072c0.768-0.256,73.984-13.568,151.552-13.568c77.312,0,150.784,13.312,151.552,13.568
		l17.152,3.072V118.272L646.912,121.6z M649.472,245.504c0,0-26.624-4.864-65.28-8.96L573.44,217.6h9.472l-21.248-36.864
		L540.416,217.6h9.472l-8.96,15.36c-5.888-0.256-12.032-0.512-18.176-0.768L510.464,211.2h12.8l-27.904-48.384L467.456,211.2h12.8
		l-12.288,20.992c-6.144,0.256-12.288,0.512-18.176,0.768l-8.96-15.36h9.472l-21.248-36.864L407.808,217.6h9.472l-11.008,18.944
		c-38.656,3.84-65.28,8.96-65.28,8.96V135.936c0,0,74.496,13.824,154.112,13.824s154.112-13.824,154.112-13.824v109.568H649.472z"/>
</g>
<g>
	<path fill="#FFFFFF" d="M377.088,272.64c3.328,3.584,5.12,8.96,5.12,16.128c0,7.424-1.792,13.056-5.12,16.896
		s-7.68,5.888-13.056,5.888c-3.328,0-6.144-0.768-8.448-2.56c-1.28-1.024-2.304-2.304-3.584-4.096v22.016h-11.008v-58.88h10.496
		v6.144c1.28-1.792,2.56-3.328,3.84-4.352c2.56-1.792,5.376-2.816,8.704-2.816C369.408,267.264,373.76,269.056,377.088,272.64z
		 M368.64,280.576c-1.536-2.56-3.84-3.84-7.424-3.84c-4.096,0-6.912,1.792-8.448,5.632c-0.768,2.048-1.28,4.608-1.28,7.68
		c0,4.864,1.28,8.448,3.84,10.24c1.536,1.28,3.328,1.792,5.632,1.792c3.072,0,5.376-1.28,7.168-3.584
		c1.536-2.304,2.56-5.632,2.56-9.472C370.944,285.952,370.176,283.136,368.64,280.576z"/>
	<path fill="#FFFFFF" d="M402.688,284.672c2.048-0.256,3.584-0.512,4.352-1.024c1.536-0.768,2.304-1.792,2.304-3.072
		c0-1.792-0.512-2.816-1.792-3.584s-3.072-1.024-5.376-1.024c-2.56,0-4.608,0.768-5.632,2.048c-0.768,1.024-1.28,2.304-1.536,3.84
		h-10.752c0.256-3.584,1.28-6.656,3.072-9.216c2.816-3.84,7.936-5.632,15.104-5.632c4.608,0,8.704,1.024,12.288,2.816
		s5.376,5.376,5.376,10.496v19.456c0,1.28,0,3.072,0,4.864c0,1.536,0.256,2.304,0.768,3.072c0.256,0.512,1.024,1.024,1.536,1.28
		v1.536h-12.032c-0.256-0.768-0.512-1.536-0.768-2.304s-0.256-1.536-0.256-2.56c-1.536,1.536-3.328,3.072-5.376,4.096
		c-2.304,1.28-5.12,2.048-8.192,2.048c-3.84,0-6.912-1.024-9.472-3.328c-2.56-2.304-3.84-5.376-3.84-9.216
		c0-5.12,2.048-8.96,6.144-11.264c2.304-1.28,5.376-2.048,9.728-2.816L402.688,284.672z M409.6,289.792
		c-0.768,0.512-1.536,0.768-2.048,1.024c-0.768,0.256-1.792,0.512-3.072,0.768l-2.56,0.512c-2.304,0.512-4.096,1.024-5.12,1.536
		c-1.792,1.024-2.56,2.56-2.56,4.608c0,1.792,0.512,3.328,1.536,4.096c1.024,0.768,2.304,1.28,3.84,1.28
		c2.304,0,4.608-0.768,6.656-2.048c2.048-1.28,3.072-3.84,3.072-7.68v-4.096H409.6z"/>
	<path fill="#FFFFFF" d="M460.288,270.592c2.816,2.304,4.096,6.144,4.096,11.264v28.416H453.12v-25.6c0-2.304-0.256-3.84-0.768-5.12
		c-1.024-2.048-3.072-3.328-6.144-3.328c-3.84,0-6.144,1.536-7.68,4.864c-0.768,1.792-1.024,3.84-1.024,6.4v22.784h-11.008v-42.24
		h10.752v6.144c1.536-2.048,2.816-3.84,4.096-4.608c2.304-1.792,5.12-2.56,8.704-2.56
		C453.888,267.264,457.472,268.288,460.288,270.592z"/>
	<path fill="#FFFFFF" d="M505.856,305.152c-3.584,4.352-8.96,6.656-16.128,6.656s-12.544-2.304-16.128-6.656
		c-3.584-4.352-5.376-9.728-5.376-15.872c0-6.144,1.792-11.264,5.376-15.872c3.584-4.352,8.96-6.656,16.128-6.656
		s12.8,2.304,16.128,6.656c3.584,4.352,5.376,9.728,5.376,15.872C511.232,295.68,509.44,300.8,505.856,305.152z M496.896,299.264
		c1.792-2.304,2.56-5.632,2.56-9.728c0-4.352-0.768-7.424-2.56-9.728s-4.096-3.328-7.424-3.328s-5.632,1.024-7.424,3.328
		s-2.56,5.632-2.56,9.728c0,4.352,0.768,7.424,2.56,9.728c1.792,2.304,4.352,3.328,7.424,3.328S495.104,301.568,496.896,299.264z"/>
	<path fill="#FFFFFF" d="M516.352,310.528v-57.344h4.864v57.088h-4.864V310.528z"/>
	<path fill="#FFFFFF" d="M548.096,286.464c1.024,0,2.048-0.256,3.328-0.512c1.28-0.256,2.304-0.512,3.072-0.768
		c0.768-0.256,1.28-1.024,1.536-1.792c0.256-0.768,0.256-1.792,0.256-2.304c0-2.56-0.768-4.352-2.304-5.888
		c-1.536-1.536-4.096-2.304-7.936-2.304c-1.536,0-3.072,0.256-4.608,0.512c-1.28,0.256-2.56,0.768-3.584,1.536
		c-1.024,0.768-1.792,1.792-2.56,2.816c-0.768,1.28-1.024,2.56-1.28,4.608h-4.864c0.256-2.56,0.768-4.608,1.792-6.144
		c1.024-1.792,2.304-3.072,3.584-4.096c1.536-1.024,3.328-1.792,5.12-2.304c1.792-0.512,4.096-0.768,6.4-0.768
		c2.048,0,4.096,0.256,5.888,0.768s3.328,1.28,4.864,2.048c1.28,1.024,2.304,2.304,3.072,3.84c0.768,1.536,1.024,3.584,1.024,6.144
		v22.272c0,1.792,0.256,3.072,1.024,3.584c0.768,0.512,2.048,0.256,4.096-0.256v3.84c-0.256,0-1.024,0.256-1.536,0.512
		c-0.768,0.256-1.536,0.256-2.048,0.256c-0.768,0-1.536,0-2.048-0.256c-0.768,0-1.536-0.256-1.792-0.768
		c-0.512-0.512-0.768-0.768-1.024-1.536c-0.256-0.512-0.512-1.28-0.512-1.792c0-0.768-0.256-1.28-0.256-2.048
		c-2.048,2.304-4.352,3.84-6.912,5.12s-5.376,1.792-8.448,1.792c-1.792,0-3.584-0.256-5.12-0.768
		c-1.792-0.512-3.072-1.28-4.352-2.304c-1.28-1.024-2.304-2.304-3.072-3.584c-0.768-1.536-1.024-3.072-1.024-5.12
		c0-6.912,4.864-11.008,14.336-12.288L548.096,286.464z M556.032,288.768c-2.048,0.768-4.096,1.28-6.144,1.792
		c-2.048,0.256-4.096,0.512-6.144,0.512c-3.584,0.256-6.4,1.024-8.448,2.56c-2.048,1.28-3.072,3.584-3.072,6.144
		c0,1.28,0.256,2.304,0.768,3.328c0.512,1.024,1.28,1.792,2.048,2.304s1.792,1.024,2.816,1.28c1.024,0.256,2.304,0.512,3.328,0.512
		c1.792,0,3.84-0.256,5.632-0.768c1.792-0.512,3.328-1.28,4.864-2.304c1.28-1.024,2.56-2.304,3.328-3.84
		c0.768-1.536,1.28-3.328,1.28-5.376v-6.144H556.032z"/>
	<path fill="#FFFFFF" d="M574.464,310.528H569.6v-57.344h4.864v22.528c1.536-2.56,3.584-4.352,6.4-5.632
		c2.56-1.28,5.376-2.048,8.448-2.048c3.072,0,5.888,0.512,8.192,1.792c2.304,1.28,4.096,2.816,5.632,4.864
		c1.536,2.048,2.56,4.352,3.328,6.912s1.024,5.376,1.024,8.192c0,3.072-0.256,5.888-1.024,8.448
		c-0.768,2.56-1.792,4.864-3.328,6.912c-1.536,2.048-3.328,3.328-5.632,4.608c-2.304,1.024-5.12,1.792-8.448,1.792
		c-1.28,0-2.56-0.256-4.096-0.512c-1.28-0.256-2.816-1.024-4.096-1.536c-1.28-0.768-2.56-1.536-3.584-2.56
		c-1.024-1.024-2.048-2.304-2.56-3.584h-0.256L574.464,310.528L574.464,310.528z M574.464,289.792c0,2.56,0.256,4.864,1.024,6.912
		c0.512,2.048,1.536,4.096,2.56,5.632c1.28,1.536,2.56,2.816,4.352,3.584c1.792,1.024,3.84,1.28,5.888,1.28
		c2.048,0,3.84-0.256,5.632-1.024s3.072-1.792,4.352-3.072c1.28-1.28,2.304-3.072,3.072-5.12s1.024-4.352,1.024-6.912
		s0-5.12-0.512-7.168c-0.512-2.304-1.28-4.096-2.56-5.888c-1.28-1.792-2.56-3.072-4.608-4.096c-1.792-1.024-3.84-1.536-6.4-1.536
		c-2.048,0-4.096,0.512-5.888,1.28c-1.792,1.024-3.072,2.048-4.352,3.84c-1.28,1.536-2.048,3.328-2.816,5.376
		C574.72,285.184,574.464,287.488,574.464,289.792z"/>
	<path fill="#FFFFFF" d="M630.016,311.552c-2.56,0-5.12-0.512-7.424-1.536c-2.304-1.024-4.352-2.304-6.144-4.096
		s-3.072-4.096-4.096-6.656c-1.024-2.816-1.536-5.888-1.536-9.472c0-3.072,0.512-5.888,1.28-8.448s2.048-4.864,3.584-6.912
		c1.536-2.048,3.584-3.584,5.888-4.608c2.304-1.024,5.12-1.792,8.448-1.792s6.144,0.512,8.448,1.792
		c2.304,1.024,4.352,2.56,5.888,4.608c1.536,2.048,2.816,4.096,3.584,6.912c0.768,2.56,1.024,5.376,1.024,8.448
		c0,3.328-0.512,6.144-1.28,8.96c-1.024,2.56-2.304,4.864-3.84,6.912c-1.792,1.792-3.584,3.328-6.144,4.352
		C635.392,311.04,632.832,311.552,630.016,311.552z M643.84,289.792c0-2.56-0.256-4.608-0.768-6.912
		c-0.512-2.048-1.28-3.84-2.56-5.632c-1.024-1.536-2.56-2.816-4.352-3.584c-1.792-1.024-3.84-1.28-6.4-1.28s-4.608,0.512-6.4,1.536
		c-1.792,1.024-3.328,2.304-4.352,3.84c-1.024,1.536-2.048,3.584-2.56,5.632s-0.768,4.352-0.768,6.4c0,2.56,0.256,4.864,1.024,6.912
		c0.512,2.048,1.536,4.096,2.56,5.632c1.28,1.536,2.56,2.816,4.352,3.584s3.84,1.28,6.144,1.28c2.56,0,4.608-0.512,6.4-1.536
		c1.792-1.024,3.328-2.304,4.352-3.84c1.024-1.536,2.048-3.584,2.56-5.632S643.84,292.096,643.84,289.792z"/>
</g>
</svg>
