<svg xmlns="http://www.w3.org/2000/svg" viewBox="0 0 249.94 43.71"><defs><style>.cls-1{fill:#52ab4c;}.cls-2{fill:#fff;}</style></defs><title>アセット 16</title><g id="レイヤー_2" data-name="レイヤー 2"><g id="panolabo白"><path class="cls-1" d="M84.74,11.88q3,3.19,3,9.4,0,6.54-3,10a9.64,9.64,0,0,1-7.62,3.43,8,8,0,0,1-4.94-1.48,9.31,9.31,0,0,1-2.1-2.38V43.71h-6.4V9.22h6.19v3.66a10.31,10.31,0,0,1,2.24-2.54,8.25,8.25,0,0,1,5.17-1.66A9.8,9.8,0,0,1,84.74,11.88Zm-5,4.65a4.61,4.61,0,0,0-4.27-2.2,4.86,4.86,0,0,0-4.89,3.34,12.52,12.52,0,0,0-.69,4.5q0,4.3,2.32,6.06a5.29,5.29,0,0,0,3.25,1,4.76,4.76,0,0,0,4.17-2.09,9.71,9.71,0,0,0,1.43-5.56A9.68,9.68,0,0,0,79.77,16.53Z"/><path class="cls-1" d="M99.34,18.92a10,10,0,0,0,2.59-.57,1.94,1.94,0,0,0,1.39-1.84,2.17,2.17,0,0,0-1.07-2.1,6.83,6.83,0,0,0-3.14-.58A4.11,4.11,0,0,0,95.82,15a4.67,4.67,0,0,0-.92,2.27H88.66a9.43,9.43,0,0,1,1.82-5.34q2.58-3.27,8.85-3.27a15.7,15.7,0,0,1,7.25,1.62q3.17,1.61,3.17,6.08V27.68c0,.79,0,1.74,0,2.86a3.67,3.67,0,0,0,.39,1.73,2.37,2.37,0,0,0,.95.75V34h-7a7.23,7.23,0,0,1-.4-1.41c-.08-.43-.14-.93-.19-1.49a13.12,13.12,0,0,1-3.1,2.47,9.42,9.42,0,0,1-4.75,1.2,8.26,8.26,0,0,1-5.59-1.91,6.87,6.87,0,0,1-2.2-5.44,7,7,0,0,1,3.55-6.61,15.85,15.85,0,0,1,5.71-1.59Zm4,3a6.92,6.92,0,0,1-1.25.62,11.25,11.25,0,0,1-1.74.45l-1.48.27a9.83,9.83,0,0,0-3,.88,3,3,0,0,0-1.53,2.75,2.87,2.87,0,0,0,.94,2.4,3.53,3.53,0,0,0,2.27.73,6.72,6.72,0,0,0,3.9-1.22c1.2-.82,1.81-2.31,1.86-4.47Z"/><path class="cls-1" d="M132.57,10.64q2.43,2,2.43,6.67V34h-6.63v-15a6.88,6.88,0,0,0-.52-3,3.64,3.64,0,0,0-3.6-1.91,4.48,4.48,0,0,0-4.49,2.8,9.66,9.66,0,0,0-.63,3.77V34h-6.47V9.27h6.26v3.61a11,11,0,0,1,2.36-2.75,8.11,8.11,0,0,1,5-1.5A9.49,9.49,0,0,1,132.57,10.64Z"/><path class="cls-1" d="M158.87,30.94q-3.13,3.87-9.52,3.87t-9.51-3.87a14.29,14.29,0,0,1-3.13-9.31,14.42,14.42,0,0,1,3.13-9.28q3.14-3.91,9.51-3.92t9.52,3.92A14.48,14.48,0,0,1,162,21.63,14.35,14.35,0,0,1,158.87,30.94Zm-5.18-3.57a9.43,9.43,0,0,0,1.52-5.74,9.34,9.34,0,0,0-1.52-5.72,5.74,5.74,0,0,0-8.73,0,9.27,9.27,0,0,0-1.53,5.72A9.36,9.36,0,0,0,145,27.37a5.73,5.73,0,0,0,8.73,0Z"/><path class="cls-2" d="M164.59,34V.49h2.79V34Z"/><path class="cls-2" d="M182.77,19.93c.52-.06,1.15-.16,1.88-.28a6.76,6.76,0,0,0,1.79-.51,1.48,1.48,0,0,0,.86-1.09,6.86,6.86,0,0,0,.16-1.42,4.72,4.72,0,0,0-1.37-3.51c-.91-.92-2.45-1.37-4.62-1.37a12.76,12.76,0,0,0-2.65.25,5.86,5.86,0,0,0-2.12.88,4.86,4.86,0,0,0-1.49,1.68,7.17,7.17,0,0,0-.77,2.63h-2.83a8.64,8.64,0,0,1,1-3.65,7.41,7.41,0,0,1,2.17-2.47,8.89,8.89,0,0,1,3.07-1.39,14.69,14.69,0,0,1,3.69-.45,14.44,14.44,0,0,1,3.42.4,7.91,7.91,0,0,1,2.79,1.25,5.92,5.92,0,0,1,1.86,2.31,8.3,8.3,0,0,1,.67,3.53V29.83c0,1.09.2,1.78.58,2.07s1.18.23,2.35-.21v2.19l-1,.28a4.47,4.47,0,0,1-1.23.18,5.24,5.24,0,0,1-1.26-.14,2.07,2.07,0,0,1-1.11-.44,2.73,2.73,0,0,1-.68-.83,3.84,3.84,0,0,1-.35-1.07,8.12,8.12,0,0,1-.09-1.24,12.08,12.08,0,0,1-4,3,12,12,0,0,1-4.93,1,11,11,0,0,1-3-.42,7.14,7.14,0,0,1-2.58-1.3,6.62,6.62,0,0,1-1.77-2.16,6.7,6.7,0,0,1-.65-3q0-6.14,8.42-7.25Zm4.69,1.39a13.25,13.25,0,0,1-3.58,1c-1.21.16-2.41.28-3.62.37a10.33,10.33,0,0,0-5,1.44,4.12,4.12,0,0,0-1.79,3.68,3.93,3.93,0,0,0,.44,1.93,4.09,4.09,0,0,0,1.16,1.35,5,5,0,0,0,1.68.79,7.35,7.35,0,0,0,1.93.25,12.6,12.6,0,0,0,3.25-.42,8.69,8.69,0,0,0,2.81-1.28,6.58,6.58,0,0,0,2-2.18,6.26,6.26,0,0,0,.74-3.14Z"/><path class="cls-2" d="M197.88,34h-2.79V.49h2.79V13.75a8.63,8.63,0,0,1,3.7-3.38,11.07,11.07,0,0,1,4.9-1.14,10.23,10.23,0,0,1,4.77,1,9.9,9.9,0,0,1,3.35,2.79,12,12,0,0,1,2,4.07,17.62,17.62,0,0,1,.65,4.84,19.85,19.85,0,0,1-.6,5,10.89,10.89,0,0,1-1.93,4,9.18,9.18,0,0,1-3.37,2.68,11.52,11.52,0,0,1-5,1A9.44,9.44,0,0,1,204,34.3a11.73,11.73,0,0,1-2.35-.93,9.58,9.58,0,0,1-2.09-1.51A7.86,7.86,0,0,1,198,29.74h-.09Zm0-12.13a15,15,0,0,0,.53,4.06A10,10,0,0,0,200,29.16a7.33,7.33,0,0,0,2.56,2.16,7.48,7.48,0,0,0,3.49.79,8.22,8.22,0,0,0,3.25-.63,7.49,7.49,0,0,0,2.61-1.83,8.65,8.65,0,0,0,1.74-3,11.78,11.78,0,0,0,.63-4,15.78,15.78,0,0,0-.37-4.25A10.27,10.27,0,0,0,212.39,15a7.32,7.32,0,0,0-2.63-2.34,7.73,7.73,0,0,0-3.74-.86,7.14,7.14,0,0,0-3.42.81A7.9,7.9,0,0,0,200,14.74a10.07,10.07,0,0,0-1.6,3.21A13.4,13.4,0,0,0,197.88,21.84Z"/><path class="cls-2" d="M230,34.62a12.65,12.65,0,0,1-4.35-.83,9.75,9.75,0,0,1-3.54-2.38,11.47,11.47,0,0,1-2.39-3.95,15.77,15.77,0,0,1-.88-5.53A17.12,17.12,0,0,1,219.5,17a11.81,11.81,0,0,1,2.1-4,10.07,10.07,0,0,1,3.48-2.72,12.53,12.53,0,0,1,9.81,0,10.08,10.08,0,0,1,3.49,2.7,11.12,11.12,0,0,1,2.07,4,17.78,17.78,0,0,1,.68,5,16.05,16.05,0,0,1-.8,5.21,11.58,11.58,0,0,1-2.25,4,10.17,10.17,0,0,1-3.53,2.58A11.38,11.38,0,0,1,230,34.62Zm8.18-12.69a16.43,16.43,0,0,0-.47-4,9.44,9.44,0,0,0-1.44-3.23,6.81,6.81,0,0,0-2.51-2.16,8.1,8.1,0,0,0-3.76-.79,7.59,7.59,0,0,0-3.75.86,7.29,7.29,0,0,0-2.53,2.27,10.06,10.06,0,0,0-1.44,3.26,15.37,15.37,0,0,0-.47,3.79,14.81,14.81,0,0,0,.54,4.11,9.56,9.56,0,0,0,1.55,3.24,7,7,0,0,0,2.56,2.09,8.08,8.08,0,0,0,3.54.74,7.57,7.57,0,0,0,3.74-.86,7.18,7.18,0,0,0,2.53-2.3,10.4,10.4,0,0,0,1.44-3.25A15.15,15.15,0,0,0,238.15,21.93Z"/><path class="cls-2" d="M49.5,20.9a3,3,0,1,0-3-3A3,3,0,0,0,49.5,20.9Z"/><path class="cls-2" d="M55.56,8.73A141.53,141.53,0,0,1,29.27,11.5,142.13,142.13,0,0,1,3,8.73L0,8.08V37.67L3,37a140.56,140.56,0,0,1,26.29-2.77A142.13,142.13,0,0,1,55.57,37l3,.65V8.08ZM56,34.1s-4.63-1-11.32-1.82L42.8,28.4h1.64l-3.68-7.53L37.08,28.4h1.64l-1.55,3.16c-1-.07-2.08-.13-3.15-.17l-2.11-4.32h2.2l-4.84-9.9-4.84,9.9h2.2l-2.11,4.32c-1.07,0-2.12.1-3.15.17L19.82,28.4h1.64l-3.68-7.53L14.1,28.4h1.64l-1.9,3.88C7.15,33.09,2.52,34.1,2.52,34.1V11.65a142.1,142.1,0,0,0,26.75,2.82A142.1,142.1,0,0,0,56,11.65Z"/><path class="cls-2" d="M245.47,0A4.39,4.39,0,1,1,241,4.37,4.37,4.37,0,0,1,245.47,0Zm0,7.92a3.4,3.4,0,0,0,3.41-3.53,3.42,3.42,0,1,0-6.84,0A3.44,3.44,0,0,0,245.47,7.92Zm-1.68-1.25V2.23a9.42,9.42,0,0,1,1.64-.14c.79,0,1.94.14,1.94,1.29a1.13,1.13,0,0,1-.91,1v.07c.43.14.65.5.77,1.08a4.14,4.14,0,0,0,.33,1.1h-1a3.82,3.82,0,0,1-.33-1.1c-.17-.7-.55-.7-1.47-.7v1.8Zm1-2.49c.74,0,1.56,0,1.56-.68,0-.4-.29-.69-1-.69a2.22,2.22,0,0,0-.57,0Z"/></g></g></svg>