<svg xmlns="http://www.w3.org/2000/svg" viewBox="0 0 249.94 43.22"><defs><style>.cls-1{fill:#52ab4c;}.cls-2{fill:#333;}</style></defs><title>アセット 13</title><g id="レイヤー_2" data-name="レイヤー 2"><g id="panolabo黒"><path class="cls-1" d="M84.74,11.39q3,3.19,3,9.4,0,6.54-3,10a9.64,9.64,0,0,1-7.62,3.42,8,8,0,0,1-4.94-1.47,9.38,9.38,0,0,1-2.1-2.39v12.9h-6.4V8.73h6.19v3.66a10.37,10.37,0,0,1,2.24-2.55,8.3,8.3,0,0,1,5.17-1.65A9.76,9.76,0,0,1,84.74,11.39Zm-5,4.65a4.59,4.59,0,0,0-4.27-2.2,4.86,4.86,0,0,0-4.89,3.34,12.5,12.5,0,0,0-.69,4.49q0,4.32,2.32,6.07a5.29,5.29,0,0,0,3.25,1,4.76,4.76,0,0,0,4.17-2.09,9.71,9.71,0,0,0,1.43-5.56A9.68,9.68,0,0,0,79.77,16Z"/><path class="cls-1" d="M99.34,18.43a10,10,0,0,0,2.59-.57A1.94,1.94,0,0,0,103.32,16a2.16,2.16,0,0,0-1.07-2.1,6.7,6.7,0,0,0-3.14-.58,4.11,4.11,0,0,0-3.29,1.14,4.63,4.63,0,0,0-.92,2.27H88.66a9.41,9.41,0,0,1,1.82-5.34q2.58-3.27,8.85-3.27a15.82,15.82,0,0,1,7.25,1.61q3.17,1.62,3.17,6.09V27.19c0,.79,0,1.74,0,2.86a3.71,3.71,0,0,0,.39,1.73,2.37,2.37,0,0,0,.95.75v.95h-7a7.23,7.23,0,0,1-.4-1.41c-.08-.44-.14-.94-.19-1.5a13.16,13.16,0,0,1-3.1,2.48,9.42,9.42,0,0,1-4.75,1.2,8.22,8.22,0,0,1-5.59-1.92,6.84,6.84,0,0,1-2.2-5.43,7,7,0,0,1,3.55-6.61,15.85,15.85,0,0,1,5.71-1.59Zm4,3a7.64,7.64,0,0,1-1.25.62,10.33,10.33,0,0,1-1.74.44l-1.48.28a9.55,9.55,0,0,0-3,.88,3,3,0,0,0-1.53,2.75,2.84,2.84,0,0,0,.94,2.39,3.48,3.48,0,0,0,2.27.74,6.79,6.79,0,0,0,3.9-1.22c1.2-.82,1.81-2.31,1.86-4.48Z"/><path class="cls-1" d="M132.57,10.15q2.43,2,2.43,6.66V33.48h-6.63v-15a6.85,6.85,0,0,0-.52-3,3.64,3.64,0,0,0-3.6-1.91,4.47,4.47,0,0,0-4.49,2.79,9.73,9.73,0,0,0-.63,3.77v13.4h-6.47V8.78h6.26v3.61a11,11,0,0,1,2.36-2.75,8.11,8.11,0,0,1,5-1.5A9.49,9.49,0,0,1,132.57,10.15Z"/><path class="cls-1" d="M158.87,30.45q-3.13,3.87-9.52,3.87t-9.51-3.87a14.31,14.31,0,0,1-3.13-9.31,14.42,14.42,0,0,1,3.13-9.28q3.14-3.93,9.51-3.92t9.52,3.92A14.48,14.48,0,0,1,162,21.14,14.37,14.37,0,0,1,158.87,30.45Zm-5.18-3.57a9.43,9.43,0,0,0,1.52-5.74,9.32,9.32,0,0,0-1.52-5.72,5.74,5.74,0,0,0-8.73,0,9.25,9.25,0,0,0-1.53,5.72A9.36,9.36,0,0,0,145,26.88a5.74,5.74,0,0,0,8.73,0Z"/><path class="cls-2" d="M164.59,33.48V0h2.79V33.48Z"/><path class="cls-2" d="M182.77,19.44c.52-.07,1.15-.16,1.88-.28a7.61,7.61,0,0,0,1.79-.51,1.48,1.48,0,0,0,.86-1.1,6.7,6.7,0,0,0,.16-1.41,4.75,4.75,0,0,0-1.37-3.52c-.91-.91-2.45-1.37-4.62-1.37a12.73,12.73,0,0,0-2.65.26,5.69,5.69,0,0,0-2.12.88,4.86,4.86,0,0,0-1.49,1.68,7.11,7.11,0,0,0-.77,2.62h-2.83a8.72,8.72,0,0,1,1-3.65,7.38,7.38,0,0,1,2.17-2.46,8.91,8.91,0,0,1,3.07-1.4,15.17,15.17,0,0,1,3.69-.44,13.94,13.94,0,0,1,3.42.4,7.91,7.91,0,0,1,2.79,1.25,5.89,5.89,0,0,1,1.86,2.3,8.34,8.34,0,0,1,.67,3.54V29.34c0,1.09.2,1.78.58,2.07s1.18.23,2.35-.21v2.19l-1,.28a4.47,4.47,0,0,1-1.23.18,5.79,5.79,0,0,1-1.26-.14,2.15,2.15,0,0,1-1.11-.44,2.65,2.65,0,0,1-.68-.84,3.64,3.64,0,0,1-.35-1.07,7.9,7.9,0,0,1-.09-1.23,12.22,12.22,0,0,1-4,3,12,12,0,0,1-4.93,1,11,11,0,0,1-3-.42,7.3,7.3,0,0,1-2.58-1.3,6.62,6.62,0,0,1-1.77-2.16,6.7,6.7,0,0,1-.65-3.05q0-6.14,8.42-7.25Zm4.69,1.39a13.63,13.63,0,0,1-3.58,1c-1.21.15-2.41.28-3.62.37a10.33,10.33,0,0,0-5,1.44,4.12,4.12,0,0,0-1.79,3.68,3.87,3.87,0,0,0,1.6,3.27,4.83,4.83,0,0,0,1.68.79,7.36,7.36,0,0,0,1.93.26,12.6,12.6,0,0,0,3.25-.42,8.69,8.69,0,0,0,2.81-1.28,6.58,6.58,0,0,0,2-2.18,6.29,6.29,0,0,0,.74-3.14Z"/><path class="cls-2" d="M197.88,33.48h-2.79V0h2.79V13.25a8.61,8.61,0,0,1,3.7-3.37,11.07,11.07,0,0,1,4.9-1.14,10.23,10.23,0,0,1,4.77,1,9.9,9.9,0,0,1,3.35,2.79,12,12,0,0,1,2,4.07,17.6,17.6,0,0,1,.65,4.83,19.87,19.87,0,0,1-.6,5,10.89,10.89,0,0,1-1.93,4,9.26,9.26,0,0,1-3.37,2.67,11.51,11.51,0,0,1-5,1A9,9,0,0,1,204,33.8a11.12,11.12,0,0,1-2.35-.92,9.63,9.63,0,0,1-2.09-1.52A7.81,7.81,0,0,1,198,29.25h-.09Zm0-12.14a15.06,15.06,0,0,0,.53,4.07A10.07,10.07,0,0,0,200,28.67,7.31,7.31,0,0,0,206,31.62a8.22,8.22,0,0,0,3.25-.63,7.63,7.63,0,0,0,2.61-1.83,8.75,8.75,0,0,0,1.74-3,11.78,11.78,0,0,0,.63-4,15.74,15.74,0,0,0-.37-4.25,10.19,10.19,0,0,0-1.49-3.47,7.44,7.44,0,0,0-2.63-2.35,7.85,7.85,0,0,0-3.74-.86,7,7,0,0,0-3.42.82A7.9,7.9,0,0,0,200,14.25a10.07,10.07,0,0,0-1.6,3.21A13.38,13.38,0,0,0,197.88,21.34Z"/><path class="cls-2" d="M230,34.13a12.42,12.42,0,0,1-4.35-.84,9.6,9.6,0,0,1-3.54-2.37,11.47,11.47,0,0,1-2.39-4,15.81,15.81,0,0,1-.88-5.53,17.24,17.24,0,0,1,.69-5,11.85,11.85,0,0,1,2.1-4,10.07,10.07,0,0,1,3.48-2.72,12.53,12.53,0,0,1,9.81,0,10.08,10.08,0,0,1,3.49,2.7,11.12,11.12,0,0,1,2.07,4,17.78,17.78,0,0,1,.68,5,16,16,0,0,1-.8,5.2,11.49,11.49,0,0,1-2.25,4,9.93,9.93,0,0,1-3.53,2.58A11.21,11.21,0,0,1,230,34.13Zm8.18-12.69a16.43,16.43,0,0,0-.47-4,9.44,9.44,0,0,0-1.44-3.23A6.93,6.93,0,0,0,233.73,12a8.23,8.23,0,0,0-3.76-.79,7.7,7.7,0,0,0-3.75.86,7.41,7.41,0,0,0-2.53,2.28,10.06,10.06,0,0,0-1.44,3.26,15.31,15.31,0,0,0-.47,3.79,14.86,14.86,0,0,0,.54,4.11,9.51,9.51,0,0,0,1.55,3.23,7.06,7.06,0,0,0,2.56,2.1,8.08,8.08,0,0,0,3.54.74,7.68,7.68,0,0,0,3.74-.86,7.18,7.18,0,0,0,2.53-2.3,10.35,10.35,0,0,0,1.44-3.26A15.07,15.07,0,0,0,238.15,21.44Z"/><path class="cls-2" d="M49.5,20.4a3,3,0,1,0-3-3A3,3,0,0,0,49.5,20.4Z"/><path class="cls-2" d="M55.56,8.23A140.08,140.08,0,0,1,29.27,11,140.67,140.67,0,0,1,3,8.23L0,7.58v29.6l3-.65a140.56,140.56,0,0,1,26.29-2.77,141.14,141.14,0,0,1,26.3,2.77l3,.65V7.58ZM56,33.61s-4.63-1-11.32-1.83l-1.9-3.87h1.64l-3.68-7.53-3.68,7.53h1.64l-1.55,3.16Q35.63,31,34,30.89l-2.11-4.32h2.2l-4.84-9.9-4.84,9.9h2.2l-2.11,4.32q-1.61.08-3.15.18l-1.55-3.16h1.64l-3.68-7.53L14.1,27.91h1.64l-1.9,3.87c-6.69.82-11.32,1.83-11.32,1.83V11.16A142.1,142.1,0,0,0,29.27,14,142.1,142.1,0,0,0,56,11.16Z"/><path class="cls-2" d="M245.47.51A4.39,4.39,0,1,1,241,4.88,4.37,4.37,0,0,1,245.47.51Zm0,7.92a3.4,3.4,0,0,0,3.41-3.53,3.42,3.42,0,1,0-6.84,0A3.44,3.44,0,0,0,245.47,8.43Zm-1.68-1.25V2.74a9.42,9.42,0,0,1,1.64-.14c.79,0,1.94.14,1.94,1.29a1.11,1.11,0,0,1-.91,1V5c.43.14.65.5.77,1.08a4.14,4.14,0,0,0,.33,1.1h-1a3.82,3.82,0,0,1-.33-1.1c-.17-.7-.55-.7-1.47-.7v1.8Zm1-2.5c.74,0,1.56,0,1.56-.67,0-.41-.29-.69-1-.69a3.08,3.08,0,0,0-.57,0Z"/></g></g></svg>