<?xml version="1.0" encoding="utf-8"?>
<!-- Generator: Adobe Illustrator 19.1.0, SVG Export Plug-In . SVG Version: 6.00 Build 0)  -->
<svg version="1.1" id="レイヤー_1" xmlns="http://www.w3.org/2000/svg" xmlns:xlink="http://www.w3.org/1999/xlink" x="0px"
	 y="0px" width="595.3px" height="841.9px" viewBox="0 0 595.3 841.9" enable-background="new 0 0 595.3 841.9"
	 xml:space="preserve">
<g>
	<path fill="#595757" d="M291.2,648c-60.6,0-117.6-23.6-160.5-66.5C87.8,538.7,64.2,481.7,64.2,421c0-60.6,23.6-117.6,66.5-160.5
		S230.5,194,291.2,194s117.6,23.6,160.5,66.5c42.9,42.9,66.5,99.9,66.5,160.5c0,60.6-23.6,117.6-66.5,160.5
		C408.8,624.4,351.8,648,291.2,648z M291.2,198c-59.6,0-115.6,23.2-157.7,65.3C91.3,305.5,68.2,361.5,68.2,421
		c0,59.6,23.2,115.6,65.3,157.7c42.1,42.1,98.1,65.3,157.7,65.3s115.6-23.2,157.7-65.3c42.1-42.1,65.3-98.1,65.3-157.7
		c0-59.6-23.2-115.6-65.3-157.7C406.7,221.2,350.7,198,291.2,198z"/>
</g>
<g>
	<g>
		<path fill="#FFFFFF" d="M165.8,455.8c-7.4,0-14.2-0.9-20.4-2.8c-6.2-1.9-11.6-4.5-16.2-7.7c-4.6-3.3-8.2-7.2-10.8-11.5
			c-2.6-4.5-4-9.2-4-14c0-4.4,1.1-8.4,3.3-12c1.8-2.9,5.3-6.3,12-6.3c5.5,0,9.9,1.5,13,4.4c3.2,3,4.8,6.5,4.8,10.5
			c0,2.7-0.4,5.9-1.3,9.9c-0.5,2.4-0.9,4.3-1.3,5.8c0.3,0.2,0.6,0.5,0.9,0.8c1.1,0.9,2.5,1.7,4.2,2.5c2.2,1,4.5,1.9,6.9,2.5
			c2.3,0.6,5.7,0.9,10.1,0.9c4,0,7.9-0.7,11.6-2c3.5-1.3,6.7-3.3,9.4-6.2c2.9-3,5.2-6.7,6.8-10.7c1.6-4.1,2.5-9.7,2.5-16.6
			c0-3.7-0.4-7.5-1.2-11.1c-0.7-3.3-2.1-6.2-4-8.6c-1.9-2.3-4.5-4.2-7.8-5.5c-3.5-1.4-8.1-2.1-13.7-2.1h-14.7l-4-4v-12.9l4-4h9.8
			c9,0,15.5-2.4,19.2-7c4-4.9,6-12.7,6-23.1c0-8.2-1.9-14.4-5.5-18.4c-3.7-3.9-8.8-5.8-15.8-5.8c-3.4,0-6.1,0.4-8.2,1.1
			c-2.3,0.9-4.2,1.7-5.5,2.5c-1.5,0.9-2.8,1.8-3.7,2.7c-0.5,0.5-0.9,0.9-1.2,1.3c0.4,1.9,0.9,4.2,1.4,6.7c0.8,3.7,1.2,7.3,1.2,10.7
			c0,3.9-1.6,7.4-4.8,10.4c-3.1,2.9-7.5,4.4-13.1,4.4c-6.7,0-10.2-3.3-12-6.1c-2.2-3.5-3.4-7.5-3.4-12c0-4.5,1.3-9.2,3.7-13.7
			c2.4-4.5,6-8.7,10.6-12.5c4.6-3.8,10.2-6.9,16.8-9.2c6.5-2.3,14.1-3.5,22.5-3.5c9.7,0,17.9,1.5,24.4,4.4
			c6.5,2.9,11.7,6.6,15.5,10.9c3.7,4.2,6.3,8.7,7.8,13.5c1.4,4.6,2.1,8.5,2.1,11.9c0,4.1-0.6,8.2-1.7,12.3
			c-1.2,4.2-3.1,8.2-5.8,11.8c-2.9,3.9-6.7,7.4-11.3,10.5c-2,1.3-4.1,2.5-6.5,3.6c0.9,0.2,1.8,0.5,2.7,0.8c5.2,1.6,9.9,4.1,14,7.2
			c4.4,3.4,8,7.8,10.8,13.1c2.8,5.4,4.3,12.1,4.3,20.1c0,15.5-6.3,28.3-18.8,38C199.1,451,183.8,455.8,165.8,455.8z"/>
		<path fill="#3E3A39" d="M165.8,451.8c-7,0-13.4-0.9-19.2-2.6c-5.8-1.8-10.8-4.1-15-7.1c-4.2-3-7.4-6.4-9.7-10.3
			c-2.3-3.9-3.4-7.9-3.4-12c0-3.7,0.9-7,2.7-9.9c1.8-2.9,4.7-4.4,8.6-4.4c4.5,0,7.9,1.1,10.2,3.3c2.3,2.2,3.5,4.7,3.5,7.5
			c0,2.4-0.4,5.4-1.2,9.1c-0.8,3.7-1.4,6.3-1.8,7.8c0.5,0.7,1.5,1.6,2.9,2.7c1.4,1.1,3.1,2.1,5.1,3c2.4,1.1,4.9,2,7.5,2.7
			s6.3,1,11.1,1c4.5,0,8.8-0.7,12.9-2.2c4.1-1.5,7.8-3.9,10.9-7.2c3.3-3.4,5.8-7.4,7.7-12c1.8-4.6,2.7-10.6,2.7-18.1
			c0-4-0.4-8-1.3-12c-0.9-4-2.4-7.4-4.8-10.3c-2.3-2.9-5.5-5.2-9.5-6.8c-4-1.6-9.1-2.4-15.2-2.4h-14.7v-12.9h9.8
			c10.3,0,17.8-2.8,22.3-8.5c4.6-5.7,6.8-14.2,6.8-25.6c0-9.3-2.2-16.3-6.6-21.1c-4.4-4.7-10.6-7.1-18.7-7.1c-3.9,0-7.1,0.5-9.6,1.4
			c-2.5,0.9-4.5,1.8-6.1,2.7c-1.9,1-3.4,2.2-4.6,3.5c-1.2,1.3-2.1,2.2-2.7,2.8c0.5,2.4,1.2,5.3,1.9,8.8c0.7,3.5,1.1,6.8,1.1,9.9
			c0,2.8-1.2,5.2-3.5,7.4c-2.3,2.2-5.8,3.3-10.3,3.3c-4,0-6.8-1.4-8.7-4.2c-1.8-2.8-2.7-6.1-2.7-9.8c0-3.9,1.1-7.8,3.2-11.9
			c2.2-4,5.4-7.8,9.6-11.3c4.2-3.5,9.4-6.3,15.5-8.5c6.1-2.2,13.2-3.2,21.1-3.2c9.2,0,16.8,1.4,22.8,4.1c6,2.7,10.7,6,14.1,9.9
			c3.4,3.8,5.7,7.8,6.9,12c1.3,4.2,1.9,7.8,1.9,10.7c0,3.7-0.5,7.5-1.6,11.2c-1,3.8-2.8,7.3-5.1,10.5c-2.6,3.5-6.1,6.7-10.3,9.6
			c-4.3,2.9-9.7,5.2-16.2,7v1.8c4.2,0.4,8.6,1.3,13.4,2.8c4.7,1.5,9,3.7,12.8,6.6c4,3.1,7.2,7,9.7,11.8c2.5,4.8,3.8,10.9,3.8,18.3
			c0,14.3-5.7,25.9-17.2,34.8C197.3,447.3,183,451.8,165.8,451.8z"/>
		<path fill="#FFFFFF" d="M280.9,418.5c-8.8,0-16.9-1.7-24.1-4.9c-7.2-3.3-13.5-8-18.5-14c-5.1-6-9.1-13.5-11.8-22.1
			c-2.7-8.5-4.1-18.2-4.1-28.8c0-27.5,8.3-51,24.7-69.9c16.4-18.9,38.7-30.4,66.2-34.2l4.5,3.2l2,10.1l-3.2,4.7l-9.8,1.7
			c-15.2,5-27.1,12.7-35.4,23c-6.3,7.9-11,17.3-14,27.9c3.8-2.5,7.6-4.4,11.4-5.8c6.7-2.5,13.8-3.7,21.2-3.7
			c13.5,0,25.3,5.2,34.9,15.6c9.5,10.3,14.3,23.2,14.3,38.4c0,8.2-1.5,16.1-4.5,23.3c-3,7.2-7,13.5-12.1,18.6
			c-5.8,5.8-12.4,10.2-19.4,13C295.9,417.1,288.5,418.5,280.9,418.5z M254.4,337.7c-0.1,0.9-0.1,2.4-0.2,4.7
			c-0.1,3.1-0.2,5.7-0.2,7.5c0,16.7,2.7,29.8,8,39c5,8.6,11.2,12.8,19.1,12.8c7.6,0,13.5-3.2,18.2-9.9c4.9-7,7.4-16.9,7.4-29.4
			c0-11.1-2.5-20.1-7.5-26.7c-4.8-6.3-11.1-9.4-19.1-9.4c-5,0-9.7,0.9-14,2.8C262.1,330.9,258.2,333.8,254.4,337.7z"/>
		<path fill="#3E3A39" d="M335,359.5c0,7.7-1.4,15-4.2,21.8c-2.8,6.8-6.5,12.5-11.2,17.3c-5.4,5.4-11.5,9.5-18.1,12.1
			c-6.6,2.6-13.5,3.9-20.6,3.9c-8.3,0-15.8-1.5-22.5-4.6c-6.7-3.1-12.4-7.4-17.1-13c-4.8-5.7-8.5-12.6-11.1-20.8
			c-2.6-8.2-3.9-17.4-3.9-27.6c0-26.6,7.9-49,23.8-67.3c15.8-18.3,37.1-29.2,63.7-32.9l2,10.1l-10.1,1.8
			c-16.2,5.2-28.7,13.3-37.5,24.4c-8.8,11-14.6,24.4-17.2,40.1c6.4-5.6,12.7-9.5,19-11.8c6.3-2.3,12.9-3.5,19.8-3.5
			c12.4,0,23.1,4.8,31.9,14.3C330.6,333.4,335,345.3,335,359.5z M310.7,362.4c0-12.1-2.8-21.8-8.3-29.1c-5.6-7.3-13-11-22.3-11
			c-5.6,0-10.8,1-15.6,3.1c-4.8,2.1-9.4,5.6-13.9,10.5c-0.1,0.9-0.2,3-0.3,6.2c-0.2,3.2-0.2,5.8-0.2,7.7c0,17.4,2.9,31.1,8.6,41
			c5.7,9.9,13.2,14.8,22.5,14.8c8.9,0,16-3.9,21.5-11.6C308,386.4,310.7,375.9,310.7,362.4z"/>
		<path fill="#FFFFFF" d="M336.6,415l-4-4V403l3.7-4c2.2-0.1,5.7-0.5,10.3-0.9c5.5-0.6,7.9-1,9-1.4c1.5-0.5,2.5-1.2,3.3-2.2
			c0.4-0.5,1.1-1.9,1.1-5.2v-74.5h-23.8l-4-4v-9.4l4-4h6.1c7.4,0,14.1-1.4,19.9-4.1c5.8-2.7,9.9-5.6,12.3-8.5l3.1-1.5h9.3l4,4.2
			c-0.2,4.9-0.5,10.6-0.7,16.9c-0.2,6.4-0.3,12.2-0.3,17.3v66.3c0,1.9,0.4,3.6,1.2,5c0.7,1.3,1.8,2.2,3.1,2.8c1,0.4,3.4,1.2,8.5,1.9
			c4.2,0.6,7.4,1,9.4,1.1l3.9,4v7.9l-4,4H336.6z"/>
		<path fill="#3E3A39" d="M411.9,411h-75.4V403c2.2-0.1,5.7-0.5,10.5-1c4.7-0.5,8-1,9.8-1.5c2.3-0.7,4.1-2,5.3-3.6
			c1.2-1.7,1.8-4.2,1.8-7.5v-78.5h-27.8v-9.4h6.1c8.1,0,15.3-1.5,21.6-4.5c6.4-3,10.9-6.2,13.7-9.6h9.3c-0.2,4.8-0.4,10.5-0.7,17
			c-0.2,6.5-0.3,12.3-0.3,17.4v66.3c0,2.6,0.6,4.9,1.7,7c1.2,2.1,2.8,3.6,5,4.5c1.9,0.8,5.1,1.6,9.5,2.2s7.7,1,9.8,1.1V411z"/>
		<path fill="#FFFFFF" d="M434.1,298.8c-18.7,0-34-15.3-34-34c0-18.6,15.3-33.8,34-33.8c18.6,0,33.8,15.1,33.8,33.8
			C467.8,283.5,452.7,298.8,434.1,298.8z M434.1,248.8c-8.9,0-16.2,7.1-16.2,15.9c0,9.1,7.1,16.2,16.2,16.2
			c8.8,0,15.9-7.2,15.9-16.2C450,256,442.8,248.8,434.1,248.8z"/>
		<path fill="#3E3A39" d="M463.8,264.8c0,16.5-13.5,30-29.8,30c-16.5,0-30-13.5-30-30c0-16.3,13.5-29.8,30-29.8
			C450.8,235,463.8,249,463.8,264.8z M413.9,264.8c0,11.2,8.9,20.2,20.2,20.2c11,0,19.9-8.9,19.9-20.2c0-11-8.9-19.9-19.9-19.9
			C422.4,244.8,413.9,254.2,413.9,264.8z"/>
	</g>
</g>
<g>
	<path fill="#C36519" d="M417.7,512h-253c-4.4,0-8-3.6-8-8v-24.7c0-4.4,3.6-8,8-8h253c4.4,0,8,3.6,8,8V504
		C425.7,508.4,422.1,512,417.7,512z"/>
	<g>
		<path fill="#FFFFFF" d="M207.4,499.9c0.1-0.7,0.1-1.3,0.1-2.3v-10.7c0-1,0-1.5-0.1-2.3h1.8c-0.1,0.7-0.2,1.3-0.2,2.3v3.4
			c0,0.3,0,0.5-0.1,1c0.4-0.7,0.6-1,1.1-1.4c0.9-0.7,1.8-1.1,3-1.1c2.3,0,3.7,1.4,3.7,3.7v5c0,0.9,0,1.5,0.1,2.2h-1.8
			c0.1-0.7,0.1-1.3,0.1-2.3v-4.7c0-1.7-0.9-2.7-2.4-2.7c-1.1,0-2,0.5-2.8,1.5c-0.6,0.7-0.8,1.3-1,2.1v3.8c0,0.9,0,1.5,0.1,2.3H207.4
			z"/>
		<path fill="#FFFFFF" d="M223,486.1c-0.1,0.6-0.1,1.4-0.1,2.2v0.8h1c0.9,0,1.3,0,2-0.1v1.5c-0.6-0.1-1.1-0.1-2-0.1h-1v7
			c0,0.6,0.1,0.9,0.3,1.1c0.2,0.2,0.6,0.3,1,0.3c0.5,0,0.9-0.1,1.6-0.5l0.4,1.4c-0.8,0.3-1.4,0.5-2.3,0.5c-0.9,0-1.6-0.2-2-0.6
			c-0.4-0.4-0.6-1-0.6-1.9v-7.2h-0.8c-0.7,0-1.1,0-1.8,0.1V489c0.6,0.1,1,0.1,1.8,0.1h0.8v-0.8c0-0.8,0-1.6-0.1-2.2H223z"/>
		<path fill="#FFFFFF" d="M231.1,486.1c-0.1,0.6-0.1,1.4-0.1,2.2v0.8h1c0.9,0,1.3,0,2-0.1v1.5c-0.6-0.1-1.1-0.1-2-0.1h-1v7
			c0,0.6,0.1,0.9,0.3,1.1c0.2,0.2,0.6,0.3,1,0.3c0.5,0,0.9-0.1,1.6-0.5l0.4,1.4c-0.8,0.3-1.4,0.5-2.3,0.5c-0.9,0-1.6-0.2-2-0.6
			c-0.4-0.4-0.6-1-0.6-1.9v-7.2h-0.8c-0.7,0-1.1,0-1.8,0.1V489c0.6,0.1,1,0.1,1.8,0.1h0.8v-0.8c0-0.8,0-1.6-0.1-2.2H231.1z"/>
		<path fill="#FFFFFF" d="M236,504.1c0.1-0.8,0.1-1.4,0.1-2.2v-10.4c0-1,0-1.5-0.1-2.3h1.6v1.1c0,0.3,0,0.5-0.1,0.8
			c0.9-1.4,2.3-2.2,4.1-2.2c3.1,0,5,2.1,5,5.6c0,3.4-1.9,5.6-4.9,5.6c-1.8,0-3.2-0.7-4.1-2.1c0.1,0.6,0.1,0.9,0.1,1.4v2.5
			c0,0.9,0,1.5,0.1,2.3H236z M245.1,494.5c0-2.7-1.3-4.3-3.5-4.3c-2.3,0-3.9,1.7-3.9,4.3c0,1.3,0.4,2.5,1.1,3.2
			c0.7,0.7,1.7,1.1,2.7,1.1C243.7,498.8,245.1,497.1,245.1,494.5z"/>
		<path fill="#FFFFFF" d="M251.1,491.1h-2v-2h2V491.1z M249.2,499.9v-2h2v2H249.2z"/>
		<path fill="#FFFFFF" d="M261.8,484.7l-7.2,18.3h-1.5l7.2-18.3H261.8z"/>
		<path fill="#FFFFFF" d="M271.5,484.7l-7.2,18.3h-1.5l7.2-18.3H271.5z"/>
		<path fill="#FFFFFF" d="M273.5,504.1c0.1-0.8,0.1-1.4,0.1-2.2v-10.4c0-1,0-1.5-0.1-2.3h1.6v1.1c0,0.3,0,0.5-0.1,0.8
			c0.9-1.4,2.3-2.2,4.1-2.2c3.1,0,5,2.1,5,5.6c0,3.4-1.9,5.6-4.9,5.6c-1.8,0-3.2-0.7-4.1-2.1c0.1,0.6,0.1,0.9,0.1,1.4v2.5
			c0,0.9,0,1.5,0.1,2.3H273.5z M282.6,494.5c0-2.7-1.3-4.3-3.5-4.3c-2.3,0-3.9,1.7-3.9,4.3c0,1.3,0.4,2.5,1.1,3.2
			c0.7,0.7,1.7,1.1,2.7,1.1C281.2,498.8,282.6,497.1,282.6,494.5z"/>
		<path fill="#FFFFFF" d="M293.8,498.5c-0.8,0.7-1.2,1-1.8,1.2c-0.7,0.3-1.4,0.4-2.1,0.4c-2.2,0-3.5-1.1-3.5-3c0-1.6,1-2.8,2.9-3.3
			c1.2-0.3,2.1-0.5,4.6-0.5v-1.2c0-1.4-0.9-2.1-2.5-2.1c-1.1,0-1.9,0.3-2.5,0.9c-0.3,0.3-0.4,0.6-0.6,1.2l-1.6-0.3
			c0.4-0.9,0.6-1.3,1.1-1.8c0.8-0.8,2-1.1,3.5-1.1c2.6,0,4,1.1,4,3.3v5.6c0,0.9,0,1.4,0.2,2.2h-1.6V498.5z M293.8,494.4
			c-2.4,0.1-3.5,0.2-4.4,0.6c-1,0.4-1.5,1.1-1.5,2.1c0,1.1,0.8,1.8,2.1,1.8c1.2,0,2.4-0.6,3.2-1.4c0.5-0.5,0.6-0.9,0.6-1.7V494.4z"
			/>
		<path fill="#FFFFFF" d="M298.4,499.9c0.1-0.8,0.2-1.3,0.2-2.3v-6.3c0-0.9,0-1.5-0.2-2.3h1.7v1.4c0,0.2,0,0.4-0.1,0.9
			c0.9-1.6,2.2-2.4,4-2.4c1.4,0,2.6,0.5,3.2,1.5c0.4,0.6,0.6,1.3,0.6,2.3v4.9c0,1,0,1.6,0.1,2.2h-1.8c0.1-0.8,0.1-1.4,0.1-2.3V493
			c0-1.8-0.9-2.8-2.4-2.8c-1.1,0-2,0.5-2.9,1.6c-0.5,0.7-0.8,1.2-0.9,2v3.9c0,0.9,0,1.5,0.1,2.3H298.4z"/>
		<path fill="#FFFFFF" d="M310.4,494.5c0-3.5,2.1-5.7,5.3-5.7s5.3,2.2,5.3,5.6c0,3.4-2.1,5.7-5.3,5.7
			C312.5,500.1,310.4,498,310.4,494.5z M312,494.5c0,2.7,1.5,4.4,3.8,4.4c2.3,0,3.8-1.7,3.8-4.4c0-2.7-1.4-4.4-3.7-4.4
			C313.4,490.1,312,491.8,312,494.5z"/>
		<path fill="#FFFFFF" d="M325.4,484.7c-0.1,0.7-0.1,1.3-0.1,2.3v10.7c0,0.9,0,1.4,0.1,2.2h-1.8c0.1-0.7,0.1-1.3,0.1-2.2v-10.7
			c0-1,0-1.5-0.1-2.2H325.4z"/>
		<path fill="#FFFFFF" d="M335.6,498.5c-0.8,0.7-1.2,1-1.8,1.2c-0.7,0.3-1.4,0.4-2.1,0.4c-2.2,0-3.5-1.1-3.5-3c0-1.6,1-2.8,2.9-3.3
			c1.2-0.3,2.1-0.5,4.6-0.5v-1.2c0-1.4-0.9-2.1-2.5-2.1c-1.1,0-1.9,0.3-2.5,0.9c-0.3,0.3-0.4,0.6-0.6,1.2l-1.6-0.3
			c0.4-0.9,0.6-1.3,1.1-1.8c0.8-0.8,2-1.1,3.5-1.1c2.6,0,4,1.1,4,3.3v5.6c0,0.9,0,1.4,0.2,2.2h-1.6V498.5z M335.6,494.4
			c-2.4,0.1-3.5,0.2-4.4,0.6c-1,0.4-1.5,1.1-1.5,2.1c0,1.1,0.8,1.8,2.1,1.8c1.2,0,2.4-0.6,3.2-1.4c0.5-0.5,0.6-0.9,0.6-1.7V494.4z"
			/>
		<path fill="#FFFFFF" d="M340.2,499.9c0.1-0.8,0.1-1.3,0.1-2.3v-10.6c0-0.8,0-1.5-0.1-2.3h1.8c-0.1,0.7-0.1,1.3-0.1,2.3v2.7
			c0,0.5,0,0.9-0.1,1.4c0.9-1.5,2.3-2.2,4.1-2.2c3.1,0,4.9,2.1,4.9,5.6c0,3.5-1.9,5.6-5,5.6c-1.3,0-2.2-0.3-3.1-1.1
			c-0.4-0.3-0.6-0.6-0.9-1c0,0.4,0.1,0.5,0.1,0.8v1.1H340.2z M345.7,490.2c-2.4,0-3.9,1.7-3.9,4.3c0,2.6,1.6,4.3,3.9,4.3
			c2.2,0,3.6-1.6,3.6-4.4C349.2,491.7,347.9,490.2,345.7,490.2z"/>
		<path fill="#FFFFFF" d="M352.8,494.5c0-3.5,2.1-5.7,5.3-5.7s5.3,2.2,5.3,5.6c0,3.4-2.1,5.7-5.3,5.7
			C354.9,500.1,352.8,498,352.8,494.5z M354.3,494.5c0,2.7,1.5,4.4,3.8,4.4c2.3,0,3.8-1.7,3.8-4.4c0-2.7-1.4-4.4-3.7-4.4
			C355.8,490.1,354.3,491.8,354.3,494.5z"/>
		<path fill="#FFFFFF" d="M368,497.9v2h-2v-2H368z"/>
		<path fill="#FFFFFF" d="M378.7,492.4c-0.6-1.6-1.5-2.3-3-2.3c-2.2,0-3.6,1.7-3.6,4.4c0,2.6,1.4,4.3,3.7,4.3c1.1,0,2.1-0.5,2.6-1.3
			c0.2-0.3,0.3-0.5,0.4-1l1.5,0.4c-0.3,0.7-0.5,1.1-0.8,1.5c-0.9,1.1-2.2,1.7-3.8,1.7c-3.1,0-5.2-2.2-5.2-5.6c0-3.5,2-5.7,5.1-5.7
			c1.7,0,3,0.6,3.9,1.8c0.3,0.4,0.5,0.7,0.7,1.3L378.7,492.4z"/>
		<path fill="#FFFFFF" d="M382.3,494.5c0-3.5,2.1-5.7,5.3-5.7s5.3,2.2,5.3,5.6c0,3.4-2.1,5.7-5.3,5.7
			C384.3,500.1,382.3,498,382.3,494.5z M383.8,494.5c0,2.7,1.5,4.4,3.8,4.4c2.3,0,3.8-1.7,3.8-4.4c0-2.7-1.4-4.4-3.7-4.4
			C385.3,490.1,383.8,491.8,383.8,494.5z"/>
		<path fill="#FFFFFF" d="M395.5,499.9c0.1-0.7,0.1-1.3,0.1-2.3v-6.3c0-1,0-1.5-0.1-2.3h1.6v1.1c0,0.1,0,0.3,0,0.7
			c0.2-0.3,0.4-0.6,0.8-1c0.7-0.7,1.7-1,2.8-1c1.1,0,2,0.3,2.6,1c0.3,0.3,0.4,0.6,0.6,1.2c0.9-1.5,2-2.2,3.7-2.2
			c1.3,0,2.3,0.4,2.9,1.2c0.5,0.6,0.7,1.4,0.7,2.6v4.9c0,1,0,1.5,0.1,2.2h-1.8c0.1-0.7,0.1-1.2,0.1-2.3v-4.7c0-1.9-0.7-2.7-2.3-2.7
			c-1,0-1.9,0.5-2.5,1.5c-0.4,0.6-0.7,1.5-0.7,2.1v3.9c0,1,0,1.6,0.1,2.2h-1.8c0.1-0.7,0.1-1.2,0.1-2.3v-4.7c0-1.8-0.8-2.7-2.2-2.7
			c-1,0-2,0.6-2.6,1.5c-0.4,0.5-0.7,1.5-0.7,2v3.9c0,0.9,0,1.5,0.1,2.3H395.5z"/>
	</g>
	<g>
		<path fill="#FFFFFF" d="M183.5,495.7c-0.3,0-0.9-0.1-0.9,0.4c0,0.5,0,0.9,0,0.9c0,0.6,0.5,0.6,0.9,0.6c0.4,0,4.5,0,4.5,0
			c0.5,0,1-0.3,1-0.6c0-0.3,0-3.6,0-4.5c0-1.1-0.5-1.4-0.5-1.4l-8-8.8l-8.3,9.1c0,0-0.5,0.3-0.5,1.4c0,0.9,0,7,0,7.3s0.5,0.6,1,0.6
			c0,0,15.7,0,16.3,0v-1.9h-15.4v-5.8c0-0.2,0.1-0.4,0.3-0.7c0,0,5.8-6.3,6-6.6c0.4-0.4,0.7-0.4,1,0c0.3,0.3,5.7,6.3,5.7,6.3
			c0.3,0.3,0.3,0.6,0.3,0.8c0,0.2,0,2.9,0,2.9H183.5z"/>
		<path fill="#FFFFFF" d="M184.4,480.3c0-0.3-0.3-0.6-0.6-0.6h-0.9c-0.3,0-0.6,0.3-0.6,0.6v1.9l2.1,2.3V480.3z"/>
	</g>
</g>
<g>
	<ellipse fill="#3E3A39" cx="235.7" cy="558.6" rx="2.1" ry="2.5"/>
	<path fill="#3E3A39" d="M241.1,550.5c-0.1,0-9.9,2.1-20.3,2.1c-10.4,0-20.2-2.1-20.3-2.1l-2.3-0.5v22.8l2.3-0.5
		c0.1,0,9.9-2.1,20.3-2.1c10.4,0,20.2,2.1,20.3,2.1l2.3,0.5V550L241.1,550.5z M241.4,570.1c0,0-3.6-0.8-8.7-1.4l-1.5-3h1.3l-2.8-5.8
		l-2.8,5.8h1.3l-1.2,2.4c-0.8-0.1-1.6-0.1-2.4-0.1l-1.6-3.3h1.7l-3.7-7.6l-3.7,7.6h1.7l-1.6,3.3c-0.8,0-1.6,0.1-2.4,0.1l-1.2-2.4
		h1.3l-2.8-5.8l-2.8,5.8h1.3l-1.5,3c-5.2,0.6-8.7,1.4-8.7,1.4v-17.3c0,0,10,2.2,20.6,2.2s20.6-2.2,20.6-2.2V570.1z"/>
	<g>
		<path fill="#3E3A39" d="M263.5,552.9c1.6,1.6,2.3,4.1,2.3,7.2c0,3.4-0.8,5.9-2.3,7.7s-3.5,2.6-5.9,2.6c-1.5,0-2.8-0.4-3.8-1.1
			c-0.6-0.4-1.1-1-1.6-1.8v9.9h-4.9v-26.6h4.8v2.8c0.5-0.8,1.1-1.5,1.7-2c1.1-0.9,2.4-1.3,4-1.3C260.1,550.5,262,551.3,263.5,552.9z
			 M259.7,556.5c-0.7-1.1-1.8-1.7-3.3-1.7c-1.8,0-3.1,0.9-3.8,2.6c-0.4,0.9-0.5,2.1-0.5,3.5c0,2.2,0.6,3.8,1.8,4.7
			c0.7,0.5,1.5,0.8,2.5,0.8c1.4,0,2.5-0.5,3.2-1.6c0.7-1.1,1.1-2.5,1.1-4.3C260.7,559,260.4,557.7,259.7,556.5z"/>
		<path fill="#3E3A39" d="M274.8,558.4c0.9-0.1,1.6-0.3,2-0.4c0.7-0.3,1.1-0.8,1.1-1.4c0-0.8-0.3-1.3-0.8-1.6
			c-0.5-0.3-1.4-0.4-2.4-0.4c-1.2,0-2,0.3-2.5,0.9c-0.4,0.4-0.6,1-0.7,1.7h-4.8c0.1-1.7,0.6-3,1.4-4.1c1.3-1.7,3.6-2.5,6.8-2.5
			c2.1,0,4,0.4,5.6,1.2c1.6,0.8,2.4,2.4,2.4,4.7v8.7c0,0.6,0,1.3,0,2.2c0,0.7,0.1,1.1,0.3,1.3c0.2,0.2,0.4,0.4,0.7,0.6v0.7h-5.4
			c-0.2-0.4-0.3-0.7-0.3-1.1c-0.1-0.3-0.1-0.7-0.1-1.2c-0.7,0.7-1.5,1.4-2.4,1.9c-1.1,0.6-2.3,0.9-3.7,0.9c-1.7,0-3.2-0.5-4.3-1.5
			c-1.1-1-1.7-2.4-1.7-4.2c0-2.3,0.9-4,2.7-5.1c1-0.6,2.5-1,4.4-1.2L274.8,558.4z M277.9,560.7c-0.3,0.2-0.6,0.4-1,0.5
			c-0.3,0.1-0.8,0.2-1.3,0.3l-1.1,0.2c-1.1,0.2-1.8,0.4-2.3,0.7c-0.8,0.5-1.2,1.2-1.2,2.1c0,0.9,0.2,1.5,0.7,1.8s1.1,0.6,1.8,0.6
			c1.1,0,2.1-0.3,3-0.9s1.4-1.8,1.4-3.4V560.7z"/>
		<path fill="#3E3A39" d="M300.4,552c1.2,1,1.9,2.7,1.9,5.1V570h-5.1v-11.6c0-1-0.1-1.8-0.4-2.3c-0.5-1-1.4-1.5-2.8-1.5
			c-1.7,0-2.8,0.7-3.5,2.2c-0.3,0.8-0.5,1.7-0.5,2.9V570h-5v-19h4.8v2.8c0.6-1,1.2-1.7,1.8-2.1c1-0.8,2.3-1.2,3.9-1.2
			C297.6,550.4,299.2,550.9,300.4,552z"/>
		<path fill="#3E3A39" d="M320.7,567.6c-1.6,2-4.1,3-7.3,3c-3.3,0-5.7-1-7.3-3s-2.4-4.4-2.4-7.2c0-2.8,0.8-5.1,2.4-7.2
			c1.6-2,4.1-3,7.3-3c3.3,0,5.7,1,7.3,3c1.6,2,2.4,4.4,2.4,7.2C323.1,563.2,322.3,565.6,320.7,567.6z M316.7,564.9
			c0.8-1,1.2-2.5,1.2-4.4c0-1.9-0.4-3.4-1.2-4.4s-1.9-1.5-3.4-1.5c-1.5,0-2.6,0.5-3.4,1.5c-0.8,1-1.2,2.5-1.2,4.4
			c0,1.9,0.4,3.4,1.2,4.4c0.8,1,1.9,1.6,3.4,1.6C314.8,566.4,315.9,565.9,316.7,564.9z"/>
		<path fill="#3E3A39" d="M325.1,570v-25.8h2.2V570H325.1z"/>
		<path fill="#3E3A39" d="M339.1,559.1c0.4,0,0.9-0.1,1.5-0.2c0.6-0.1,1-0.2,1.4-0.4s0.6-0.4,0.7-0.8c0.1-0.4,0.1-0.8,0.1-1.1
			c0-1.1-0.4-2-1.1-2.7c-0.7-0.7-1.9-1.1-3.6-1.1c-0.7,0-1.4,0.1-2,0.2c-0.6,0.1-1.2,0.4-1.6,0.7c-0.5,0.3-0.8,0.8-1.1,1.3
			c-0.3,0.5-0.5,1.2-0.6,2h-2.2c0.1-1.1,0.3-2,0.8-2.8c0.4-0.8,1-1.4,1.7-1.9c0.7-0.5,1.5-0.8,2.4-1.1c0.9-0.2,1.8-0.3,2.8-0.3
			c0.9,0,1.8,0.1,2.6,0.3s1.5,0.5,2.2,1c0.6,0.4,1.1,1,1.4,1.8c0.3,0.7,0.5,1.6,0.5,2.7v10.1c0,0.8,0.1,1.4,0.4,1.6
			c0.3,0.2,0.9,0.2,1.8-0.2v1.7c-0.2,0-0.4,0.1-0.7,0.2c-0.3,0.1-0.6,0.1-0.9,0.1c-0.3,0-0.7,0-1-0.1c-0.4,0-0.6-0.2-0.9-0.3
			c-0.2-0.2-0.4-0.4-0.5-0.6c-0.1-0.3-0.2-0.5-0.3-0.8c0-0.3-0.1-0.6-0.1-0.9c-0.9,1-1.9,1.8-3.1,2.3c-1.2,0.5-2.4,0.8-3.8,0.8
			c-0.8,0-1.6-0.1-2.3-0.3c-0.8-0.2-1.4-0.5-2-1c-0.6-0.5-1-1-1.4-1.7c-0.3-0.7-0.5-1.4-0.5-2.3c0-3.2,2.2-5,6.5-5.6L339.1,559.1z
			 M342.7,560.2c-0.9,0.4-1.8,0.6-2.8,0.8c-0.9,0.1-1.9,0.2-2.8,0.3c-1.6,0.1-2.9,0.5-3.9,1.1c-0.9,0.6-1.4,1.6-1.4,2.8
			c0,0.6,0.1,1.1,0.3,1.5c0.2,0.4,0.5,0.8,0.9,1c0.4,0.3,0.8,0.5,1.3,0.6c0.5,0.1,1,0.2,1.5,0.2c0.9,0,1.7-0.1,2.5-0.3
			s1.5-0.5,2.2-1s1.1-1,1.5-1.7c0.4-0.7,0.6-1.5,0.6-2.4V560.2z"/>
		<path fill="#3E3A39" d="M350.7,570h-2.2v-25.8h2.2v10.2c0.7-1.1,1.6-2,2.8-2.6c1.2-0.6,2.5-0.9,3.8-0.9c1.4,0,2.6,0.3,3.7,0.8
			c1,0.5,1.9,1.3,2.6,2.2c0.7,0.9,1.2,1.9,1.5,3.1c0.3,1.2,0.5,2.4,0.5,3.7c0,1.4-0.2,2.6-0.5,3.8s-0.8,2.2-1.5,3.1
			c-0.7,0.9-1.5,1.6-2.6,2.1c-1.1,0.5-2.3,0.8-3.8,0.8c-0.6,0-1.2-0.1-1.8-0.3c-0.6-0.2-1.2-0.4-1.8-0.7c-0.6-0.3-1.1-0.7-1.6-1.2
			c-0.5-0.5-0.9-1-1.2-1.6h-0.1V570z M350.7,560.6c0,1.1,0.1,2.2,0.4,3.1c0.3,1,0.7,1.8,1.2,2.5c0.5,0.7,1.2,1.3,2,1.7
			c0.8,0.4,1.7,0.6,2.7,0.6c0.9,0,1.7-0.2,2.5-0.5c0.8-0.3,1.4-0.8,2-1.4c0.6-0.6,1-1.4,1.3-2.3c0.3-0.9,0.5-1.9,0.5-3.1
			c0-1.2,0-2.3-0.3-3.3c-0.2-1-0.6-1.9-1.1-2.7c-0.5-0.8-1.2-1.4-2-1.8c-0.8-0.4-1.8-0.7-2.9-0.7c-1,0-1.9,0.2-2.6,0.6
			c-0.8,0.4-1.4,1-2,1.7c-0.5,0.7-0.9,1.5-1.2,2.5C350.9,558.6,350.7,559.6,350.7,560.6z"/>
		<path fill="#3E3A39" d="M375.5,570.5c-1.2,0-2.3-0.2-3.4-0.6c-1-0.4-1.9-1-2.7-1.8c-0.8-0.8-1.4-1.8-1.8-3
			c-0.5-1.2-0.7-2.6-0.7-4.3c0-1.4,0.2-2.6,0.5-3.8s0.9-2.2,1.6-3.1c0.7-0.9,1.6-1.6,2.7-2.1c1.1-0.5,2.3-0.8,3.8-0.8
			c1.5,0,2.7,0.3,3.8,0.8s2,1.2,2.7,2.1c0.7,0.9,1.2,1.9,1.6,3.1c0.3,1.2,0.5,2.5,0.5,3.8c0,1.5-0.2,2.8-0.6,4
			c-0.4,1.2-1,2.2-1.7,3.1c-0.8,0.9-1.7,1.5-2.7,2C377.9,570.2,376.8,570.5,375.5,570.5z M381.8,560.7c0-1.1-0.1-2.1-0.4-3.1
			c-0.2-1-0.6-1.8-1.1-2.5c-0.5-0.7-1.1-1.3-1.9-1.7s-1.8-0.6-2.9-0.6c-1.1,0-2.1,0.2-2.9,0.7c-0.8,0.4-1.5,1-2,1.8
			c-0.5,0.7-0.9,1.6-1.1,2.5c-0.2,0.9-0.4,1.9-0.4,2.9c0,1.1,0.1,2.2,0.4,3.2c0.3,1,0.7,1.8,1.2,2.5s1.2,1.2,2,1.6
			c0.8,0.4,1.7,0.6,2.7,0.6c1.1,0,2.1-0.2,2.9-0.7c0.8-0.4,1.5-1,2-1.8c0.5-0.7,0.9-1.6,1.1-2.5
			C381.7,562.6,381.8,561.7,381.8,560.7z"/>
	</g>
</g>
<g>
</g>
<g>
</g>
<g>
</g>
<g>
</g>
<g>
</g>
<g>
</g>
</svg>
