<svg xmlns="http://www.w3.org/2000/svg" viewBox="0 0 173.76 28"><defs><style>.cls-1{fill:#fff;}.cls-2{fill:#ccc;}.cls-3{fill:#333;}.cls-4{fill:#52ab4c;}.cls-5{fill:none;}</style></defs><title>panolaboWS</title><g id="レイヤー_2" data-name="レイヤー 2"><g id="IX"><g id="layer1"><g id="g5131"><path id="path5037" class="cls-1" d="M150.48.95a8.5,8.5,0,0,0-6.79,3.38,8.52,8.52,0,0,0-13,5.82,8.51,8.51,0,1,0,6.81,15.15,8.54,8.54,0,0,0,5.18,0,8.52,8.52,0,0,0,11.48-.06,8.53,8.53,0,0,0,8.72.53,8.51,8.51,0,1,0,1.76-16.85h-.14a8.5,8.5,0,0,0-6.34-3.1,8.51,8.51,0,0,0-7.71-4.9Z"/><path id="path5039" class="cls-1" d="M150.47.59a8.85,8.85,0,0,0-6.88,3.29,8.84,8.84,0,0,0-13.18,6,8.87,8.87,0,1,0,7.18,15.84,8.81,8.81,0,0,0,5,0,8.84,8.84,0,0,0,11.59,0,8.84,8.84,0,0,0,8.74.46,8.87,8.87,0,1,0,1.72-17.58,8.86,8.86,0,0,0-6.27-3.08A8.87,8.87,0,0,0,150.47.59Zm0,.72A8.15,8.15,0,0,1,157.86,6a.36.36,0,0,0,.32.21,8.13,8.13,0,0,1,6.07,3,.36.36,0,0,0,.29.13h.13A8.15,8.15,0,1,1,163,25.44a.36.36,0,0,0-.24,0,8.15,8.15,0,0,1-8.35-.51.36.36,0,0,0-.45,0,8.15,8.15,0,0,1-11,.06.36.36,0,0,0-.35-.08,8.18,8.18,0,0,1-5,0,.36.36,0,0,0-.33.06,8.15,8.15,0,1,1-6.52-14.51.36.36,0,0,0,.29-.29,8.15,8.15,0,0,1,12.41-5.57.36.36,0,0,0,.48-.09,8.14,8.14,0,0,1,6.51-3.24Z"/><path id="path5041" class="cls-2" d="M150.36,2.1a7.91,7.91,0,0,0-7.18,4.72l0,0a7.79,7.79,0,0,1,12.66,0h-.06a8.4,8.4,0,0,1,.81,1.41,7.88,7.88,0,0,1,1.43.17h0a7.91,7.91,0,0,1,3.1,1.44h0a8.24,8.24,0,0,1,1.28,1.14h.14c4.71,0,8.53,3.45,8.53,7.7a7,7,0,0,1-.71,3.08,7.18,7.18,0,0,0,1.61-4.5c0-4.25-3.82-7.7-8.53-7.7h-.12a8,8,0,0,0-5.84-2.89,7.91,7.91,0,0,0-7.15-4.65ZM139.17,4l-.6,0a7.55,7.55,0,0,0-6.6,5.2,7.43,7.43,0,0,1,5.9-3.69,7.28,7.28,0,0,1,4.12,1,7.84,7.84,0,0,1,1-1.31A7.31,7.31,0,0,0,139.17,4ZM150.78,6.7A8.21,8.21,0,0,0,145,9.1c.17.12.34.25.49.38A8.27,8.27,0,0,1,151.21,8a8,8,0,0,1,7.23,8.77,7.73,7.73,0,0,1-.34,1.56,7.68,7.68,0,0,0,.88-2.81,8,8,0,0,0-7.23-8.77,8.53,8.53,0,0,0-1-.05ZM137.06,9a8.42,8.42,0,0,0-1.9.22A8.3,8.3,0,0,0,130.64,12a7.7,7.7,0,0,1,.33-1.21,8.11,8.11,0,0,0-5.36,4.48,8.18,8.18,0,0,1,4.9-3.12,7.87,7.87,0,0,0-1.72,5.06,8.17,8.17,0,0,1,6.27-6.63,8.27,8.27,0,0,1,5.79.75,8.38,8.38,0,0,1,1.27-.59A8.2,8.2,0,0,0,137.06,9Z"/></g></g><path class="cls-3" d="M129.55,5h3l-4.7,18.43h-2.81L121.17,9.83l-3.82,13.66h-2.81L109.6,5h3.14l3.41,14.23L119.8,5.43h2.83l3.79,13.85Z"/><path class="cls-3" d="M136.22,14.49a4.5,4.5,0,0,0,1.69-.33l.22,1a5,5,0,0,1-2,.39,2.68,2.68,0,0,1-2.93-3c0-1.79.95-3.18,2.77-3.18,1.61,0,2.25,1.1,2.25,2.62v.7h-3.82a1.64,1.64,0,0,0,1.82,1.84Zm-.39-4.23a1.51,1.51,0,0,0-1.41,1.53h2.69c0-.94-.34-1.53-1.27-1.53Z"/><path class="cls-3" d="M139.76,15.34V7.4l1.18-.18v3a2.24,2.24,0,0,1,1.76-.83c1.51,0,2.28,1.1,2.28,2.94s-.62,3.17-2.45,3.17a2.55,2.55,0,0,1-1.67-.67l-.15.53Zm1.14-2.45a5,5,0,0,0,.06.9,1.68,1.68,0,0,0,1.37.69c1.08,0,1.43-.9,1.43-2.14s-.35-1.95-1.3-1.95a1.65,1.65,0,0,0-1.5.95,4.45,4.45,0,0,0-.06.79Z"/><path class="cls-3" d="M136.88,17.17a3.53,3.53,0,0,0-1.59-.44,1.39,1.39,0,0,0-1.57,1.37c0,.8.62,1.09,1.53,1.51,1.1.5,1.85,1,1.85,2a1.76,1.76,0,0,1-1.94,1.89,5.73,5.73,0,0,1-2.14-.47l.11-.34a5.35,5.35,0,0,0,2,.45,1.4,1.4,0,0,0,1.58-1.51c0-.84-.65-1.26-1.66-1.74s-1.72-.81-1.72-1.83a1.72,1.72,0,0,1,1.92-1.73,4,4,0,0,1,1.76.44Z"/><path class="cls-3" d="M140.71,23.22a3.91,3.91,0,0,0,1.64-.34l.08.32a4.2,4.2,0,0,1-1.75.36c-1.31,0-2.4-.72-2.4-2.61,0-1.66.86-2.83,2.26-2.83,1.19,0,2,.69,2,2.37v.21h-3.84c-.12,1.89.86,2.52,2,2.52Zm-.21-4.77c-1,0-1.67.77-1.81,2h3.47c0-1.34-.58-2-1.65-2Z"/><path class="cls-3" d="M146.41,18.23l0,.34a1.92,1.92,0,0,0-1.79,1.11v3.75h-.38V19.77a5.85,5.85,0,0,0-.13-1.44l.33-.06a3.31,3.31,0,0,1,.17,1A2,2,0,0,1,146.41,18.23Z"/><path class="cls-3" d="M150.82,18.31h.41l-2.07,5.12h-.34l-2.09-5.12h.41L149,22.93Z"/><path class="cls-3" d="M152.88,17.06h-.5v-.53h.5Zm-.05,6.36h-.39V18.31h.39Z"/><path class="cls-3" d="M154.48,20.94c0-1.6.66-2.8,2.35-2.8a4.06,4.06,0,0,1,1.19.19l-.08.34a3.33,3.33,0,0,0-1.11-.2c-1.5,0-2,1.18-2,2.48s.46,2.29,2,2.29A3.1,3.1,0,0,0,158,23l.07.35a4,4,0,0,1-1.23.18c-1.78,0-2.36-1.25-2.36-2.63Z"/><path class="cls-3" d="M161.53,23.22a3.91,3.91,0,0,0,1.64-.34l.08.32a4.2,4.2,0,0,1-1.75.36c-1.31,0-2.4-.72-2.4-2.61,0-1.66.86-2.83,2.26-2.83,1.19,0,2,.69,2,2.37v.21h-3.84c-.12,1.89.86,2.52,2,2.52Zm-.21-4.77c-1,0-1.67.77-1.81,2H163c0-1.34-.58-2-1.65-2Z"/><path class="cls-3" d="M167.48,18.82a3,3,0,0,0-1.32-.31,1,1,0,0,0-1.14,1c0,.58.36.8,1.17,1.12s1.49.68,1.49,1.51a1.39,1.39,0,0,1-1.58,1.45,4.71,4.71,0,0,1-1.68-.33l.1-.33a4,4,0,0,0,1.56.32c.62,0,1.22-.23,1.22-1.09,0-.62-.47-.9-1.35-1.24s-1.31-.57-1.31-1.4a1.34,1.34,0,0,1,1.51-1.3,3.41,3.41,0,0,1,1.42.32Z"/><path class="cls-4" d="M38.13,11.26a5.94,5.94,0,0,1,1.36,4.23A6.68,6.68,0,0,1,38.16,20a4.32,4.32,0,0,1-3.43,1.54,3.6,3.6,0,0,1-2.22-.66,4.29,4.29,0,0,1-.95-1.07v5.8H28.69V10.07h2.79v1.64a4.69,4.69,0,0,1,1-1.14,3.72,3.72,0,0,1,2.32-.75A4.4,4.4,0,0,1,38.13,11.26ZM35.9,13.36a2.07,2.07,0,0,0-1.92-1,2.19,2.19,0,0,0-2.2,1.5,5.64,5.64,0,0,0-.31,2,3.21,3.21,0,0,0,1,2.73,2.39,2.39,0,0,0,1.47.46,2.13,2.13,0,0,0,1.87-.94,4.35,4.35,0,0,0,.65-2.5A4.35,4.35,0,0,0,35.9,13.36Z"/><path class="cls-4" d="M44.7,14.43a4.6,4.6,0,0,0,1.16-.26.88.88,0,0,0,.63-.83A1,1,0,0,0,46,12.4a3,3,0,0,0-1.41-.26,1.86,1.86,0,0,0-1.48.51,2.1,2.1,0,0,0-.41,1H39.9a4.26,4.26,0,0,1,.82-2.4q1.16-1.47,4-1.47a7.1,7.1,0,0,1,3.26.73,2.78,2.78,0,0,1,1.43,2.74v5.11q0,.53,0,1.29a1.61,1.61,0,0,0,.17.78,1,1,0,0,0,.43.34v.43H46.84a3.22,3.22,0,0,1-.18-.63q-.05-.3-.08-.67A6,6,0,0,1,45.18,21a4.22,4.22,0,0,1-2.14.54,3.69,3.69,0,0,1-2.51-.86,3.07,3.07,0,0,1-1-2.45,3.17,3.17,0,0,1,1.6-3,7.13,7.13,0,0,1,2.57-.72Zm1.78,1.36a3.19,3.19,0,0,1-.56.28,4.74,4.74,0,0,1-.78.2l-.66.12a4.36,4.36,0,0,0-1.34.4A1.33,1.33,0,0,0,42.45,18a1.29,1.29,0,0,0,.42,1.08,1.6,1.6,0,0,0,1,.33,3,3,0,0,0,1.76-.55,2.34,2.34,0,0,0,.84-2Z"/><path class="cls-4" d="M59.66,10.71a3.68,3.68,0,0,1,1.09,3v7.5h-3V14.43a3.11,3.11,0,0,0-.23-1.35,1.64,1.64,0,0,0-1.62-.86,2,2,0,0,0-2,1.26,4.34,4.34,0,0,0-.28,1.7v6H50.7V10.09h2.82v1.62a4.94,4.94,0,0,1,1.06-1.24,3.67,3.67,0,0,1,2.27-.67A4.27,4.27,0,0,1,59.66,10.71Z"/><path class="cls-4" d="M71.49,19.84a5.18,5.18,0,0,1-4.28,1.74,5.18,5.18,0,0,1-4.28-1.74,6.45,6.45,0,0,1-1.41-4.19,6.49,6.49,0,0,1,1.41-4.18,5.15,5.15,0,0,1,4.28-1.77,5.15,5.15,0,0,1,4.28,1.77,6.49,6.49,0,0,1,1.41,4.18A6.45,6.45,0,0,1,71.49,19.84Zm-2.33-1.61a4.22,4.22,0,0,0,.68-2.58,4.2,4.2,0,0,0-.68-2.58,2.59,2.59,0,0,0-3.93,0,4.17,4.17,0,0,0-.69,2.58,4.2,4.2,0,0,0,.69,2.58,2.58,2.58,0,0,0,3.93,0Z"/><path class="cls-3" d="M74.06,21.21V6.14h1.26V21.21Z"/><path class="cls-3" d="M82.25,14.89l.85-.13a3.19,3.19,0,0,0,.81-.23.67.67,0,0,0,.39-.49,3.1,3.1,0,0,0,.07-.64,2.14,2.14,0,0,0-.62-1.58,2.88,2.88,0,0,0-2.08-.62,5.79,5.79,0,0,0-1.19.12,2.6,2.6,0,0,0-1,.4,2.2,2.2,0,0,0-.67.75,3.2,3.2,0,0,0-.34,1.18H77.22A3.88,3.88,0,0,1,77.66,12a3.33,3.33,0,0,1,1-1.11A4,4,0,0,1,80,10.27a6.75,6.75,0,0,1,1.66-.2,6.42,6.42,0,0,1,1.54.18,3.58,3.58,0,0,1,1.26.56,2.63,2.63,0,0,1,.84,1,3.74,3.74,0,0,1,.3,1.59v5.9q0,.73.26.93t1.06-.09v1l-.43.13a2,2,0,0,1-.55.08,2.51,2.51,0,0,1-.57-.06,1,1,0,0,1-.5-.2,1.22,1.22,0,0,1-.3-.38,1.55,1.55,0,0,1-.16-.48,3.49,3.49,0,0,1,0-.55A5.45,5.45,0,0,1,82.56,21a5.35,5.35,0,0,1-2.22.46A5,5,0,0,1,79,21.31a3.31,3.31,0,0,1-1.16-.59,2.91,2.91,0,0,1-.8-1,3,3,0,0,1-.29-1.37q0-2.76,3.79-3.26Zm2.11.63a6.15,6.15,0,0,1-1.61.44q-.82.1-1.63.17a4.6,4.6,0,0,0-2.25.65,1.86,1.86,0,0,0-.81,1.65,1.79,1.79,0,0,0,.2.87,1.83,1.83,0,0,0,.52.61,2.21,2.21,0,0,0,.75.36,3.33,3.33,0,0,0,.87.12,5.7,5.7,0,0,0,1.46-.19,4,4,0,0,0,1.27-.58,2.94,2.94,0,0,0,.89-1,2.84,2.84,0,0,0,.33-1.41Z"/><path class="cls-3" d="M89,21.21H87.79V6.14H89v6a3.88,3.88,0,0,1,1.66-1.52,5,5,0,0,1,2.21-.51,4.61,4.61,0,0,1,2.14.47,4.41,4.41,0,0,1,1.51,1.26,5.4,5.4,0,0,1,.89,1.83,8,8,0,0,1,.29,2.18A8.87,8.87,0,0,1,97.48,18a4.91,4.91,0,0,1-.87,1.81,4.17,4.17,0,0,1-1.52,1.2,5.17,5.17,0,0,1-2.24.44,4.09,4.09,0,0,1-1.07-.15,5,5,0,0,1-1.06-.42,4.23,4.23,0,0,1-.94-.68,3.39,3.39,0,0,1-.7-1h0Zm0-5.46a6.67,6.67,0,0,0,.24,1.83A4.45,4.45,0,0,0,90,19a3.3,3.3,0,0,0,1.15,1,3.37,3.37,0,0,0,1.57.36,3.73,3.73,0,0,0,1.46-.28,3.35,3.35,0,0,0,1.17-.83,3.86,3.86,0,0,0,.78-1.33,5.33,5.33,0,0,0,.28-1.81,7.11,7.11,0,0,0-.17-1.91,4.58,4.58,0,0,0-.67-1.56,3.32,3.32,0,0,0-1.18-1.06,3.52,3.52,0,0,0-1.68-.39,3.19,3.19,0,0,0-1.54.37,3.55,3.55,0,0,0-1.15,1A4.53,4.53,0,0,0,89.3,14,6,6,0,0,0,89,15.74Z"/><path class="cls-3" d="M103.48,21.5a5.65,5.65,0,0,1-2-.38,4.37,4.37,0,0,1-1.59-1.07,5.12,5.12,0,0,1-1.08-1.78,7.11,7.11,0,0,1-.4-2.49,7.65,7.65,0,0,1,.31-2.23,5.27,5.27,0,0,1,.94-1.81,4.48,4.48,0,0,1,1.57-1.22,5.64,5.64,0,0,1,4.42,0,4.53,4.53,0,0,1,1.57,1.21,5,5,0,0,1,.93,1.81,8,8,0,0,1,.3,2.24,7.25,7.25,0,0,1-.36,2.34,5.27,5.27,0,0,1-1,1.8,4.47,4.47,0,0,1-1.59,1.16A5.08,5.08,0,0,1,103.48,21.5Zm3.68-5.71A7.43,7.43,0,0,0,107,14a4.28,4.28,0,0,0-.65-1.45,3.12,3.12,0,0,0-1.13-1,3.67,3.67,0,0,0-1.69-.36,3.44,3.44,0,0,0-1.68.39,3.3,3.3,0,0,0-1.14,1,4.5,4.5,0,0,0-.65,1.46,6.91,6.91,0,0,0-.21,1.71,6.76,6.76,0,0,0,.24,1.85,4.33,4.33,0,0,0,.7,1.45,3.14,3.14,0,0,0,1.15.94,3.6,3.6,0,0,0,1.59.33,3.43,3.43,0,0,0,1.68-.39,3.26,3.26,0,0,0,1.14-1,4.65,4.65,0,0,0,.65-1.46A6.82,6.82,0,0,0,107.17,15.79Z"/><circle class="cls-3" cx="22.28" cy="13.97" r="1.35"/><path class="cls-3" d="M25,9.85a63.37,63.37,0,0,1-11.83,1.25A63.52,63.52,0,0,1,1.34,9.85L0,9.55V22.87l1.34-.29a63.39,63.39,0,0,1,11.83-1.25A63.52,63.52,0,0,1,25,22.58l1.34.29V9.55Zm.21,11.42s-2.09-.46-5.1-.82l-.85-1.74H20l-1.66-3.39L16.69,18.7h.74l-.7,1.42L15.31,20l-1-1.94h1l-2.18-4.46L11,18.1h1L11,20l-1.42.08-.7-1.42h.74L8,15.31,6.34,18.7h.74l-.85,1.74c-3,.37-5.1.82-5.1.82V11.16a63.94,63.94,0,0,0,12,1.27,63.94,63.94,0,0,0,12-1.27Z"/></g><g id="レイヤー_9" data-name="レイヤー 9"><rect class="cls-5" x="0.01" width="173.75" height="28"/></g></g></svg>