<?xml version="1.0" encoding="utf-8"?>
<!-- Generator: Adobe Illustrator 21.1.0, SVG Export Plug-In . SVG Version: 6.00 Build 0)  -->
<svg version="1.1" xmlns="http://www.w3.org/2000/svg" xmlns:xlink="http://www.w3.org/1999/xlink" x="0px" y="0px"
	 viewBox="0 0 422 257.3" style="enable-background:new 0 0 422 257.3;" xml:space="preserve">
<style type="text/css">
	.st0{fill-rule:evenodd;clip-rule:evenodd;fill:#FF9900;}
	.st1{stroke:#000000;stroke-width:0.15;}
	.st2{fill-rule:evenodd;clip-rule:evenodd;}
	.st3{display:none;}
	.st4{display:inline;}
	.st5{fill:#333333;}
	.st6{fill:#52AB4C;}
	.st7{fill:#0066FF;}
	.st8{fill:#FFFFFF;}
	.st9{fill:#FF0066;}
	.st10{fill:#675F58;}
	.st11{fill:#FF931E;}
	.st12{fill:#CCCCCC;}
	.st13{fill:#999999;}
	.st14{display:inline;fill:#CCCCCC;}
	.st15{font-family:'KozGoPr6N-Regular-83pv-RKSJ-H';}
	.st16{font-size:24px;}
	.st17{fill:none;}
</style>
<g id="レイヤー_4">
	<g>
		<polygon class="st0" points="349.7,162.7 346.2,161.4 346.2,156.4 349.7,157.5 		"/>
		<polygon class="st0" points="350.3,162.7 353.8,161.4 353.8,156.4 350.3,157.5 		"/>
		<polygon class="st0" points="346.6,156 350.1,155 353.3,156 350.1,157.1 		"/>
	</g>
	<g>
		<polygon class="st0" points="345.6,155.6 342.1,154.3 342.1,149.3 345.6,150.4 		"/>
		<polygon class="st0" points="346.2,155.6 349.7,154.3 349.7,149.3 346.2,150.4 		"/>
		<polygon class="st0" points="342.5,148.9 346,147.9 349.2,148.9 346,150.1 		"/>
	</g>
	<g>
		<polygon class="st0" points="353.6,155.6 350.2,154.3 350.2,149.3 353.6,150.4 		"/>
		<polygon class="st0" points="354.3,155.6 357.7,154.3 357.7,149.3 354.3,150.4 		"/>
		<polygon class="st0" points="350.5,148.9 354,147.9 357.3,148.9 354,150.1 		"/>
	</g>
	<g>
		<polygon class="st0" points="357.8,148.5 354.3,147.3 354.3,142.2 357.8,143.4 		"/>
		<polygon class="st0" points="358.4,148.5 361.9,147.3 361.9,142.2 358.4,143.4 		"/>
		<polygon class="st0" points="354.7,141.8 358.2,140.8 361.4,141.9 358.2,143 		"/>
	</g>
	<g>
		<polygon class="st0" points="365.8,148.5 362.4,147.3 362.4,142.2 365.8,143.4 		"/>
		<polygon class="st0" points="366.5,148.5 369.9,147.3 369.9,142.2 366.5,143.4 		"/>
		<polygon class="st0" points="362.7,141.8 366.2,140.8 369.5,141.9 366.2,143 		"/>
	</g>
	<g>
		<path class="st1" d="M364.1,159.4l-1.2,4h-0.5l-0.9-3l-0.8,3h-0.5l-1.2-4h0.6l0.9,3l0.8-3h0.5l0.9,3l0.9-3H364.1z"/>
		<path class="st1" d="M367.3,162.2l0.6,0.1c-0.1,0.3-0.3,0.6-0.6,0.9c-0.3,0.2-0.7,0.3-1.1,0.3c-0.6,0-1-0.2-1.3-0.6
			c-0.3-0.4-0.5-0.9-0.5-1.5c0-0.6,0.2-1.2,0.5-1.6c0.4-0.4,0.8-0.6,1.3-0.6c0.5,0,1,0.2,1.3,0.5c0.3,0.4,0.5,0.9,0.5,1.6H365
			c0,0.6,0.1,1,0.4,1.2c0.3,0.2,0.5,0.3,0.8,0.3C366.7,163,367.1,162.7,367.3,162.2z M367.3,161c0-0.2,0-0.4-0.1-0.6
			c-0.1-0.2-0.2-0.3-0.4-0.4c-0.2-0.1-0.4-0.2-0.6-0.2c-0.3,0-0.6,0.1-0.8,0.3c-0.2,0.2-0.3,0.5-0.4,0.9H367.3z"/>
		<path class="st1" d="M369.1,163.4h-0.3v-5.5h0.6v2.1c0.3-0.5,0.7-0.8,1.2-0.8c0.5,0,0.8,0.2,1.2,0.5c0.3,0.4,0.5,0.9,0.5,1.6
			c0,0.6-0.2,1.1-0.5,1.5c-0.3,0.4-0.7,0.6-1.2,0.6c-0.5,0-1-0.3-1.3-0.8L369.1,163.4z M369.4,161.8c0,0.4,0.2,0.7,0.4,0.9
			c0.2,0.2,0.5,0.3,0.7,0.3c0.3,0,0.6-0.1,0.8-0.4c0.2-0.3,0.3-0.7,0.3-1.1c0-0.5-0.1-0.9-0.3-1.2c-0.2-0.3-0.5-0.4-0.8-0.4
			c-0.3,0-0.5,0.1-0.7,0.3c-0.2,0.2-0.3,0.5-0.4,0.8V161.8z"/>
		<path class="st1" d="M373.8,162.4l0.6-0.1c0.1,0.5,0.6,0.8,1.3,0.8c0.3,0,0.5-0.1,0.7-0.2c0.2-0.1,0.3-0.3,0.3-0.5
			c0-0.3-0.2-0.5-0.7-0.6l-0.9-0.2c-0.3-0.1-0.6-0.2-0.8-0.4c-0.2-0.2-0.3-0.4-0.3-0.7c0-0.3,0.1-0.6,0.4-0.8
			c0.3-0.2,0.6-0.3,1.1-0.3c0.9,0,1.4,0.3,1.6,1l-0.6,0.1c-0.2-0.4-0.5-0.6-1-0.6c-0.3,0-0.5,0.1-0.6,0.2c-0.2,0.1-0.2,0.3-0.2,0.4
			c0,0.3,0.2,0.5,0.6,0.6l0.8,0.1c0.8,0.1,1.2,0.5,1.2,1.2c0,0.4-0.2,0.7-0.5,0.9c-0.3,0.2-0.7,0.3-1.2,0.3
			C374.6,163.5,374,163.1,373.8,162.4z"/>
		<path class="st1" d="M380.6,162.2l0.6,0.1c-0.1,0.3-0.3,0.6-0.6,0.9c-0.3,0.2-0.7,0.3-1.1,0.3c-0.6,0-1-0.2-1.3-0.6
			c-0.3-0.4-0.5-0.9-0.5-1.5c0-0.6,0.2-1.2,0.5-1.6c0.4-0.4,0.8-0.6,1.3-0.6c0.5,0,1,0.2,1.3,0.5c0.3,0.4,0.5,0.9,0.5,1.6h-2.9
			c0,0.6,0.1,1,0.4,1.2c0.3,0.2,0.5,0.3,0.8,0.3C380.1,163,380.4,162.7,380.6,162.2z M380.6,161c0-0.2,0-0.4-0.1-0.6
			c-0.1-0.2-0.2-0.3-0.4-0.4c-0.2-0.1-0.4-0.2-0.6-0.2c-0.3,0-0.6,0.1-0.8,0.3c-0.2,0.2-0.3,0.5-0.4,0.9H380.6z"/>
		<path class="st1" d="M382.6,163.4H382v-4h0.6v0.9c0.2-0.4,0.4-0.7,0.6-0.9c0.2-0.1,0.4-0.2,0.6-0.2c0.1,0,0.1,0,0.2,0v0.6h-0.1
			c-0.3,0-0.6,0.1-0.9,0.4c-0.2,0.3-0.4,0.6-0.4,1V163.4z"/>
		<path class="st1" d="M387.8,159.4l-1.4,4h-0.7l-1.4-4h0.7l1.1,3.3l1.1-3.3H387.8z"/>
		<path class="st1" d="M389,157.9v0.7h-0.7v-0.7H389z M389,159.4v4h-0.6v-4H389z"/>
		<path class="st1" d="M392.3,162l0.6,0.1c-0.1,0.4-0.3,0.8-0.5,1c-0.3,0.3-0.6,0.4-1,0.4c-0.6,0-1-0.2-1.3-0.6
			c-0.3-0.4-0.4-0.9-0.4-1.5c0-0.6,0.2-1.1,0.5-1.5c0.3-0.4,0.7-0.6,1.3-0.6c0.4,0,0.8,0.1,1.1,0.4c0.3,0.3,0.4,0.6,0.5,1l-0.6,0.1
			c-0.1-0.7-0.4-1-1-1c-0.3,0-0.6,0.1-0.8,0.4c-0.2,0.3-0.3,0.7-0.3,1.1c0,0.5,0.1,0.9,0.3,1.2c0.2,0.3,0.4,0.4,0.8,0.4
			C391.8,163,392.2,162.7,392.3,162z"/>
		<path class="st1" d="M396.4,162.2l0.6,0.1c-0.1,0.3-0.3,0.6-0.6,0.9c-0.3,0.2-0.7,0.3-1.1,0.3c-0.6,0-1-0.2-1.3-0.6
			c-0.3-0.4-0.5-0.9-0.5-1.5c0-0.6,0.2-1.2,0.5-1.6c0.4-0.4,0.8-0.6,1.3-0.6c0.5,0,1,0.2,1.3,0.5c0.3,0.4,0.5,0.9,0.5,1.6h-2.9
			c0,0.6,0.1,1,0.4,1.2c0.3,0.2,0.5,0.3,0.8,0.3C395.8,163,396.2,162.7,396.4,162.2z M396.4,161c0-0.2,0-0.4-0.1-0.6
			c-0.1-0.2-0.2-0.3-0.4-0.4c-0.2-0.1-0.4-0.2-0.6-0.2c-0.3,0-0.6,0.1-0.8,0.3c-0.2,0.2-0.3,0.5-0.4,0.9H396.4z"/>
		<path class="st1" d="M397.4,162.4l0.6-0.1c0.1,0.5,0.6,0.8,1.3,0.8c0.3,0,0.5-0.1,0.7-0.2c0.2-0.1,0.3-0.3,0.3-0.5
			c0-0.3-0.2-0.5-0.7-0.6l-0.9-0.2c-0.3-0.1-0.6-0.2-0.8-0.4c-0.2-0.2-0.3-0.4-0.3-0.7c0-0.3,0.1-0.6,0.4-0.8
			c0.3-0.2,0.6-0.3,1.1-0.3c0.9,0,1.4,0.3,1.6,1l-0.6,0.1c-0.2-0.4-0.5-0.6-1-0.6c-0.3,0-0.5,0.1-0.6,0.2c-0.2,0.1-0.2,0.3-0.2,0.4
			c0,0.3,0.2,0.5,0.6,0.6l0.8,0.1c0.8,0.1,1.2,0.5,1.2,1.2c0,0.4-0.2,0.7-0.5,0.9c-0.3,0.2-0.7,0.3-1.2,0.3
			C398.2,163.5,397.6,163.1,397.4,162.4z"/>
	</g>
	<g>
		<g>
			<path class="st2" d="M383.2,150.7v-1c0-0.1,0.1-0.2,0.2-0.2l4.3,0c0.1,0,0.3,0.1,0.3,0.2l0,0.8c0,0.1-0.1,0.3-0.3,0.6l-2.3,3.2
				c0.8,0,1.7,0.1,2.5,0.5c0.2,0.1,0.2,0.2,0.2,0.4v1c0,0.1-0.2,0.3-0.3,0.2c-1.3-0.7-3.1-0.8-4.6,0c-0.2,0.1-0.3-0.1-0.3-0.2v-1
				c0-0.2,0-0.4,0.2-0.7l2.6-3.7l-2.3,0C383.3,151,383.2,150.9,383.2,150.7z"/>
			<path class="st2" d="M367.7,156.8h-1.3c-0.1,0-0.2-0.1-0.2-0.2l0-6.8c0-0.1,0.1-0.2,0.3-0.2l1.2,0c0.1,0,0.2,0.1,0.2,0.2v0.9h0
				c0.3-0.9,0.9-1.3,1.7-1.3c0.8,0,1.3,0.4,1.7,1.3c0.3-0.9,1-1.3,1.8-1.3c0.6,0,1.2,0.2,1.5,0.7c0.4,0.6,0.3,1.4,0.3,2.1l0,4.3
				c0,0.1-0.1,0.2-0.3,0.2h-1.3c-0.1,0-0.2-0.1-0.2-0.2l0-3.6c0-0.3,0-1,0-1.3c-0.1-0.5-0.4-0.6-0.8-0.6c-0.3,0-0.7,0.2-0.8,0.6
				c-0.1,0.3-0.1,0.9-0.1,1.3v3.6c0,0.1-0.1,0.2-0.3,0.2h-1.3c-0.1,0-0.2-0.1-0.2-0.2l0-3.6c0-0.8,0.1-1.9-0.8-1.9
				c-1,0-0.9,1.1-0.9,1.9l0,3.6C367.9,156.7,367.8,156.8,367.7,156.8z"/>
			<path class="st2" d="M391.3,149.4c1.9,0,3,1.7,3,3.8c0,2.1-1.2,3.7-3,3.7c-1.9,0-3-1.7-3-3.8C388.3,151,389.4,149.4,391.3,149.4z
				 M391.3,150.9c-1,0-1,1.3-1,2.2s0,2.4,1,2.4c1,0,1.1-1.3,1.1-2.1c0-0.6,0-1.3-0.2-1.8C392,151.1,391.7,150.9,391.3,150.9z"/>
			<path class="st2" d="M397.1,156.8h-1.3c-0.1,0-0.2-0.1-0.2-0.2l0-6.8c0-0.1,0.1-0.2,0.3-0.2l1.2,0c0.1,0,0.2,0.1,0.2,0.2v1h0
				c0.4-0.9,0.9-1.4,1.8-1.4c0.6,0,1.2,0.2,1.5,0.8c0.3,0.5,0.3,1.5,0.3,2.1v4.3c0,0.1-0.1,0.2-0.3,0.2h-1.3c-0.1,0-0.2-0.1-0.2-0.2
				v-3.7c0-0.7,0.1-1.8-0.8-1.8c-0.3,0-0.6,0.2-0.8,0.5c-0.2,0.4-0.2,0.8-0.2,1.3v3.7C397.3,156.7,397.2,156.8,397.1,156.8z"/>
			<path class="st2" d="M379.9,153.5c0,0.5,0,0.9-0.2,1.4c-0.2,0.4-0.5,0.6-0.9,0.6c-0.5,0-0.8-0.4-0.8-1c0-1.1,1-1.3,2-1.3V153.5z
				 M381.3,156.8c-0.1,0.1-0.2,0.1-0.3,0c-0.4-0.4-0.5-0.5-0.8-0.9c-0.7,0.7-1.2,1-2.2,1c-1.1,0-2-0.7-2-2.1c0-1.1,0.6-1.8,1.4-2.2
				c0.7-0.3,1.7-0.4,2.5-0.5V152c0-0.3,0-0.7-0.2-1c-0.2-0.2-0.5-0.3-0.7-0.3c-0.5,0-1,0.3-1.1,0.8c0,0.1-0.1,0.2-0.2,0.2l-1.3-0.1
				c-0.1,0-0.2-0.1-0.2-0.3c0.3-1.6,1.7-2,3-2c0.6,0,1.5,0.2,2,0.7c0.6,0.6,0.6,1.4,0.6,2.3v2.1c0,0.6,0.3,0.9,0.5,1.2
				c0.1,0.1,0.1,0.3,0,0.4C382,156.1,381.5,156.5,381.3,156.8L381.3,156.8z"/>
			<path class="st2" d="M362.7,153.5c0,0.5,0,0.9-0.2,1.4c-0.2,0.4-0.5,0.6-0.9,0.6c-0.5,0-0.8-0.4-0.8-1c0-1.1,1-1.3,2-1.3V153.5z
				 M364.1,156.8c-0.1,0.1-0.2,0.1-0.3,0c-0.4-0.4-0.5-0.5-0.8-0.9c-0.7,0.7-1.2,1-2.2,1c-1.1,0-2-0.7-2-2.1c0-1.1,0.6-1.8,1.4-2.2
				c0.7-0.3,1.7-0.4,2.5-0.5V152c0-0.3,0-0.7-0.2-1c-0.2-0.2-0.5-0.3-0.7-0.3c-0.5,0-1,0.3-1.1,0.8c0,0.1-0.1,0.2-0.2,0.2l-1.3-0.1
				c-0.1,0-0.2-0.1-0.2-0.3c0.3-1.6,1.7-2,3-2c0.6,0,1.5,0.2,2,0.7c0.6,0.6,0.6,1.4,0.6,2.3v2.1c0,0.6,0.3,0.9,0.5,1.2
				c0.1,0.1,0.1,0.3,0,0.4C364.8,156.1,364.3,156.5,364.1,156.8L364.1,156.8z"/>
		</g>
	</g>
</g>
<g id="レイヤー_8" class="st3">
	<rect x="185.4" y="124" class="st4" width="69.6" height="20.8"/>
</g>
<g id="webservices">
	<g>
		<g>
			<circle class="st5" cx="310.4" cy="33.1" r="6.1"/>
			<path class="st5" d="M325.9,12.9c-0.3,0.1-28.9,5.3-59.2,5.3c-30.2,0-58.9-5.2-59.2-5.3l-6.7-1.2v56.5l6.7-1.2
				c0.3-0.1,28.9-5.3,59.2-5.3c30.2,0,58.9,5.2,59.2,5.3l6.7,1.2V11.7L325.9,12.9z M327,61.3c0,0-10.4-1.9-25.5-3.5l-4.3-7.4h3.7
				l-8.3-14.4l-8.3,14.4h3.7l-3.5,6c-2.3-0.1-4.7-0.2-7.1-0.3l-4.8-8.2h5L266.7,29l-10.9,18.9h5l-4.8,8.2c-2.4,0.1-4.8,0.2-7.1,0.3
				l-3.5-6h3.7l-8.3-14.4l-8.3,14.4h3.7l-4.3,7.4c-15.1,1.5-25.5,3.5-25.5,3.5V18.5c0,0,29.1,5.4,60.2,5.4s60.2-5.4,60.2-5.4V61.3z"
				/>
		</g>
	</g>
	<g>
		<path class="st6" d="M220.6,72c1.3,1.4,2,3.5,2,6.3c0,2.9-0.7,5.1-2,6.6c-1.3,1.5-3,2.3-5.1,2.3c-1.3,0-2.4-0.3-3.3-1
			c-0.5-0.4-0.9-0.9-1.4-1.6v8.6h-4.3v-23h4.1v2.4c0.5-0.7,1-1.3,1.5-1.7c1-0.7,2.1-1.1,3.4-1.1C217.6,69.8,219.3,70.6,220.6,72z
			 M217.3,75.1c-0.6-1-1.5-1.5-2.9-1.5c-1.6,0-2.7,0.7-3.3,2.2c-0.3,0.8-0.5,1.8-0.5,3c0,1.9,0.5,3.3,1.5,4c0.6,0.5,1.3,0.7,2.2,0.7
			c1.2,0,2.1-0.5,2.8-1.4c0.6-0.9,1-2.2,1-3.7C218.2,77.2,217.9,76.1,217.3,75.1z"/>
		<path class="st6" d="M230.6,76.7c0.8-0.1,1.4-0.2,1.7-0.4c0.6-0.3,0.9-0.7,0.9-1.2c0-0.7-0.2-1.1-0.7-1.4
			c-0.5-0.3-1.2-0.4-2.1-0.4c-1,0-1.8,0.3-2.2,0.8c-0.3,0.4-0.5,0.9-0.6,1.5h-4.2c0.1-1.4,0.5-2.6,1.2-3.6c1.1-1.5,3.1-2.2,5.9-2.2
			c1.8,0,3.4,0.4,4.8,1.1c1.4,0.7,2.1,2.1,2.1,4.1v7.6c0,0.5,0,1.2,0,1.9c0,0.6,0.1,0.9,0.3,1.2c0.1,0.2,0.4,0.4,0.6,0.5v0.6h-4.7
			c-0.1-0.3-0.2-0.6-0.3-0.9c-0.1-0.3-0.1-0.6-0.1-1c-0.6,0.6-1.3,1.2-2.1,1.6c-0.9,0.5-2,0.8-3.2,0.8c-1.5,0-2.7-0.4-3.7-1.3
			c-1-0.9-1.5-2.1-1.5-3.6c0-2,0.8-3.5,2.4-4.4c0.9-0.5,2.1-0.8,3.8-1.1L230.6,76.7z M233.3,78.7c-0.3,0.2-0.6,0.3-0.8,0.4
			c-0.3,0.1-0.7,0.2-1.2,0.3l-1,0.2c-0.9,0.2-1.6,0.4-2,0.6c-0.7,0.4-1,1-1,1.8c0,0.7,0.2,1.3,0.6,1.6c0.4,0.3,0.9,0.5,1.5,0.5
			c0.9,0,1.8-0.3,2.6-0.8c0.8-0.5,1.2-1.5,1.2-3V78.7z"/>
		<path class="st6" d="M253,71.2c1.1,0.9,1.6,2.4,1.6,4.4v11.1h-4.4v-10c0-0.9-0.1-1.5-0.3-2c-0.4-0.8-1.2-1.3-2.4-1.3
			c-1.5,0-2.4,0.6-3,1.9c-0.3,0.7-0.4,1.5-0.4,2.5v8.9h-4.3V70.2h4.2v2.4c0.6-0.8,1.1-1.5,1.6-1.8c0.9-0.7,2-1,3.4-1
			C250.6,69.8,252,70.3,253,71.2z"/>
		<path class="st6" d="M270.9,84.7c-1.4,1.7-3.5,2.6-6.3,2.6c-2.8,0-4.9-0.9-6.3-2.6c-1.4-1.7-2.1-3.8-2.1-6.2
			c0-2.4,0.7-4.4,2.1-6.2c1.4-1.7,3.5-2.6,6.3-2.6c2.8,0,5,0.9,6.3,2.6c1.4,1.7,2.1,3.8,2.1,6.2C272.9,80.9,272.2,83,270.9,84.7z
			 M267.4,82.3c0.7-0.9,1-2.2,1-3.8c0-1.7-0.3-2.9-1-3.8c-0.7-0.9-1.6-1.3-2.9-1.3c-1.3,0-2.2,0.4-2.9,1.3c-0.7,0.9-1,2.2-1,3.8
			c0,1.7,0.3,2.9,1,3.8c0.7,0.9,1.7,1.3,2.9,1.3C265.8,83.7,266.7,83.2,267.4,82.3z"/>
		<path class="st5" d="M274.9,86.7V64.4h1.9v22.3H274.9z"/>
		<path class="st5" d="M287.3,77.3c0.4,0,0.8-0.1,1.3-0.2c0.5-0.1,0.9-0.2,1.2-0.3c0.3-0.1,0.5-0.4,0.6-0.7c0.1-0.3,0.1-0.7,0.1-0.9
			c0-1-0.3-1.7-0.9-2.3c-0.6-0.6-1.6-0.9-3.1-0.9c-0.6,0-1.2,0.1-1.8,0.2c-0.5,0.1-1,0.3-1.4,0.6c-0.4,0.3-0.7,0.7-1,1.1
			c-0.3,0.5-0.4,1-0.5,1.8h-1.9c0.1-1,0.3-1.8,0.7-2.4c0.4-0.7,0.9-1.2,1.4-1.6c0.6-0.4,1.3-0.7,2-0.9c0.8-0.2,1.6-0.3,2.5-0.3
			c0.8,0,1.6,0.1,2.3,0.3c0.7,0.2,1.3,0.5,1.9,0.8c0.5,0.4,0.9,0.9,1.2,1.5c0.3,0.6,0.4,1.4,0.4,2.4V84c0,0.7,0.1,1.2,0.4,1.4
			c0.3,0.2,0.8,0.1,1.6-0.1v1.5c-0.1,0-0.4,0.1-0.6,0.2c-0.3,0.1-0.6,0.1-0.8,0.1c-0.3,0-0.6,0-0.8-0.1c-0.3,0-0.6-0.1-0.7-0.3
			c-0.2-0.2-0.3-0.3-0.4-0.6c-0.1-0.2-0.2-0.5-0.2-0.7c0-0.3-0.1-0.5-0.1-0.8c-0.8,0.9-1.7,1.5-2.7,2c-1,0.5-2.1,0.7-3.3,0.7
			c-0.7,0-1.4-0.1-2-0.3c-0.7-0.2-1.2-0.5-1.7-0.9c-0.5-0.4-0.9-0.9-1.2-1.4c-0.3-0.6-0.4-1.2-0.4-2c0-2.7,1.9-4.3,5.6-4.8
			L287.3,77.3z M290.5,78.3c-0.8,0.3-1.6,0.5-2.4,0.7c-0.8,0.1-1.6,0.2-2.4,0.2c-1.4,0.1-2.5,0.4-3.3,1c-0.8,0.5-1.2,1.4-1.2,2.4
			c0,0.5,0.1,0.9,0.3,1.3c0.2,0.4,0.5,0.7,0.8,0.9c0.3,0.2,0.7,0.4,1.1,0.5c0.4,0.1,0.9,0.2,1.3,0.2c0.7,0,1.5-0.1,2.2-0.3
			c0.7-0.2,1.3-0.5,1.9-0.9c0.5-0.4,1-0.9,1.3-1.5c0.3-0.6,0.5-1.3,0.5-2.1V78.3z"/>
		<path class="st5" d="M297.7,86.7h-1.9V64.4h1.9v8.8c0.6-1,1.4-1.7,2.5-2.2c1-0.5,2.1-0.8,3.3-0.8c1.2,0,2.3,0.2,3.2,0.7
			c0.9,0.5,1.6,1.1,2.2,1.9c0.6,0.8,1,1.7,1.3,2.7c0.3,1,0.4,2.1,0.4,3.2c0,1.2-0.1,2.3-0.4,3.3c-0.3,1-0.7,1.9-1.3,2.7
			c-0.6,0.8-1.3,1.3-2.2,1.8c-0.9,0.4-2,0.7-3.3,0.7c-0.5,0-1-0.1-1.6-0.2c-0.5-0.1-1.1-0.4-1.6-0.6c-0.5-0.3-1-0.6-1.4-1
			c-0.4-0.4-0.8-0.9-1-1.4h-0.1V86.7z M297.7,78.6c0,1,0.1,1.9,0.4,2.7c0.2,0.8,0.6,1.6,1,2.2c0.5,0.6,1,1.1,1.7,1.4
			c0.7,0.4,1.5,0.5,2.3,0.5c0.8,0,1.5-0.1,2.2-0.4c0.7-0.3,1.2-0.7,1.7-1.2c0.5-0.5,0.9-1.2,1.2-2c0.3-0.8,0.4-1.7,0.4-2.7
			c0-1,0-2-0.2-2.8c-0.2-0.9-0.5-1.6-1-2.3c-0.5-0.7-1-1.2-1.8-1.6c-0.7-0.4-1.5-0.6-2.5-0.6c-0.8,0-1.6,0.2-2.3,0.5
			c-0.7,0.4-1.2,0.8-1.7,1.5c-0.5,0.6-0.8,1.3-1.1,2.1C297.8,76.8,297.7,77.7,297.7,78.6z"/>
		<path class="st5" d="M319.4,87.1c-1,0-2-0.2-2.9-0.6c-0.9-0.4-1.7-0.9-2.4-1.6c-0.7-0.7-1.2-1.6-1.6-2.6c-0.4-1.1-0.6-2.3-0.6-3.7
			c0-1.2,0.2-2.3,0.5-3.3c0.3-1,0.8-1.9,1.4-2.7c0.6-0.8,1.4-1.4,2.3-1.8c0.9-0.4,2-0.7,3.3-0.7c1.3,0,2.4,0.2,3.3,0.7
			c0.9,0.4,1.7,1,2.3,1.8c0.6,0.8,1.1,1.6,1.4,2.7c0.3,1,0.4,2.1,0.4,3.3c0,1.3-0.2,2.4-0.5,3.5c-0.4,1-0.9,1.9-1.5,2.7
			c-0.7,0.7-1.4,1.3-2.4,1.7C321.5,86.9,320.5,87.1,319.4,87.1z M324.8,78.7c0-1-0.1-1.8-0.3-2.7c-0.2-0.8-0.5-1.5-1-2.2
			c-0.4-0.6-1-1.1-1.7-1.4c-0.7-0.4-1.5-0.5-2.5-0.5c-1,0-1.8,0.2-2.5,0.6c-0.7,0.4-1.3,0.9-1.7,1.5c-0.4,0.6-0.8,1.4-1,2.2
			c-0.2,0.8-0.3,1.7-0.3,2.5c0,1,0.1,1.9,0.4,2.7c0.2,0.8,0.6,1.6,1,2.2c0.5,0.6,1,1.1,1.7,1.4c0.7,0.3,1.5,0.5,2.4,0.5
			c1,0,1.8-0.2,2.5-0.6c0.7-0.4,1.3-0.9,1.7-1.5c0.4-0.6,0.8-1.4,1-2.2C324.7,80.4,324.8,79.5,324.8,78.7z"/>
	</g>
	<g>
		<path class="st5" d="M329.7,82c1.5,0,2.6,1.1,2.6,2.5c0,1.4-1.1,2.6-2.6,2.6c-1.5,0-2.6-1.1-2.6-2.6C327.1,83.1,328.3,82,329.7,82
			z M329.7,86.7c1.1,0,2-0.9,2-2.1c0-1.1-0.9-2.1-2-2.1c-1.1,0-2,0.9-2,2.1C327.7,85.8,328.7,86.7,329.7,86.7z M328.7,85.9v-2.6
			c0.2,0,0.5-0.1,1-0.1c0.5,0,1.1,0.1,1.1,0.8c0,0.3-0.2,0.5-0.5,0.6v0c0.3,0.1,0.4,0.3,0.4,0.6c0.1,0.4,0.1,0.5,0.2,0.6h-0.6
			c-0.1-0.1-0.1-0.3-0.2-0.6c-0.1-0.4-0.3-0.4-0.9-0.4v1.1H328.7z M329.3,84.5c0.4,0,0.9,0,0.9-0.4c0-0.2-0.2-0.4-0.6-0.4
			c-0.2,0-0.3,0-0.3,0V84.5z"/>
	</g>
	<g>
		<g>
			<path class="st5" d="M237.8,92.9h1.5l-2.1,6.4h-1.3l-1.6-4.8l-1.6,4.8h-1.3l-2.1-6.4h1.5l1.3,4.8l1.5-4.7h1.3l1.6,4.7L237.8,92.9
				z"/>
			<path class="st5" d="M243.9,98.4c0.6,0,1.4-0.1,1.9-0.4l0.2,1.1c-0.4,0.2-1.2,0.4-2.2,0.4c-2.3,0-3.2-1.4-3.2-3.3
				c0-2,1-3.5,3-3.5c1.8,0,2.5,1.2,2.5,2.9v0.8h-4.2C241.9,97.7,242.6,98.4,243.9,98.4L243.9,98.4z M243.4,93.7
				c-0.9,0-1.5,0.8-1.6,1.7h3C244.8,94.4,244.5,93.7,243.4,93.7L243.4,93.7z"/>
			<path class="st5" d="M248,99.3v-8.7l1.3-0.2v3.3c0.3-0.4,0.9-0.9,1.9-0.9c1.7,0,2.5,1.2,2.5,3.2c0,1.9-0.7,3.5-2.7,3.5
				c-0.7,0-1.5-0.4-1.8-0.7l-0.2,0.6H248z M249.3,96.6c0,0.4,0,0.7,0.1,1c0.3,0.4,0.8,0.8,1.5,0.8c1.2,0,1.6-1,1.6-2.4
				c0-1.2-0.4-2.1-1.4-2.1c-0.9,0-1.5,0.6-1.7,1c0,0.2-0.1,0.6-0.1,0.9V96.6z"/>
			<path class="st5" d="M262.4,94.1c-0.4-0.2-0.9-0.3-1.4-0.3c-0.4,0-0.9,0.1-0.9,0.7c0,0.4,0.3,0.6,1.1,1c0.9,0.4,1.7,0.9,1.7,2
				c0,1.5-1.1,2-2.1,2c-0.7,0-1.6-0.2-2.2-0.4l0.3-1.1c0.5,0.2,1.3,0.4,1.8,0.4c0.5,0,0.9-0.2,0.9-0.8c0-0.5-0.5-0.8-1.3-1.2
				c-0.9-0.4-1.5-0.8-1.5-1.8c0-1.5,1.3-1.8,2.2-1.8c0.6,0,1.3,0.1,1.7,0.3L262.4,94.1z"/>
			<path class="st5" d="M267.7,98.4c0.6,0,1.4-0.1,1.9-0.4l0.2,1.1c-0.4,0.2-1.2,0.4-2.2,0.4c-2.3,0-3.2-1.4-3.2-3.3
				c0-2,1-3.5,3-3.5c1.8,0,2.5,1.2,2.5,2.9v0.8h-4.2C265.7,97.7,266.5,98.4,267.7,98.4L267.7,98.4z M267.3,93.7
				c-0.9,0-1.5,0.8-1.6,1.7h3C268.7,94.4,268.3,93.7,267.3,93.7L267.3,93.7z"/>
			<path class="st5" d="M275.2,92.8l-0.1,1.2c-0.7,0-1.6,0.3-1.9,0.9v4.4h-1.3v-4.8c0-0.6,0-1.2-0.2-1.6l1.2-0.2
				c0.1,0.2,0.2,0.7,0.2,1C273.5,93.2,274.3,92.8,275.2,92.8z"/>
			<path class="st5" d="M280.5,92.9h1.4l-2.4,6.4h-1.2l-2.4-6.4h1.4l1.7,4.8L280.5,92.9z"/>
			<path class="st5" d="M284.8,92h-1.4v-1.2h1.4V92z M284.8,99.3h-1.3v-6.4h1.3V99.3z"/>
			<path class="st5" d="M286.7,96.2c0-1.8,0.7-3.4,3.2-3.4c0.6,0,1.2,0.1,1.5,0.2l-0.2,1.1c-0.4-0.1-0.9-0.2-1.2-0.2
				c-1.3,0-1.9,1-1.9,2.3c0,1.3,0.6,2.2,1.9,2.2c0.4,0,0.9-0.1,1.3-0.2l0.2,1.1c-0.3,0.1-0.9,0.2-1.5,0.2
				C287.4,99.5,286.7,97.9,286.7,96.2L286.7,96.2z"/>
			<path class="st5" d="M296.1,98.4c0.6,0,1.4-0.1,1.9-0.4l0.2,1.1c-0.4,0.2-1.2,0.4-2.2,0.4c-2.3,0-3.2-1.4-3.2-3.3
				c0-2,1-3.5,3-3.5c1.8,0,2.5,1.2,2.5,2.9v0.8h-4.2C294.1,97.7,294.9,98.4,296.1,98.4L296.1,98.4z M295.7,93.7
				c-0.9,0-1.5,0.8-1.6,1.7h3C297.1,94.4,296.7,93.7,295.7,93.7L295.7,93.7z"/>
			<path class="st5" d="M303.7,94.1c-0.4-0.2-0.9-0.3-1.4-0.3c-0.4,0-0.9,0.1-0.9,0.7c0,0.4,0.3,0.6,1.1,1c0.9,0.4,1.7,0.9,1.7,2
				c0,1.5-1.1,2-2.1,2c-0.7,0-1.6-0.2-2.2-0.4l0.3-1.1c0.5,0.2,1.3,0.4,1.8,0.4c0.5,0,0.9-0.2,0.9-0.8c0-0.5-0.5-0.8-1.3-1.2
				c-0.9-0.4-1.5-0.8-1.5-1.8c0-1.5,1.3-1.8,2.2-1.8c0.6,0,1.3,0.1,1.7,0.3L303.7,94.1z"/>
		</g>
	</g>
</g>
<g id="ロゴ縦のコピー">
	<g>
		<g>
			<circle class="st5" cx="169.8" cy="33.1" r="6.1"/>
			<path class="st5" d="M185.3,12.9c-0.3,0.1-28.9,5.3-59.2,5.3c-30.2,0-58.9-5.2-59.2-5.3l-6.7-1.2v56.5l6.7-1.2
				c0.3-0.1,28.9-5.3,59.2-5.3c30.2,0,58.9,5.2,59.2,5.3l6.7,1.2V11.7L185.3,12.9z M186.3,61.3c0,0-10.4-1.9-25.5-3.5l-4.3-7.4h3.7
				L152,36.1l-8.3,14.4h3.7l-3.5,6c-2.3-0.1-4.7-0.2-7.1-0.3l-4.8-8.2h5L126.1,29l-10.9,18.9h5l-4.8,8.2c-2.4,0.1-4.8,0.2-7.1,0.3
				l-3.5-6h3.7l-8.3-14.4l-8.3,14.4h3.7l-4.3,7.4c-15.1,1.5-25.5,3.5-25.5,3.5V18.5c0,0,29.1,5.4,60.2,5.4s60.3-5.4,60.3-5.4V61.3z"
				/>
		</g>
	</g>
	<g>
		<path class="st6" d="M80,72c1.3,1.4,2,3.5,2,6.3c0,2.9-0.7,5.1-2,6.6c-1.3,1.5-3,2.3-5.1,2.3c-1.3,0-2.4-0.3-3.3-1
			c-0.5-0.4-0.9-0.9-1.4-1.6v8.6H66v-23h4.1v2.4c0.5-0.7,1-1.3,1.5-1.7c1-0.7,2.1-1.1,3.4-1.1C77,69.8,78.6,70.6,80,72z M76.7,75.1
			c-0.6-1-1.5-1.5-2.9-1.5c-1.6,0-2.7,0.7-3.3,2.2c-0.3,0.8-0.5,1.8-0.5,3c0,1.9,0.5,3.3,1.5,4c0.6,0.5,1.3,0.7,2.2,0.7
			c1.2,0,2.1-0.5,2.8-1.4c0.6-0.9,1-2.2,1-3.7C77.6,77.2,77.3,76.1,76.7,75.1z"/>
		<path class="st6" d="M90,76.7c0.8-0.1,1.4-0.2,1.7-0.4c0.6-0.3,0.9-0.7,0.9-1.2c0-0.7-0.2-1.1-0.7-1.4c-0.5-0.3-1.2-0.4-2.1-0.4
			c-1,0-1.8,0.3-2.2,0.8c-0.3,0.4-0.5,0.9-0.6,1.5h-4.2c0.1-1.4,0.5-2.6,1.2-3.6c1.1-1.5,3.1-2.2,5.9-2.2c1.8,0,3.4,0.4,4.8,1.1
			c1.4,0.7,2.1,2.1,2.1,4.1v7.6c0,0.5,0,1.2,0,1.9c0,0.6,0.1,0.9,0.3,1.2c0.1,0.2,0.4,0.4,0.6,0.5v0.6h-4.7
			c-0.1-0.3-0.2-0.6-0.3-0.9c-0.1-0.3-0.1-0.6-0.1-1c-0.6,0.6-1.3,1.2-2.1,1.6c-0.9,0.5-2,0.8-3.2,0.8c-1.5,0-2.7-0.4-3.7-1.3
			c-1-0.9-1.5-2.1-1.5-3.6c0-2,0.8-3.5,2.4-4.4c0.9-0.5,2.1-0.8,3.8-1.1L90,76.7z M92.6,78.7c-0.3,0.2-0.6,0.3-0.8,0.4
			c-0.3,0.1-0.7,0.2-1.2,0.3l-1,0.2c-0.9,0.2-1.6,0.4-2,0.6c-0.7,0.4-1,1-1,1.8c0,0.7,0.2,1.3,0.6,1.6c0.4,0.3,0.9,0.5,1.5,0.5
			c0.9,0,1.8-0.3,2.6-0.8c0.8-0.5,1.2-1.5,1.2-3V78.7z"/>
		<path class="st6" d="M112.4,71.2c1.1,0.9,1.6,2.4,1.6,4.4v11.1h-4.4v-10c0-0.9-0.1-1.5-0.3-2c-0.4-0.8-1.2-1.3-2.4-1.3
			c-1.5,0-2.4,0.6-3,1.9c-0.3,0.7-0.4,1.5-0.4,2.5v8.9h-4.3V70.2h4.2v2.4c0.6-0.8,1.1-1.5,1.6-1.8c0.9-0.7,2-1,3.4-1
			C110,69.8,111.4,70.3,112.4,71.2z"/>
		<path class="st6" d="M130.2,84.7c-1.4,1.7-3.5,2.6-6.3,2.6c-2.8,0-4.9-0.9-6.3-2.6c-1.4-1.7-2.1-3.8-2.1-6.2
			c0-2.4,0.7-4.4,2.1-6.2c1.4-1.7,3.5-2.6,6.3-2.6c2.8,0,5,0.9,6.3,2.6c1.4,1.7,2.1,3.8,2.1,6.2C132.3,80.9,131.6,83,130.2,84.7z
			 M126.8,82.3c0.7-0.9,1-2.2,1-3.8c0-1.7-0.3-2.9-1-3.8c-0.7-0.9-1.6-1.3-2.9-1.3c-1.3,0-2.2,0.4-2.9,1.3c-0.7,0.9-1,2.2-1,3.8
			c0,1.7,0.3,2.9,1,3.8c0.7,0.9,1.7,1.3,2.9,1.3C125.1,83.7,126.1,83.2,126.8,82.3z"/>
		<path class="st5" d="M134.3,86.7V64.4h1.9v22.3H134.3z"/>
		<path class="st5" d="M146.7,77.3c0.4,0,0.8-0.1,1.3-0.2c0.5-0.1,0.9-0.2,1.2-0.3c0.3-0.1,0.5-0.4,0.6-0.7c0.1-0.3,0.1-0.7,0.1-0.9
			c0-1-0.3-1.7-0.9-2.3c-0.6-0.6-1.6-0.9-3.1-0.9c-0.6,0-1.2,0.1-1.8,0.2c-0.5,0.1-1,0.3-1.4,0.6c-0.4,0.3-0.7,0.7-1,1.1
			c-0.3,0.5-0.4,1-0.5,1.8h-1.9c0.1-1,0.3-1.8,0.7-2.4c0.4-0.7,0.9-1.2,1.4-1.6c0.6-0.4,1.3-0.7,2-0.9c0.8-0.2,1.6-0.3,2.5-0.3
			c0.8,0,1.6,0.1,2.3,0.3c0.7,0.2,1.3,0.5,1.9,0.8c0.5,0.4,0.9,0.9,1.2,1.5c0.3,0.6,0.4,1.4,0.4,2.4V84c0,0.7,0.1,1.2,0.4,1.4
			c0.3,0.2,0.8,0.1,1.6-0.1v1.5c-0.1,0-0.4,0.1-0.6,0.2c-0.3,0.1-0.6,0.1-0.8,0.1c-0.3,0-0.6,0-0.8-0.1c-0.3,0-0.6-0.1-0.7-0.3
			c-0.2-0.2-0.3-0.3-0.4-0.6c-0.1-0.2-0.2-0.5-0.2-0.7c0-0.3-0.1-0.5-0.1-0.8c-0.8,0.9-1.7,1.5-2.7,2c-1,0.5-2.1,0.7-3.3,0.7
			c-0.7,0-1.4-0.1-2-0.3c-0.7-0.2-1.2-0.5-1.7-0.9c-0.5-0.4-0.9-0.9-1.2-1.4c-0.3-0.6-0.4-1.2-0.4-2c0-2.7,1.9-4.3,5.6-4.8
			L146.7,77.3z M149.9,78.3c-0.8,0.3-1.6,0.5-2.4,0.7c-0.8,0.1-1.6,0.2-2.4,0.2c-1.4,0.1-2.5,0.4-3.3,1c-0.8,0.5-1.2,1.4-1.2,2.4
			c0,0.5,0.1,0.9,0.3,1.3c0.2,0.4,0.5,0.7,0.8,0.9c0.3,0.2,0.7,0.4,1.1,0.5c0.4,0.1,0.9,0.2,1.3,0.2c0.7,0,1.5-0.1,2.2-0.3
			c0.7-0.2,1.3-0.5,1.9-0.9c0.5-0.4,1-0.9,1.3-1.5c0.3-0.6,0.5-1.3,0.5-2.1V78.3z"/>
		<path class="st5" d="M157.1,86.7h-1.9V64.4h1.9v8.8c0.6-1,1.4-1.7,2.5-2.2c1-0.5,2.1-0.8,3.3-0.8c1.2,0,2.3,0.2,3.2,0.7
			c0.9,0.5,1.6,1.1,2.2,1.9c0.6,0.8,1,1.7,1.3,2.7c0.3,1,0.4,2.1,0.4,3.2c0,1.2-0.1,2.3-0.4,3.3c-0.3,1-0.7,1.9-1.3,2.7
			c-0.6,0.8-1.3,1.3-2.2,1.8c-0.9,0.4-2,0.7-3.3,0.7c-0.5,0-1-0.1-1.6-0.2c-0.5-0.1-1.1-0.4-1.6-0.6c-0.5-0.3-1-0.6-1.4-1
			c-0.4-0.4-0.8-0.9-1-1.4h-0.1V86.7z M157.1,78.6c0,1,0.1,1.9,0.4,2.7c0.2,0.8,0.6,1.6,1,2.2c0.5,0.6,1,1.1,1.7,1.4
			c0.7,0.4,1.5,0.5,2.3,0.5c0.8,0,1.5-0.1,2.2-0.4c0.7-0.3,1.2-0.7,1.7-1.2c0.5-0.5,0.9-1.2,1.2-2c0.3-0.8,0.4-1.7,0.4-2.7
			c0-1,0-2-0.2-2.8c-0.2-0.9-0.5-1.6-1-2.3c-0.5-0.7-1-1.2-1.8-1.6c-0.7-0.4-1.5-0.6-2.5-0.6c-0.8,0-1.6,0.2-2.3,0.5
			c-0.7,0.4-1.2,0.8-1.7,1.5c-0.5,0.6-0.8,1.3-1.1,2.1C157.2,76.8,157.1,77.7,157.1,78.6z"/>
		<path class="st5" d="M178.8,87.1c-1,0-2-0.2-2.9-0.6c-0.9-0.4-1.7-0.9-2.4-1.6c-0.7-0.7-1.2-1.6-1.6-2.6c-0.4-1.1-0.6-2.3-0.6-3.7
			c0-1.2,0.2-2.3,0.5-3.3c0.3-1,0.8-1.9,1.4-2.7c0.6-0.8,1.4-1.4,2.3-1.8c0.9-0.4,2-0.7,3.3-0.7c1.3,0,2.4,0.2,3.3,0.7
			c0.9,0.4,1.7,1,2.3,1.8c0.6,0.8,1.1,1.6,1.4,2.7c0.3,1,0.4,2.1,0.4,3.3c0,1.3-0.2,2.4-0.5,3.5c-0.4,1-0.9,1.9-1.5,2.7
			c-0.7,0.7-1.4,1.3-2.4,1.7C180.9,86.9,179.9,87.1,178.8,87.1z M184.2,78.7c0-1-0.1-1.8-0.3-2.7c-0.2-0.8-0.5-1.5-1-2.2
			c-0.4-0.6-1-1.1-1.7-1.4c-0.7-0.4-1.5-0.5-2.5-0.5c-1,0-1.8,0.2-2.5,0.6c-0.7,0.4-1.3,0.9-1.7,1.5c-0.4,0.6-0.8,1.4-1,2.2
			c-0.2,0.8-0.3,1.7-0.3,2.5c0,1,0.1,1.9,0.4,2.7c0.2,0.8,0.6,1.6,1,2.2c0.5,0.6,1,1.1,1.7,1.4c0.7,0.3,1.5,0.5,2.4,0.5
			c1,0,1.8-0.2,2.5-0.6c0.7-0.4,1.3-0.9,1.7-1.5c0.4-0.6,0.8-1.4,1-2.2C184.1,80.4,184.2,79.5,184.2,78.7z"/>
	</g>
	<g>
		<path class="st5" d="M189.7,82c1.5,0,2.6,1.1,2.6,2.5c0,1.4-1.1,2.6-2.6,2.6c-1.5,0-2.6-1.1-2.6-2.6C187.1,83.1,188.3,82,189.7,82
			z M189.7,86.7c1.1,0,2-0.9,2-2.1c0-1.1-0.9-2.1-2-2.1c-1.1,0-2,0.9-2,2.1C187.7,85.8,188.7,86.7,189.7,86.7z M188.7,85.9v-2.6
			c0.2,0,0.5-0.1,1-0.1c0.5,0,1.1,0.1,1.1,0.8c0,0.3-0.2,0.5-0.5,0.6v0c0.3,0.1,0.4,0.3,0.4,0.6c0.1,0.4,0.1,0.5,0.2,0.6h-0.6
			c-0.1-0.1-0.1-0.3-0.2-0.6c-0.1-0.4-0.3-0.4-0.9-0.4v1.1H188.7z M189.3,84.5c0.4,0,0.9,0,0.9-0.4c0-0.2-0.2-0.4-0.6-0.4
			c-0.2,0-0.3,0-0.3,0V84.5z"/>
	</g>
	<g>
		<g>
			<circle class="st7" cx="139.5" cy="96.1" r="7.5"/>
			<g>
				<g>
					<path class="st8" d="M139,95.7h2.7v1.1H139v2.5h3.3v1.1h-4.6v-8.1h4.4v1.1H139V95.7z"/>
				</g>
			</g>
		</g>
		<g>
			<circle class="st9" cx="126.3" cy="96.2" r="7.5"/>
			<g>
				<g>
					<path class="st8" d="M124.2,100.6v-8.1h2.1c1.9,0,3.3,0.6,3.3,2.4c0,1.9-1.3,2.7-2.8,2.7h-1.3v2.9H124.2z M126.4,96.6
						c1,0,1.8-0.3,1.8-1.6c0-1-0.7-1.4-1.9-1.4h-0.8v3H126.4z"/>
				</g>
			</g>
		</g>
		<path class="st6" d="M105.2,96c0-4.1,3.4-7.5,7.5-7.5s7.5,3.4,7.5,7.5s-3.4,7.5-7.5,7.5S105.2,100.2,105.2,96"/>
		<g>
			<g>
				<path class="st8" d="M112.3,92.3c2.8,0,4.2,1.2,4.2,4c0,2.5-1,4-4.2,4H110v-8.1H112.3z M115.1,96.3c0-1.9-0.8-2.9-2.8-2.9h-0.9
					v5.8h0.9C114.2,99.3,115.1,98.3,115.1,96.3L115.1,96.3z"/>
			</g>
		</g>
	</g>
</g>
<g id="DPE" class="st3">
	<g>
		<g class="st4">
			<path class="st5" d="M204.8,120.4h3.2l-7,18.4h-2.6l-7-18.4h3.3l5.2,14.8L204.8,120.4z"/>
			<path class="st5" d="M216.9,134.1c-0.9-2.1-1.6-2.9-3.1-2.9h-2.6v7.5h-2.8v-18.4h4.4c4.1,0,7.3,0.8,7.3,5c0,2.8-1.5,4.1-3.2,4.7
				c1.1,0.5,1.8,1.2,2.3,2.4c0.6,1.5,2,4.5,2.7,6.3h-3.1C218.4,137.5,217.6,135.6,216.9,134.1z M217.3,125.7c0-2.3-1.8-2.8-4.2-2.8
				h-1.9v6h3.4C216.1,128.7,217.3,127.7,217.3,125.7z"/>
		</g>
	</g>
	<g class="st4">
		<g>
			<path class="st6" d="M129.7,126.6c0.9,1,1.4,2.4,1.4,4.2c0,2-0.4,3.5-1.3,4.5c-0.9,1-2,1.5-3.4,1.5c-0.9,0-1.6-0.2-2.2-0.7
				c-0.3-0.2-0.6-0.6-0.9-1.1v5.8h-2.9v-15.5h2.8v1.6c0.3-0.5,0.7-0.9,1-1.1c0.7-0.5,1.4-0.7,2.3-0.7
				C127.7,125.2,128.8,125.7,129.7,126.6z M127.5,128.7c-0.4-0.7-1-1-1.9-1c-1.1,0-1.8,0.5-2.2,1.5c-0.2,0.5-0.3,1.2-0.3,2
				c0,1.3,0.3,2.2,1,2.7c0.4,0.3,0.9,0.5,1.5,0.5c0.8,0,1.4-0.3,1.9-0.9c0.4-0.6,0.6-1.5,0.6-2.5
				C128.1,130.2,127.9,129.4,127.5,128.7z"/>
			<path class="st6" d="M136.3,129.8c0.5-0.1,0.9-0.2,1.2-0.3c0.4-0.2,0.6-0.5,0.6-0.8c0-0.5-0.2-0.8-0.5-0.9
				c-0.3-0.2-0.8-0.3-1.4-0.3c-0.7,0-1.2,0.2-1.5,0.5c-0.2,0.3-0.3,0.6-0.4,1h-2.8c0.1-1,0.3-1.8,0.8-2.4c0.8-1,2.1-1.5,4-1.5
				c1.2,0,2.3,0.2,3.3,0.7c1,0.5,1.4,1.4,1.4,2.7v5.1c0,0.4,0,0.8,0,1.3c0,0.4,0.1,0.6,0.2,0.8c0.1,0.1,0.2,0.2,0.4,0.3v0.4h-3.2
				c-0.1-0.2-0.1-0.4-0.2-0.6c0-0.2-0.1-0.4-0.1-0.7c-0.4,0.4-0.9,0.8-1.4,1.1c-0.6,0.4-1.3,0.5-2.1,0.5c-1,0-1.9-0.3-2.5-0.9
				c-0.7-0.6-1-1.4-1-2.4c0-1.4,0.5-2.4,1.6-3c0.6-0.3,1.4-0.6,2.6-0.7L136.3,129.8z M138.1,131.2c-0.2,0.1-0.4,0.2-0.6,0.3
				c-0.2,0.1-0.5,0.1-0.8,0.2l-0.7,0.1c-0.6,0.1-1.1,0.2-1.3,0.4c-0.5,0.3-0.7,0.7-0.7,1.2c0,0.5,0.1,0.9,0.4,1.1
				c0.3,0.2,0.6,0.3,1,0.3c0.6,0,1.2-0.2,1.8-0.6c0.5-0.4,0.8-1,0.8-2V131.2z"/>
			<path class="st6" d="M151.3,126.1c0.7,0.6,1.1,1.6,1.1,3v7.5h-3v-6.8c0-0.6-0.1-1-0.2-1.3c-0.3-0.6-0.8-0.9-1.6-0.9
				c-1,0-1.7,0.4-2,1.3c-0.2,0.4-0.3,1-0.3,1.7v6h-2.9v-11.1h2.8v1.6c0.4-0.6,0.7-1,1.1-1.2c0.6-0.4,1.4-0.7,2.3-0.7
				C149.6,125.2,150.5,125.5,151.3,126.1z"/>
			<path class="st6" d="M163.1,135.2c-0.9,1.2-2.4,1.7-4.3,1.7c-1.9,0-3.3-0.6-4.3-1.7c-0.9-1.2-1.4-2.6-1.4-4.2
				c0-1.6,0.5-3,1.4-4.2c0.9-1.2,2.4-1.8,4.3-1.8c1.9,0,3.3,0.6,4.3,1.8c0.9,1.2,1.4,2.6,1.4,4.2C164.5,132.7,164,134.1,163.1,135.2
				z M160.8,133.6c0.5-0.6,0.7-1.5,0.7-2.6c0-1.1-0.2-2-0.7-2.6c-0.5-0.6-1.1-0.9-2-0.9c-0.9,0-1.5,0.3-2,0.9
				c-0.5,0.6-0.7,1.5-0.7,2.6c0,1.1,0.2,2,0.7,2.6c0.5,0.6,1.1,0.9,2,0.9C159.7,134.5,160.3,134.2,160.8,133.6z"/>
			<path class="st5" d="M165.7,136.6v-15.1h1.3v15.1H165.7z"/>
			<path class="st5" d="M173.9,130.3c0.2,0,0.5-0.1,0.8-0.1c0.3-0.1,0.6-0.1,0.8-0.2c0.2-0.1,0.3-0.3,0.4-0.5c0-0.2,0.1-0.4,0.1-0.6
				c0-0.6-0.2-1.2-0.6-1.6c-0.4-0.4-1.1-0.6-2.1-0.6c-0.4,0-0.8,0-1.2,0.1c-0.4,0.1-0.7,0.2-1,0.4c-0.3,0.2-0.5,0.4-0.7,0.8
				c-0.2,0.3-0.3,0.7-0.3,1.2h-1.3c0-0.6,0.2-1.2,0.4-1.6c0.3-0.5,0.6-0.8,1-1.1c0.4-0.3,0.9-0.5,1.4-0.6c0.5-0.1,1.1-0.2,1.7-0.2
				c0.5,0,1.1,0.1,1.5,0.2c0.5,0.1,0.9,0.3,1.3,0.6c0.4,0.3,0.6,0.6,0.8,1c0.2,0.4,0.3,1,0.3,1.6v5.9c0,0.5,0.1,0.8,0.3,0.9
				c0.2,0.1,0.5,0.1,1.1-0.1v1c-0.1,0-0.2,0.1-0.4,0.1c-0.2,0.1-0.4,0.1-0.6,0.1c-0.2,0-0.4,0-0.6-0.1c-0.2,0-0.4-0.1-0.5-0.2
				c-0.1-0.1-0.2-0.2-0.3-0.4c-0.1-0.1-0.1-0.3-0.2-0.5c0-0.2,0-0.4,0-0.6c-0.5,0.6-1.1,1-1.8,1.3c-0.7,0.3-1.4,0.5-2.2,0.5
				c-0.5,0-0.9-0.1-1.4-0.2c-0.4-0.1-0.8-0.3-1.2-0.6c-0.3-0.3-0.6-0.6-0.8-1c-0.2-0.4-0.3-0.8-0.3-1.4c0-1.8,1.3-2.9,3.8-3.3
				L173.9,130.3z M176,130.9c-0.5,0.2-1.1,0.4-1.6,0.4c-0.5,0.1-1.1,0.1-1.6,0.2c-1,0.1-1.7,0.3-2.2,0.6c-0.5,0.4-0.8,0.9-0.8,1.7
				c0,0.3,0.1,0.6,0.2,0.9c0.1,0.2,0.3,0.4,0.5,0.6c0.2,0.2,0.5,0.3,0.8,0.4c0.3,0.1,0.6,0.1,0.9,0.1c0.5,0,1-0.1,1.5-0.2
				c0.5-0.1,0.9-0.3,1.3-0.6c0.4-0.3,0.7-0.6,0.9-1c0.2-0.4,0.3-0.9,0.3-1.4V130.9z"/>
			<path class="st5" d="M180.7,136.6h-1.3v-15.1h1.3v6c0.4-0.7,1-1.2,1.7-1.5c0.7-0.3,1.4-0.5,2.2-0.5c0.8,0,1.5,0.2,2.1,0.5
				c0.6,0.3,1.1,0.7,1.5,1.3c0.4,0.5,0.7,1.1,0.9,1.8c0.2,0.7,0.3,1.4,0.3,2.2c0,0.8-0.1,1.5-0.3,2.2c-0.2,0.7-0.5,1.3-0.9,1.8
				c-0.4,0.5-0.9,0.9-1.5,1.2c-0.6,0.3-1.4,0.4-2.2,0.4c-0.3,0-0.7,0-1.1-0.1c-0.4-0.1-0.7-0.2-1.1-0.4c-0.3-0.2-0.7-0.4-0.9-0.7
				c-0.3-0.3-0.5-0.6-0.7-1h0V136.6z M180.7,131.1c0,0.7,0.1,1.3,0.2,1.8c0.2,0.6,0.4,1.1,0.7,1.5c0.3,0.4,0.7,0.7,1.2,1
				c0.5,0.2,1,0.4,1.6,0.4c0.5,0,1-0.1,1.5-0.3c0.4-0.2,0.8-0.5,1.2-0.8c0.3-0.4,0.6-0.8,0.8-1.3c0.2-0.5,0.3-1.1,0.3-1.8
				c0-0.7,0-1.3-0.2-1.9c-0.1-0.6-0.4-1.1-0.7-1.6c-0.3-0.4-0.7-0.8-1.2-1.1c-0.5-0.3-1-0.4-1.7-0.4c-0.6,0-1.1,0.1-1.5,0.4
				c-0.5,0.2-0.8,0.6-1.2,1c-0.3,0.4-0.6,0.9-0.7,1.4C180.7,129.9,180.7,130.5,180.7,131.1z"/>
			<path class="st5" d="M195.1,136.9c-0.7,0-1.3-0.1-2-0.4c-0.6-0.2-1.1-0.6-1.6-1.1c-0.5-0.5-0.8-1.1-1.1-1.8
				c-0.3-0.7-0.4-1.5-0.4-2.5c0-0.8,0.1-1.5,0.3-2.2c0.2-0.7,0.5-1.3,0.9-1.8c0.4-0.5,0.9-0.9,1.6-1.2c0.6-0.3,1.4-0.4,2.2-0.4
				c0.9,0,1.6,0.2,2.2,0.4c0.6,0.3,1.2,0.7,1.6,1.2c0.4,0.5,0.7,1.1,0.9,1.8c0.2,0.7,0.3,1.4,0.3,2.2c0,0.9-0.1,1.6-0.4,2.3
				c-0.2,0.7-0.6,1.3-1,1.8c-0.4,0.5-1,0.9-1.6,1.2C196.5,136.7,195.9,136.9,195.1,136.9z M198.8,131.2c0-0.6-0.1-1.2-0.2-1.8
				c-0.1-0.6-0.4-1-0.6-1.5c-0.3-0.4-0.7-0.7-1.1-1c-0.5-0.2-1-0.4-1.7-0.4c-0.7,0-1.2,0.1-1.7,0.4c-0.5,0.3-0.8,0.6-1.1,1
				c-0.3,0.4-0.5,0.9-0.6,1.5c-0.1,0.6-0.2,1.1-0.2,1.7c0,0.7,0.1,1.3,0.2,1.9c0.2,0.6,0.4,1.1,0.7,1.5c0.3,0.4,0.7,0.7,1.2,0.9
				c0.5,0.2,1,0.3,1.6,0.3c0.7,0,1.2-0.1,1.7-0.4c0.5-0.3,0.8-0.6,1.1-1c0.3-0.4,0.5-0.9,0.6-1.5
				C198.7,132.3,198.8,131.8,198.8,131.2z"/>
			<g>
				<circle class="st5" cx="113.9" cy="129.4" r="1.4"/>
				<path class="st5" d="M116.6,125.2c-0.1,0-5.8,1.2-11.8,1.2c-6,0-11.8-1.2-11.8-1.2l-1.3-0.3v13.3L93,138c0.1,0,5.8-1.2,11.8-1.2
					c6,0,11.8,1.2,11.8,1.2l1.3,0.3v-13.3L116.6,125.2z M116.8,136.6c0,0-2.1-0.5-5.1-0.8l-0.9-1.7h0.7l-1.7-3.4l-1.7,3.4h0.7
					l-0.7,1.4c-0.5,0-0.9-0.1-1.4-0.1l-1-1.9h1l-2.2-4.5l-2.2,4.5h1l-1,1.9c-0.5,0-1,0-1.4,0.1l-0.7-1.4h0.7l-1.7-3.4l-1.7,3.4h0.7
					l-0.9,1.7c-3,0.4-5.1,0.8-5.1,0.8v-10.1c0,0,5.8,1.3,12,1.3c6.2,0,12-1.3,12-1.3V136.6z"/>
			</g>
		</g>
		<g>
			<g>
				<circle class="st7" cx="241.6" cy="129.2" r="8.6"/>
				<g>
					<g>
						<path class="st8" d="M241.1,128.8h3.1v1.2h-3.1v2.8h3.8v1.3h-5.3v-9.3h5v1.3h-3.6V128.8z"/>
					</g>
				</g>
			</g>
			<g>
				<circle class="st9" cx="226.5" cy="129.4" r="8.6"/>
				<g>
					<g>
						<path class="st8" d="M224,134.4v-9.3h2.4c2.2,0,3.8,0.6,3.8,2.8c0,2.2-1.5,3.1-3.2,3.1h-1.5v3.3H224z M226.6,129.8
							c1.2,0,2.1-0.4,2.1-1.8c0-1.2-0.8-1.6-2.2-1.6h-0.9v3.4H226.6z"/>
					</g>
				</g>
			</g>
			<g>
				<circle class="st6" cx="210.9" cy="129.2" r="8.6"/>
				<g>
					<g>
						<path class="st8" d="M210.4,124.9c3.2,0,4.8,1.4,4.8,4.6c0,2.8-1.2,4.6-4.9,4.6h-2.5v-9.3H210.4z M213.6,129.5
							c0-2.2-1-3.3-3.3-3.3h-1.1v6.7h1.1C212.6,132.9,213.6,131.8,213.6,129.5L213.6,129.5z"/>
					</g>
				</g>
			</g>
		</g>
	</g>
</g>
<g id="App">
	<g>
		<g>
			<path class="st6" d="M129.7,126.6c0.9,1,1.4,2.4,1.4,4.2c0,2-0.4,3.5-1.3,4.5c-0.9,1-2,1.5-3.4,1.5c-0.9,0-1.6-0.2-2.2-0.7
				c-0.3-0.2-0.6-0.6-0.9-1.1v5.8h-2.9v-15.5h2.8v1.6c0.3-0.5,0.7-0.9,1-1.1c0.7-0.5,1.4-0.7,2.3-0.7
				C127.7,125.2,128.8,125.7,129.7,126.6z M127.5,128.7c-0.4-0.7-1-1-1.9-1c-1.1,0-1.8,0.5-2.2,1.5c-0.2,0.5-0.3,1.2-0.3,2
				c0,1.3,0.3,2.2,1,2.7c0.4,0.3,0.9,0.5,1.5,0.5c0.8,0,1.4-0.3,1.9-0.9c0.4-0.6,0.6-1.5,0.6-2.5
				C128.1,130.2,127.9,129.4,127.5,128.7z"/>
			<path class="st6" d="M136.3,129.8c0.5-0.1,0.9-0.2,1.2-0.3c0.4-0.2,0.6-0.5,0.6-0.8c0-0.5-0.2-0.8-0.5-0.9
				c-0.3-0.2-0.8-0.3-1.4-0.3c-0.7,0-1.2,0.2-1.5,0.5c-0.2,0.3-0.3,0.6-0.4,1h-2.8c0.1-1,0.3-1.8,0.8-2.4c0.8-1,2.1-1.5,4-1.5
				c1.2,0,2.3,0.2,3.3,0.7c1,0.5,1.4,1.4,1.4,2.7v5.1c0,0.4,0,0.8,0,1.3c0,0.4,0.1,0.6,0.2,0.8c0.1,0.1,0.2,0.2,0.4,0.3v0.4h-3.2
				c-0.1-0.2-0.1-0.4-0.2-0.6c0-0.2-0.1-0.4-0.1-0.7c-0.4,0.4-0.9,0.8-1.4,1.1c-0.6,0.4-1.3,0.5-2.1,0.5c-1,0-1.9-0.3-2.5-0.9
				c-0.7-0.6-1-1.4-1-2.4c0-1.4,0.5-2.4,1.6-3c0.6-0.3,1.4-0.6,2.6-0.7L136.3,129.8z M138.1,131.2c-0.2,0.1-0.4,0.2-0.6,0.3
				c-0.2,0.1-0.5,0.1-0.8,0.2l-0.7,0.1c-0.6,0.1-1.1,0.2-1.3,0.4c-0.5,0.3-0.7,0.7-0.7,1.2c0,0.5,0.1,0.9,0.4,1.1
				c0.3,0.2,0.6,0.3,1,0.3c0.6,0,1.2-0.2,1.8-0.6c0.5-0.4,0.8-1,0.8-2V131.2z"/>
			<path class="st6" d="M151.3,126.1c0.7,0.6,1.1,1.6,1.1,3v7.5h-3v-6.8c0-0.6-0.1-1-0.2-1.3c-0.3-0.6-0.8-0.9-1.6-0.9
				c-1,0-1.7,0.4-2,1.3c-0.2,0.4-0.3,1-0.3,1.7v6h-2.9v-11.1h2.8v1.6c0.4-0.6,0.7-1,1.1-1.2c0.6-0.4,1.4-0.7,2.3-0.7
				C149.6,125.2,150.5,125.5,151.3,126.1z"/>
			<path class="st6" d="M163.1,135.2c-0.9,1.2-2.4,1.7-4.3,1.7c-1.9,0-3.3-0.6-4.3-1.7c-0.9-1.2-1.4-2.6-1.4-4.2
				c0-1.6,0.5-3,1.4-4.2c0.9-1.2,2.4-1.8,4.3-1.8c1.9,0,3.3,0.6,4.3,1.8c0.9,1.2,1.4,2.6,1.4,4.2C164.5,132.7,164,134.1,163.1,135.2
				z M160.8,133.6c0.5-0.6,0.7-1.5,0.7-2.6c0-1.1-0.2-2-0.7-2.6c-0.5-0.6-1.1-0.9-2-0.9c-0.9,0-1.5,0.3-2,0.9
				c-0.5,0.6-0.7,1.5-0.7,2.6c0,1.1,0.2,2,0.7,2.6c0.5,0.6,1.1,0.9,2,0.9C159.7,134.5,160.3,134.2,160.8,133.6z"/>
			<path class="st5" d="M165.7,136.6v-15.1h1.3v15.1H165.7z"/>
			<path class="st5" d="M173.9,130.3c0.2,0,0.5-0.1,0.8-0.1c0.3-0.1,0.6-0.1,0.8-0.2c0.2-0.1,0.3-0.3,0.4-0.5c0-0.2,0.1-0.4,0.1-0.6
				c0-0.6-0.2-1.2-0.6-1.6c-0.4-0.4-1.1-0.6-2.1-0.6c-0.4,0-0.8,0-1.2,0.1c-0.4,0.1-0.7,0.2-1,0.4c-0.3,0.2-0.5,0.4-0.7,0.8
				c-0.2,0.3-0.3,0.7-0.3,1.2h-1.3c0-0.6,0.2-1.2,0.4-1.6c0.3-0.5,0.6-0.8,1-1.1c0.4-0.3,0.9-0.5,1.4-0.6c0.5-0.1,1.1-0.2,1.7-0.2
				c0.5,0,1.1,0.1,1.5,0.2c0.5,0.1,0.9,0.3,1.3,0.6c0.4,0.3,0.6,0.6,0.8,1c0.2,0.4,0.3,1,0.3,1.6v5.9c0,0.5,0.1,0.8,0.3,0.9
				c0.2,0.1,0.5,0.1,1.1-0.1v1c-0.1,0-0.2,0.1-0.4,0.1c-0.2,0.1-0.4,0.1-0.6,0.1c-0.2,0-0.4,0-0.6-0.1c-0.2,0-0.4-0.1-0.5-0.2
				c-0.1-0.1-0.2-0.2-0.3-0.4c-0.1-0.1-0.1-0.3-0.2-0.5c0-0.2,0-0.4,0-0.6c-0.5,0.6-1.1,1-1.8,1.3c-0.7,0.3-1.4,0.5-2.2,0.5
				c-0.5,0-0.9-0.1-1.4-0.2c-0.4-0.1-0.8-0.3-1.2-0.6c-0.3-0.3-0.6-0.6-0.8-1c-0.2-0.4-0.3-0.8-0.3-1.4c0-1.8,1.3-2.9,3.8-3.3
				L173.9,130.3z M176,130.9c-0.5,0.2-1.1,0.4-1.6,0.4c-0.5,0.1-1.1,0.1-1.6,0.2c-1,0.1-1.7,0.3-2.2,0.6c-0.5,0.4-0.8,0.9-0.8,1.7
				c0,0.3,0.1,0.6,0.2,0.9c0.1,0.2,0.3,0.4,0.5,0.6c0.2,0.2,0.5,0.3,0.8,0.4c0.3,0.1,0.6,0.1,0.9,0.1c0.5,0,1-0.1,1.5-0.2
				c0.5-0.1,0.9-0.3,1.3-0.6c0.4-0.3,0.7-0.6,0.9-1c0.2-0.4,0.3-0.9,0.3-1.4V130.9z"/>
			<path class="st5" d="M180.7,136.6h-1.3v-15.1h1.3v6c0.4-0.7,1-1.2,1.7-1.5c0.7-0.3,1.4-0.5,2.2-0.5c0.8,0,1.5,0.2,2.1,0.5
				c0.6,0.3,1.1,0.7,1.5,1.3c0.4,0.5,0.7,1.1,0.9,1.8c0.2,0.7,0.3,1.4,0.3,2.2c0,0.8-0.1,1.5-0.3,2.2c-0.2,0.7-0.5,1.3-0.9,1.8
				c-0.4,0.5-0.9,0.9-1.5,1.2c-0.6,0.3-1.4,0.4-2.2,0.4c-0.3,0-0.7,0-1.1-0.1c-0.4-0.1-0.7-0.2-1.1-0.4c-0.3-0.2-0.7-0.4-0.9-0.7
				c-0.3-0.3-0.5-0.6-0.7-1h0V136.6z M180.7,131.1c0,0.7,0.1,1.3,0.2,1.8c0.2,0.6,0.4,1.1,0.7,1.5c0.3,0.4,0.7,0.7,1.2,1
				c0.5,0.2,1,0.4,1.6,0.4c0.5,0,1-0.1,1.5-0.3c0.4-0.2,0.8-0.5,1.2-0.8c0.3-0.4,0.6-0.8,0.8-1.3c0.2-0.5,0.3-1.1,0.3-1.8
				c0-0.7,0-1.3-0.2-1.9c-0.1-0.6-0.4-1.1-0.7-1.6c-0.3-0.4-0.7-0.8-1.2-1.1c-0.5-0.3-1-0.4-1.7-0.4c-0.6,0-1.1,0.1-1.5,0.4
				c-0.5,0.2-0.8,0.6-1.2,1c-0.3,0.4-0.6,0.9-0.7,1.4C180.7,129.9,180.7,130.5,180.7,131.1z"/>
			<path class="st5" d="M195.1,136.9c-0.7,0-1.3-0.1-2-0.4c-0.6-0.2-1.1-0.6-1.6-1.1c-0.5-0.5-0.8-1.1-1.1-1.8
				c-0.3-0.7-0.4-1.5-0.4-2.5c0-0.8,0.1-1.5,0.3-2.2c0.2-0.7,0.5-1.3,0.9-1.8c0.4-0.5,0.9-0.9,1.6-1.2c0.6-0.3,1.4-0.4,2.2-0.4
				c0.9,0,1.6,0.2,2.2,0.4c0.6,0.3,1.2,0.7,1.6,1.2c0.4,0.5,0.7,1.1,0.9,1.8c0.2,0.7,0.3,1.4,0.3,2.2c0,0.9-0.1,1.6-0.4,2.3
				c-0.2,0.7-0.6,1.3-1,1.8c-0.4,0.5-1,0.9-1.6,1.2C196.5,136.7,195.9,136.9,195.1,136.9z M198.8,131.2c0-0.6-0.1-1.2-0.2-1.8
				c-0.1-0.6-0.4-1-0.6-1.5c-0.3-0.4-0.7-0.7-1.1-1c-0.5-0.2-1-0.4-1.7-0.4c-0.7,0-1.2,0.1-1.7,0.4c-0.5,0.3-0.8,0.6-1.1,1
				c-0.3,0.4-0.5,0.9-0.6,1.5c-0.1,0.6-0.2,1.1-0.2,1.7c0,0.7,0.1,1.3,0.2,1.9c0.2,0.6,0.4,1.1,0.7,1.5c0.3,0.4,0.7,0.7,1.2,0.9
				c0.5,0.2,1,0.3,1.6,0.3c0.7,0,1.2-0.1,1.7-0.4c0.5-0.3,0.8-0.6,1.1-1c0.3-0.4,0.5-0.9,0.6-1.5
				C198.7,132.3,198.8,131.8,198.8,131.2z"/>
			<g>
				<circle class="st5" cx="113.9" cy="129.4" r="1.4"/>
				<path class="st5" d="M116.6,125.2c-0.1,0-5.8,1.2-11.8,1.2c-6,0-11.8-1.2-11.8-1.2l-1.3-0.3v13.3L93,138c0.1,0,5.8-1.2,11.8-1.2
					c6,0,11.8,1.2,11.8,1.2l1.3,0.3v-13.3L116.6,125.2z M116.8,136.6c0,0-2.1-0.5-5.1-0.8l-0.9-1.7h0.7l-1.7-3.4l-1.7,3.4h0.7
					l-0.7,1.4c-0.5,0-0.9-0.1-1.4-0.1l-1-1.9h1l-2.2-4.5l-2.2,4.5h1l-1,1.9c-0.5,0-1,0-1.4,0.1l-0.7-1.4h0.7l-1.7-3.4l-1.7,3.4h0.7
					l-0.9,1.7c-3,0.4-5.1,0.8-5.1,0.8v-10.1c0,0,5.8,1.3,12,1.3c6.2,0,12-1.3,12-1.3V136.6z"/>
			</g>
		</g>
	</g>
</g>
<g id="api" class="st3">
	<g class="st4">
		<g class="st3">
			<g class="st4">
				<path class="st5" d="M213.7,120.4h3.2l-7,18.4h-2.6l-7-18.4h3.3l5.2,14.8L213.7,120.4z"/>
				<path class="st5" d="M225.8,134.1c-0.9-2.1-1.6-2.9-3.1-2.9H220v7.5h-2.8v-18.4h4.4c4.1,0,7.3,0.8,7.3,5c0,2.8-1.5,4.1-3.2,4.7
					c1.1,0.5,1.8,1.2,2.3,2.4c0.6,1.5,2,4.5,2.7,6.3h-3.1C227.2,137.5,226.4,135.6,225.8,134.1z M226.1,125.7c0-2.3-1.8-2.8-4.2-2.8
					H220v6h3.4C224.9,128.7,226.1,127.7,226.1,125.7z"/>
			</g>
		</g>
		<g id="api-code-window">
			<g id="_x34_">
				<path class="st10" d="M240.1,140.1c-0.1,0-0.2,0-0.2,0c-0.2,0.7-0.7,1.1-1.4,1.1h-28.1c-0.8,0-1.5-0.7-1.5-1.5v-18.8H240v0.9
					c0.1,0,0.1,0,0.2,0h1.6v-3c0-1.8-1.5-3.3-3.3-3.3h-28.1c-1.8,0-3.3,1.5-3.3,3.3v20.9c0,1.8,1.5,3.3,3.3,3.3h28.1
					c1.7,0,3-1.3,3.2-2.9L240.1,140.1L240.1,140.1L240.1,140.1z M238.1,117.7c0.4,0,0.7,0.3,0.7,0.7c0,0.4-0.3,0.7-0.7,0.7
					c-0.4,0-0.7-0.3-0.7-0.7C237.4,118,237.7,117.7,238.1,117.7z M232.3,117.7h3.6c0.4,0,0.7,0.3,0.7,0.7c0,0.4-0.3,0.7-0.7,0.7
					h-3.6c-0.4,0-0.7-0.3-0.7-0.7C231.6,118,231.9,117.7,232.3,117.7z"/>
				<g>
					<path class="st10" d="M242,127.3c-0.3-0.1-0.7-0.1-1-0.1c-0.2,0-0.4,0-0.6,0.1c-0.8,0.1-1.5,0.5-2,1c-0.7,0.7-1.1,1.6-1.1,2.7
						c0,1,0.4,2,1.1,2.7c0.5,0.5,1.1,0.8,1.8,1c0.3,0.1,0.6,0.1,0.9,0.1c0.3,0,0.6,0,0.9-0.1c0.7-0.2,1.3-0.5,1.7-1
						c0.7-0.7,1.1-1.6,1.1-2.7c0-1-0.4-2-1.1-2.7C243.2,127.9,242.6,127.5,242,127.3z M242,131.9c-0.3,0.3-0.6,0.4-1,0.4
						c-0.2,0-0.4-0.1-0.6-0.2c-0.5-0.2-0.8-0.7-0.8-1.2c0-0.5,0.3-1,0.8-1.2c0.2-0.1,0.4-0.2,0.6-0.2c0.4,0,0.8,0.2,1,0.4
						c0.2,0.3,0.4,0.6,0.4,1C242.4,131.3,242.3,131.7,242,131.9z"/>
					<path class="st11" d="M248.9,129.9l-1.7-0.2c-0.2-0.8-0.5-1.5-0.9-2.1l1.1-1.3c0.1-0.1,0.1-0.2,0-0.3l-1.2-1.2
						c-0.1-0.1-0.2-0.1-0.3,0l-1.3,1.1c-0.6-0.4-1.4-0.7-2.1-0.9l-0.2-1.7c0-0.1,0-0.1-0.1-0.2c0,0-0.1-0.1-0.2-0.1h-1.5h-0.2
						c-0.1,0-0.2,0.1-0.2,0.2l-0.2,1.7c-0.8,0.2-1.5,0.5-2.1,0.9l-1.3-1.1c-0.1-0.1-0.2-0.1-0.3,0l-1.2,1.2c-0.1,0.1-0.1,0.2,0,0.3
						l1.1,1.3c-0.4,0.6-0.7,1.4-0.9,2.1l-1.7,0.2c-0.1,0-0.2,0.1-0.2,0.2v1.7c0,0.1,0.1,0.2,0.2,0.2l1.7,0.2
						c0.2,0.8,0.5,1.5,0.9,2.1l-0.7,0.9l-0.4,0.5c-0.1,0.1-0.1,0.2,0,0.3l0.9,0.9l0,0l0.3,0.3c0.1,0.1,0.2,0.1,0.3,0l0.4-0.3l0,0
						l0.9-0.7c0.4,0.3,0.9,0.5,1.4,0.7c0,0,0,0,0.1,0c0.2,0.1,0.4,0.1,0.6,0.2l0.2,1.7c0,0.1,0.1,0.2,0.2,0.2l1.7,0
						c0.1,0,0.2-0.1,0.2-0.2l0.2-1.7c0.2,0,0.4-0.1,0.6-0.2c0.5-0.2,1-0.4,1.5-0.7l0.9,0.7l0.4,0.3c0.1,0.1,0.2,0.1,0.3,0l0.3-0.3
						l0.9-0.9c0.1-0.1,0.1-0.2,0-0.3l-1.1-1.3c0.4-0.6,0.7-1.4,0.9-2.1l1.7-0.2c0.1,0,0.2-0.1,0.2-0.2v-1.7
						C249.1,130,249,129.9,248.9,129.9z M241.6,135.5c-0.2,0-0.4,0-0.6,0c-0.6,0-1.1-0.1-1.6-0.3c-1.7-0.6-2.9-2.3-2.9-4.2
						c0-2.3,1.7-4.2,3.9-4.5c0.2,0,0.4-0.1,0.6-0.1c0.3,0,0.7,0,1,0.1c2,0.5,3.5,2.3,3.5,4.4C245.5,133.3,243.8,135.2,241.6,135.5z"
						/>
				</g>
				<g>
					<path class="st10" d="M216.7,127.9l-2.1,6.5h1.9l0.3-1.2h2.1l0.3,1.2h1.9l-2.1-6.5H216.7z M217.2,131.7c0.3-1,0.4-1.7,0.5-2
						c0.1-0.3,0.1-0.6,0.2-0.7c0,0.2,0.1,0.4,0.2,0.8c0.1,0.4,0.2,0.7,0.2,0.9l0.3,1.1H217.2z"/>
					<path class="st10" d="M224.5,127.9h-2.2v6.4h1.7v-2.1h0.5c0.8,0,1.4-0.2,1.8-0.6c0.4-0.4,0.6-0.9,0.6-1.7
						c0-0.7-0.2-1.2-0.6-1.5C225.9,128.1,225.3,127.9,224.5,127.9z M224.9,130.5c-0.2,0.1-0.4,0.2-0.6,0.2H224v-1.5h0.4
						c0.5,0,0.7,0.2,0.7,0.7C225.2,130.2,225.1,130.4,224.9,130.5z"/>
					<rect x="228.4" y="127.9" class="st10" width="1.7" height="6.4"/>
				</g>
			</g>
		</g>
		<g>
			<path class="st6" d="M130.9,126.6c0.9,1,1.4,2.4,1.4,4.2c0,2-0.4,3.5-1.3,4.5c-0.9,1-2,1.5-3.4,1.5c-0.9,0-1.6-0.2-2.2-0.7
				c-0.3-0.2-0.6-0.6-0.9-1.1v5.8h-2.9v-15.5h2.8v1.6c0.3-0.5,0.7-0.9,1-1.1c0.7-0.5,1.4-0.7,2.3-0.7
				C128.9,125.2,130,125.7,130.9,126.6z M128.7,128.7c-0.4-0.7-1-1-1.9-1c-1.1,0-1.8,0.5-2.2,1.5c-0.2,0.5-0.3,1.2-0.3,2
				c0,1.3,0.3,2.2,1,2.7c0.4,0.3,0.9,0.5,1.5,0.5c0.8,0,1.4-0.3,1.9-0.9c0.4-0.6,0.6-1.5,0.6-2.5
				C129.2,130.2,129.1,129.4,128.7,128.7z"/>
			<path class="st6" d="M137.5,129.8c0.5-0.1,0.9-0.2,1.2-0.3c0.4-0.2,0.6-0.5,0.6-0.8c0-0.5-0.2-0.8-0.5-0.9
				c-0.3-0.2-0.8-0.3-1.4-0.3c-0.7,0-1.2,0.2-1.5,0.5c-0.2,0.3-0.3,0.6-0.4,1h-2.8c0.1-1,0.3-1.8,0.8-2.4c0.8-1,2.1-1.5,4-1.5
				c1.2,0,2.3,0.2,3.3,0.7c1,0.5,1.4,1.4,1.4,2.7v5.1c0,0.4,0,0.8,0,1.3c0,0.4,0.1,0.6,0.2,0.8c0.1,0.1,0.2,0.2,0.4,0.3v0.4h-3.2
				c-0.1-0.2-0.2-0.4-0.2-0.6c0-0.2-0.1-0.4-0.1-0.7c-0.4,0.4-0.9,0.8-1.4,1.1c-0.6,0.4-1.3,0.5-2.1,0.5c-1,0-1.9-0.3-2.5-0.9
				c-0.7-0.6-1-1.4-1-2.4c0-1.4,0.5-2.4,1.6-3c0.6-0.3,1.4-0.6,2.6-0.7L137.5,129.8z M139.2,131.2c-0.2,0.1-0.4,0.2-0.6,0.3
				c-0.2,0.1-0.5,0.1-0.8,0.2l-0.7,0.1c-0.6,0.1-1.1,0.2-1.3,0.4c-0.5,0.3-0.7,0.7-0.7,1.2c0,0.5,0.1,0.9,0.4,1.1
				c0.3,0.2,0.6,0.3,1,0.3c0.6,0,1.2-0.2,1.8-0.6c0.5-0.4,0.8-1,0.8-2V131.2z"/>
			<path class="st6" d="M152.4,126.1c0.7,0.6,1.1,1.6,1.1,3v7.5h-3v-6.8c0-0.6-0.1-1-0.2-1.3c-0.3-0.6-0.8-0.9-1.6-0.9
				c-1,0-1.7,0.4-2,1.3c-0.2,0.4-0.3,1-0.3,1.7v6h-2.9v-11.1h2.8v1.6c0.4-0.6,0.7-1,1.1-1.2c0.6-0.4,1.4-0.7,2.3-0.7
				C150.7,125.2,151.7,125.5,152.4,126.1z"/>
			<path class="st6" d="M164.2,135.2c-0.9,1.2-2.4,1.7-4.3,1.7c-1.9,0-3.3-0.6-4.3-1.7c-0.9-1.2-1.4-2.6-1.4-4.2
				c0-1.6,0.5-3,1.4-4.2c0.9-1.2,2.4-1.8,4.3-1.8c1.9,0,3.3,0.6,4.3,1.8c0.9,1.2,1.4,2.6,1.4,4.2
				C165.7,132.7,165.2,134.1,164.2,135.2z M161.9,133.6c0.5-0.6,0.7-1.5,0.7-2.6c0-1.1-0.2-2-0.7-2.6c-0.5-0.6-1.1-0.9-2-0.9
				c-0.9,0-1.5,0.3-2,0.9c-0.5,0.6-0.7,1.5-0.7,2.6c0,1.1,0.2,2,0.7,2.6c0.5,0.6,1.1,0.9,2,0.9C160.8,134.5,161.5,134.2,161.9,133.6
				z"/>
			<path class="st5" d="M166.8,136.6v-15.1h1.3v15.1H166.8z"/>
			<path class="st5" d="M175,130.3c0.2,0,0.5-0.1,0.8-0.1c0.3-0.1,0.6-0.1,0.8-0.2c0.2-0.1,0.3-0.3,0.4-0.5c0-0.2,0.1-0.4,0.1-0.6
				c0-0.6-0.2-1.2-0.6-1.6c-0.4-0.4-1.1-0.6-2.1-0.6c-0.4,0-0.8,0-1.2,0.1c-0.4,0.1-0.7,0.2-1,0.4c-0.3,0.2-0.5,0.4-0.7,0.8
				c-0.2,0.3-0.3,0.7-0.3,1.2H170c0-0.6,0.2-1.2,0.4-1.6c0.3-0.5,0.6-0.8,1-1.1c0.4-0.3,0.9-0.5,1.4-0.6c0.5-0.1,1.1-0.2,1.7-0.2
				c0.5,0,1.1,0.1,1.5,0.2c0.5,0.1,0.9,0.3,1.3,0.6c0.4,0.3,0.6,0.6,0.8,1c0.2,0.4,0.3,1,0.3,1.6v5.9c0,0.5,0.1,0.8,0.3,0.9
				c0.2,0.1,0.5,0.1,1.1-0.1v1c-0.1,0-0.2,0.1-0.4,0.1c-0.2,0.1-0.4,0.1-0.6,0.1c-0.2,0-0.4,0-0.6-0.1c-0.2,0-0.4-0.1-0.5-0.2
				c-0.1-0.1-0.2-0.2-0.3-0.4c-0.1-0.1-0.1-0.3-0.2-0.5c0-0.2,0-0.4,0-0.6c-0.5,0.6-1.1,1-1.8,1.3c-0.7,0.3-1.4,0.5-2.2,0.5
				c-0.5,0-0.9-0.1-1.4-0.2c-0.4-0.1-0.8-0.3-1.2-0.6c-0.3-0.3-0.6-0.6-0.8-1c-0.2-0.4-0.3-0.8-0.3-1.4c0-1.8,1.3-2.9,3.8-3.3
				L175,130.3z M177.1,130.9c-0.5,0.2-1.1,0.4-1.6,0.4c-0.5,0.1-1.1,0.1-1.6,0.2c-1,0.1-1.7,0.3-2.2,0.6c-0.5,0.4-0.8,0.9-0.8,1.7
				c0,0.3,0.1,0.6,0.2,0.9c0.1,0.2,0.3,0.4,0.5,0.6c0.2,0.2,0.5,0.3,0.8,0.4c0.3,0.1,0.6,0.1,0.9,0.1c0.5,0,1-0.1,1.5-0.2
				c0.5-0.1,0.9-0.3,1.3-0.6c0.4-0.3,0.7-0.6,0.9-1c0.2-0.4,0.3-0.9,0.3-1.4V130.9z"/>
			<path class="st5" d="M181.8,136.6h-1.3v-15.1h1.3v6c0.4-0.7,1-1.2,1.7-1.5c0.7-0.3,1.4-0.5,2.2-0.5c0.8,0,1.5,0.2,2.1,0.5
				c0.6,0.3,1.1,0.7,1.5,1.3c0.4,0.5,0.7,1.1,0.9,1.8c0.2,0.7,0.3,1.4,0.3,2.2c0,0.8-0.1,1.5-0.3,2.2c-0.2,0.7-0.5,1.3-0.9,1.8
				c-0.4,0.5-0.9,0.9-1.5,1.2c-0.6,0.3-1.4,0.4-2.2,0.4c-0.3,0-0.7,0-1.1-0.1c-0.4-0.1-0.7-0.2-1.1-0.4c-0.3-0.2-0.7-0.4-0.9-0.7
				c-0.3-0.3-0.5-0.6-0.7-1h0V136.6z M181.8,131.1c0,0.7,0.1,1.3,0.2,1.8c0.2,0.6,0.4,1.1,0.7,1.5c0.3,0.4,0.7,0.7,1.2,1
				c0.5,0.2,1,0.4,1.6,0.4c0.5,0,1-0.1,1.5-0.3c0.4-0.2,0.8-0.5,1.2-0.8c0.3-0.4,0.6-0.8,0.8-1.3c0.2-0.5,0.3-1.1,0.3-1.8
				c0-0.7,0-1.3-0.2-1.9c-0.1-0.6-0.4-1.1-0.7-1.6c-0.3-0.4-0.7-0.8-1.2-1.1c-0.5-0.3-1-0.4-1.7-0.4c-0.6,0-1.1,0.1-1.5,0.4
				c-0.5,0.2-0.8,0.6-1.2,1c-0.3,0.4-0.6,0.9-0.7,1.4C181.9,129.9,181.8,130.5,181.8,131.1z"/>
			<path class="st5" d="M196.2,136.9c-0.7,0-1.3-0.1-2-0.4c-0.6-0.2-1.1-0.6-1.6-1.1c-0.5-0.5-0.8-1.1-1.1-1.8
				c-0.3-0.7-0.4-1.5-0.4-2.5c0-0.8,0.1-1.5,0.3-2.2c0.2-0.7,0.5-1.3,0.9-1.8c0.4-0.5,0.9-0.9,1.6-1.2c0.6-0.3,1.4-0.4,2.2-0.4
				c0.9,0,1.6,0.2,2.2,0.4c0.6,0.3,1.2,0.7,1.6,1.2c0.4,0.5,0.7,1.1,0.9,1.8c0.2,0.7,0.3,1.4,0.3,2.2c0,0.9-0.1,1.6-0.4,2.3
				c-0.2,0.7-0.6,1.3-1,1.8c-0.4,0.5-1,0.9-1.6,1.2C197.7,136.7,197,136.9,196.2,136.9z M199.9,131.2c0-0.6-0.1-1.2-0.2-1.8
				c-0.1-0.6-0.4-1-0.6-1.5c-0.3-0.4-0.7-0.7-1.1-1c-0.5-0.2-1-0.4-1.7-0.4c-0.7,0-1.2,0.1-1.7,0.4c-0.5,0.3-0.8,0.6-1.1,1
				c-0.3,0.4-0.5,0.9-0.6,1.5c-0.1,0.6-0.2,1.1-0.2,1.7c0,0.7,0.1,1.3,0.2,1.9c0.2,0.6,0.4,1.1,0.7,1.5c0.3,0.4,0.7,0.7,1.2,0.9
				c0.5,0.2,1,0.3,1.6,0.3c0.7,0,1.2-0.1,1.7-0.4c0.5-0.3,0.8-0.6,1.1-1c0.3-0.4,0.5-0.9,0.6-1.5
				C199.9,132.3,199.9,131.8,199.9,131.2z"/>
			<g>
				<circle class="st5" cx="115" cy="129.4" r="1.4"/>
				<path class="st5" d="M117.8,125.2c-0.1,0-5.8,1.2-11.8,1.2c-6,0-11.8-1.2-11.8-1.2l-1.3-0.3v13.3l1.3-0.3
					c0.1,0,5.8-1.2,11.8-1.2c6,0,11.8,1.2,11.8,1.2l1.3,0.3v-13.3L117.8,125.2z M118,136.6c0,0-2.1-0.5-5.1-0.8l-0.9-1.7h0.7
					l-1.7-3.4l-1.7,3.4h0.7l-0.7,1.4c-0.5,0-0.9-0.1-1.4-0.1l-1-1.9h1l-2.2-4.5l-2.2,4.5h1l-1,1.9c-0.5,0-1,0-1.4,0.1l-0.7-1.4h0.7
					l-1.7-3.4l-1.7,3.4h0.7l-0.9,1.7c-3,0.4-5.1,0.8-5.1,0.8v-10.1c0,0,5.8,1.3,12,1.3c6.2,0,12-1.3,12-1.3V136.6z"/>
			</g>
		</g>
		<g class="st3">
			<g class="st4">
				<path class="st5" d="M213.7,120.4h3.2l-7,18.4h-2.6l-7-18.4h3.3l5.2,14.8L213.7,120.4z"/>
				<path class="st5" d="M225.8,134.1c-0.9-2.1-1.6-2.9-3.1-2.9H220v7.5h-2.8v-18.4h4.4c4.1,0,7.3,0.8,7.3,5c0,2.8-1.5,4.1-3.2,4.7
					c1.1,0.5,1.8,1.2,2.3,2.4c0.6,1.5,2,4.5,2.7,6.3h-3.1C227.2,137.5,226.4,135.6,225.8,134.1z M226.1,125.7c0-2.3-1.8-2.8-4.2-2.8
					H220v6h3.4C224.9,128.7,226.1,127.7,226.1,125.7z"/>
			</g>
		</g>
	</g>
</g>
<g id="IX" class="st3">
	<g class="st4">
		<g id="layer1_1_">
			<g id="g5131_1_" transform="translate(-982.17 -244.96)">
				<path id="path5037_1_" class="st8" d="M1216.7,361.3c-2.8,0-5.2,1.3-6.8,3.4c-1.3-0.8-2.9-1.3-4.6-1.3c-4.2,0-7.7,3.1-8.4,7.1
					c-3.9,0.8-6.8,4.2-6.8,8.3c0,4.7,3.8,8.5,8.5,8.5c1.9,0,3.7-0.6,5.1-1.7c0.8,0.3,1.7,0.4,2.6,0.4c0.9,0,1.7-0.1,2.6-0.4
					c1.5,1.4,3.5,2.2,5.7,2.2c2.2,0,4.3-0.9,5.8-2.3c1.4,0.9,3,1.5,4.8,1.5c1.4,0,2.7-0.3,3.9-1c0.6,0.1,1.2,0.2,1.8,0.2
					c4.7,0,8.5-3.8,8.5-8.5c0-4.7-3.8-8.5-8.5-8.5c0,0-0.1,0-0.1,0c-1.5-1.8-3.8-3-6.3-3.1C1223,363.3,1220.1,361.3,1216.7,361.3
					L1216.7,361.3z"/>
				<path id="path5039_1_" class="st8" d="M1216.7,360.9c-2.8,0-5.3,1.3-6.9,3.3c-1.3-0.8-2.8-1.2-4.5-1.2c-4.3,0-7.9,3.1-8.7,7.2
					c-3.9,0.9-6.9,4.4-6.9,8.6c0,4.9,4,8.9,8.9,8.9c1.9,0,3.7-0.6,5.2-1.7c0.8,0.2,1.7,0.4,2.6,0.4c0.9,0,1.7-0.1,2.5-0.4
					c1.6,1.3,3.6,2.2,5.8,2.2c2.2,0,4.2-0.8,5.8-2.2c1.4,0.9,3,1.4,4.8,1.4c1.4,0,2.8-0.3,4-0.9c0.6,0.1,1.1,0.2,1.7,0.2
					c4.9,0,8.9-4,8.9-8.9c0-4.9-4-8.9-8.9-8.9c-1.5-1.8-3.8-2.9-6.3-3.1C1223.2,362.9,1220.2,360.9,1216.7,360.9L1216.7,360.9z
					 M1216.7,361.6c3.3,0,6.1,1.9,7.4,4.7c0.1,0.1,0.2,0.2,0.3,0.2c2.4,0.1,4.6,1.2,6.1,3c0.1,0.1,0.2,0.1,0.3,0.1
					c0.1,0,0.1,0,0.1,0c4.5,0,8.2,3.6,8.2,8.2s-3.6,8.2-8.2,8.2c-0.6,0-1.1-0.1-1.7-0.2c-0.1,0-0.2,0-0.2,0
					c-1.1,0.6-2.4,0.9-3.8,0.9c-1.7,0-3.3-0.5-4.6-1.4c-0.1-0.1-0.3-0.1-0.4,0c-1.5,1.3-3.4,2.2-5.5,2.2c-2.1,0-4-0.8-5.5-2.1
					c-0.1-0.1-0.2-0.1-0.3-0.1c-0.8,0.2-1.6,0.4-2.4,0.4c-0.9,0-1.7-0.1-2.5-0.4c-0.1,0-0.2,0-0.3,0.1c-1.4,1-3.1,1.6-4.9,1.6
					c-4.5,0-8.2-3.6-8.2-8.2c0-4,2.8-7.2,6.5-8c0.1,0,0.3-0.1,0.3-0.3c0.6-3.9,4-6.8,8-6.8c1.6,0,3.1,0.5,4.4,1.3
					c0.2,0.1,0.4,0.1,0.5-0.1C1211.7,362.9,1214,361.6,1216.7,361.6L1216.7,361.6z"/>
				<path id="path5041_1_" class="st12" d="M1216.6,362.4c-3.2,0-5.9,1.9-7.2,4.7c0,0,0,0,0,0c1.4-2,3.7-3.2,6.3-3.2
					c2.6,0,4.9,1.3,6.3,3.3c0,0,0,0-0.1,0c0.3,0.4,0.6,0.9,0.8,1.4c0.5,0,1,0.1,1.4,0.2c0,0,0,0,0,0c1.1,0.3,2.2,0.8,3.1,1.4
					c0,0,0,0,0,0c0.5,0.3,0.9,0.7,1.3,1.1c0,0,0.1,0,0.1,0c4.7,0,8.5,3.4,8.5,7.7c0,1.1-0.3,2.1-0.7,3.1c1-1.3,1.6-2.8,1.6-4.5
					c0-4.3-3.8-7.7-8.5-7.7c0,0-0.1,0-0.1,0c-1.4-1.7-3.5-2.8-5.8-2.9C1222.4,364.3,1219.7,362.4,1216.6,362.4L1216.6,362.4z
					 M1205.4,364.4c-0.2,0-0.4,0-0.6,0c-3.1,0.2-5.6,2.3-6.6,5.2c1.2-2.1,3.4-3.5,5.9-3.7c1.5-0.1,2.9,0.3,4.1,1
					c0.3-0.5,0.6-0.9,1-1.3C1208.1,364.8,1206.8,364.4,1205.4,364.4L1205.4,364.4z M1217,367c-2.2,0-4.3,0.9-5.8,2.4
					c0.2,0.1,0.3,0.2,0.5,0.4c1.6-1.1,3.6-1.7,5.7-1.5c4.5,0.5,7.7,4.4,7.2,8.8c-0.1,0.5-0.2,1.1-0.3,1.6c0.5-0.8,0.8-1.8,0.9-2.8
					c0.5-4.3-2.7-8.3-7.2-8.8C1217.6,367.1,1217.3,367,1217,367L1217,367z M1203.3,369.3c-0.6,0-1.3,0.1-1.9,0.2
					c-1.8,0.4-3.4,1.4-4.5,2.8c0.1-0.4,0.2-0.8,0.3-1.2c-2.4,0.6-4.4,2.3-5.4,4.5c1.2-1.6,2.9-2.7,4.9-3.1c-1.1,1.4-1.8,3.2-1.7,5.1
					c0.5-3.1,2.9-5.8,6.3-6.6c2-0.5,4.1-0.2,5.8,0.8c0.4-0.2,0.8-0.4,1.3-0.6C1206.9,370,1205.1,369.3,1203.3,369.3L1203.3,369.3z"
					/>
			</g>
		</g>
		<g>
			<path class="st5" d="M213.6,120.4h3l-4.7,18.4h-2.8l-3.9-13.7l-3.8,13.7h-2.8l-4.9-18.4h3.1l3.4,14.2l3.6-13.8h2.8l3.8,13.8
				L213.6,120.4z"/>
		</g>
		<g>
			<path class="st5" d="M220.3,129.9c0.6,0,1.2-0.1,1.7-0.3l0.2,1c-0.4,0.2-1.1,0.4-2,0.4c-2.1,0-2.9-1.3-2.9-3
				c0-1.8,0.9-3.2,2.8-3.2c1.6,0,2.2,1.1,2.2,2.6v0.7h-3.8C218.4,129.3,219.1,129.9,220.3,129.9L220.3,129.9z M219.9,125.6
				c-0.8,0-1.3,0.8-1.4,1.5h2.7C221.1,126.2,220.8,125.6,219.9,125.6L219.9,125.6z"/>
			<path class="st5" d="M223.8,130.7v-7.9l1.2-0.2v3c0.3-0.3,0.8-0.8,1.8-0.8c1.5,0,2.3,1.1,2.3,2.9c0,1.7-0.6,3.2-2.4,3.2
				c-0.6,0-1.4-0.3-1.7-0.7l-0.1,0.5H223.8z M224.9,128.3c0,0.3,0,0.6,0.1,0.9c0.2,0.3,0.7,0.7,1.4,0.7c1.1,0,1.4-0.9,1.4-2.1
				c0-1.1-0.4-1.9-1.3-1.9c-0.8,0-1.3,0.5-1.5,0.9c0,0.2-0.1,0.5-0.1,0.8V128.3z"/>
		</g>
		<g>
			<path class="st5" d="M220.9,132.6c-0.3-0.2-1-0.4-1.6-0.4c-0.7,0-1.6,0.3-1.6,1.4c0,0.8,0.6,1.1,1.5,1.5c1.1,0.5,1.8,1,1.8,2
				c0,1.3-0.9,1.9-1.9,1.9c-0.6,0-1.5-0.2-2.1-0.5l0.1-0.3c0.6,0.3,1.4,0.5,2,0.5c0.8,0,1.6-0.3,1.6-1.5c0-0.8-0.6-1.3-1.7-1.7
				c-1-0.5-1.7-0.8-1.7-1.8c0-1.2,0.9-1.7,1.9-1.7c0.7,0,1.4,0.3,1.8,0.4L220.9,132.6z"/>
			<path class="st5" d="M224.7,138.6c0.6,0,1.2-0.1,1.6-0.3l0.1,0.3c-0.4,0.2-1.1,0.4-1.7,0.4c-1.3,0-2.4-0.7-2.4-2.6
				c0-1.7,0.9-2.8,2.3-2.8c1.2,0,2,0.7,2,2.4v0.2h-3.8C222.6,138,223.6,138.6,224.7,138.6L224.7,138.6z M224.5,133.8
				c-1,0-1.7,0.8-1.8,2h3.5C226.2,134.4,225.6,133.8,224.5,133.8L224.5,133.8z"/>
			<path class="st5" d="M230.4,133.6l0,0.3c-0.7,0-1.5,0.4-1.8,1.1v3.8h-0.4v-3.7c0-0.6,0-1.2-0.1-1.4l0.3-0.1
				c0.1,0.3,0.2,0.7,0.2,1C229,134,229.7,133.6,230.4,133.6z"/>
			<path class="st5" d="M234.9,133.7h0.4l-2.1,5.1h-0.3l-2.1-5.1h0.4l1.9,4.6L234.9,133.7z"/>
			<path class="st5" d="M236.9,132.4h-0.5v-0.5h0.5V132.4z M236.9,138.8h-0.4v-5.1h0.4V138.8z"/>
			<path class="st5" d="M238.5,136.3c0-1.6,0.7-2.8,2.3-2.8c0.4,0,0.8,0.1,1.2,0.2L242,134c-0.4-0.1-0.7-0.2-1.1-0.2
				c-1.5,0-2,1.2-2,2.5c0,1.2,0.5,2.3,2,2.3c0.4,0,0.8-0.1,1.1-0.2l0.1,0.4c-0.3,0.1-0.8,0.2-1.2,0.2
				C239.1,139,238.5,137.7,238.5,136.3L238.5,136.3z"/>
			<path class="st5" d="M245.6,138.6c0.6,0,1.2-0.1,1.6-0.3l0.1,0.3c-0.4,0.2-1.1,0.4-1.7,0.4c-1.3,0-2.4-0.7-2.4-2.6
				c0-1.7,0.9-2.8,2.3-2.8c1.2,0,2,0.7,2,2.4v0.2h-3.8C243.4,138,244.4,138.6,245.6,138.6L245.6,138.6z M245.4,133.8
				c-1,0-1.7,0.8-1.8,2h3.5C247,134.4,246.4,133.8,245.4,133.8L245.4,133.8z"/>
			<path class="st5" d="M251.5,134.2c-0.3-0.2-0.8-0.3-1.3-0.3c-0.4,0-1.1,0.2-1.1,1c0,0.6,0.4,0.8,1.2,1.1c0.9,0.3,1.5,0.7,1.5,1.5
				c0,1.1-0.8,1.4-1.6,1.4c-0.5,0-1.2-0.1-1.7-0.3l0.1-0.3c0.4,0.2,1.1,0.3,1.6,0.3c0.6,0,1.2-0.2,1.2-1.1c0-0.6-0.5-0.9-1.4-1.2
				c-0.8-0.3-1.3-0.6-1.3-1.4c0-1,0.8-1.3,1.5-1.3c0.5,0,1.1,0.1,1.4,0.3L251.5,134.2z"/>
		</g>
		<g>
			<g id="layer1" class="st3">
				<g id="g5131" transform="translate(-982.17 -244.96)" class="st4">
					<path id="path5037" class="st13" d="M1187.7,367c-1.7,0-3.1,0.8-4.1,2c-0.8-0.5-1.7-0.8-2.7-0.8c-2.5,0-4.6,1.9-5,4.3
						c-2.3,0.5-4.1,2.5-4.1,5c0,2.8,2.3,5.1,5.1,5.1c1.2,0,2.2-0.4,3.1-1c0.5,0.2,1,0.2,1.6,0.2c0.5,0,1-0.1,1.5-0.2
						c0.9,0.8,2.1,1.3,3.4,1.3c1.3,0,2.6-0.5,3.5-1.4c0.8,0.6,1.8,0.9,2.9,0.9c0.8,0,1.6-0.2,2.4-0.6c0.3,0.1,0.7,0.1,1.1,0.1
						c2.8,0,5.1-2.3,5.1-5.1c0-2.8-2.3-5.1-5.1-5.1c0,0-0.1,0-0.1,0c-0.9-1.1-2.3-1.8-3.8-1.9C1191.5,368.2,1189.7,367,1187.7,367
						L1187.7,367z"/>
					<path id="path5039" class="st5" d="M1187.6,366.8c-1.7,0-3.2,0.8-4.1,2c-0.8-0.5-1.7-0.7-2.7-0.7c-2.6,0-4.8,1.9-5.2,4.3
						c-2.4,0.5-4.1,2.7-4.1,5.2c0,2.9,2.4,5.3,5.3,5.3c1.2,0,2.2-0.4,3.1-1c0.5,0.1,1,0.2,1.5,0.2c0.5,0,1-0.1,1.5-0.2
						c0.9,0.8,2.1,1.3,3.5,1.3c1.3,0,2.5-0.5,3.5-1.3c0.8,0.5,1.8,0.8,2.9,0.8c0.9,0,1.7-0.2,2.4-0.6c0.3,0.1,0.7,0.1,1,0.1
						c2.9,0,5.3-2.4,5.3-5.3c0-2.9-2.4-5.3-5.3-5.3c-0.9-1.1-2.3-1.8-3.8-1.8C1191.5,368,1189.7,366.8,1187.6,366.8L1187.6,366.8z
						 M1187.6,367.2c2,0,3.7,1.2,4.4,2.8c0,0.1,0.1,0.1,0.2,0.1c1.5,0,2.8,0.7,3.6,1.8c0,0.1,0.1,0.1,0.2,0.1c0,0,0.1,0,0.1,0
						c2.7,0,4.9,2.2,4.9,4.9c0,2.7-2.2,4.9-4.9,4.9c-0.3,0-0.7,0-1-0.1c0,0-0.1,0-0.1,0c-0.7,0.4-1.4,0.5-2.3,0.5
						c-1,0-2-0.3-2.8-0.9c-0.1-0.1-0.2,0-0.3,0c-0.9,0.8-2,1.3-3.3,1.3c-1.3,0-2.4-0.5-3.3-1.3c-0.1-0.1-0.1-0.1-0.2,0
						c-0.5,0.1-1,0.2-1.5,0.2c-0.5,0-1-0.1-1.5-0.2c-0.1,0-0.1,0-0.2,0c-0.8,0.6-1.8,1-2.9,1c-2.7,0-4.9-2.2-4.9-4.9
						c0-2.4,1.7-4.3,3.9-4.8c0.1,0,0.2-0.1,0.2-0.2c0.4-2.3,2.4-4.1,4.8-4.1c1,0,1.9,0.3,2.6,0.8c0.1,0.1,0.2,0,0.3-0.1
						C1184.6,368,1186.1,367.2,1187.6,367.2L1187.6,367.2z"/>
					<path id="path5041" class="st8" d="M1187.6,367.7c-1.9,0-3.6,1.2-4.3,2.8c0,0,0,0,0,0c0.9-1.2,2.2-1.9,3.8-1.9
						c1.6,0,2.9,0.8,3.8,2c0,0,0,0,0,0c0.2,0.3,0.4,0.5,0.5,0.8c0.3,0,0.6,0,0.9,0.1c0,0,0,0,0,0c0.7,0.2,1.3,0.5,1.9,0.9
						c0,0,0,0,0,0c0.3,0.2,0.5,0.4,0.8,0.7c0,0,0.1,0,0.1,0c2.8,0,5.1,2.1,5.1,4.6c0,0.7-0.2,1.3-0.4,1.8c0.6-0.8,1-1.7,1-2.7
						c0-2.6-2.3-4.6-5.1-4.6c0,0,0,0-0.1,0c-0.9-1-2.1-1.7-3.5-1.7C1191.1,368.8,1189.5,367.7,1187.6,367.7L1187.6,367.7z
						 M1180.9,368.8c-0.1,0-0.2,0-0.4,0c-1.9,0.1-3.4,1.4-4,3.1c0.7-1.2,2-2.1,3.5-2.2c0.9-0.1,1.7,0.2,2.5,0.6
						c0.2-0.3,0.4-0.5,0.6-0.8C1182.5,369.1,1181.7,368.9,1180.9,368.8L1180.9,368.8z M1187.8,370.5c-1.3,0-2.6,0.5-3.5,1.4
						c0.1,0.1,0.2,0.1,0.3,0.2c1-0.7,2.2-1,3.4-0.9c2.7,0.3,4.6,2.7,4.3,5.3c0,0.3-0.1,0.6-0.2,0.9c0.3-0.5,0.5-1.1,0.5-1.7
						c0.3-2.6-1.6-5-4.3-5.3C1188.2,370.5,1188,370.5,1187.8,370.5L1187.8,370.5z M1179.6,371.8c-0.4,0-0.8,0-1.1,0.1
						c-1.1,0.3-2,0.9-2.7,1.7c0-0.2,0.1-0.5,0.2-0.7c-1.4,0.4-2.6,1.4-3.2,2.7c0.7-0.9,1.7-1.6,2.9-1.9c-0.7,0.9-1.1,1.9-1,3
						c0.3-1.9,1.7-3.5,3.8-4c1.2-0.3,2.5-0.1,3.5,0.5c0.2-0.1,0.5-0.3,0.8-0.4C1181.8,372.2,1180.7,371.8,1179.6,371.8L1179.6,371.8
						z"/>
				</g>
			</g>
			<g class="st3">
				<g class="st4">
					<path class="st12" d="M218.9,129.7c0,0.7,0.3,1.4,0.8,1.8s1.1,0.8,1.8,0.8c0.7,0,1.4-0.3,1.8-0.8c0.5-0.5,0.8-1.1,0.8-1.8
						c0-0.7-0.3-1.4-0.8-1.8c-0.5-0.5-1.1-0.8-1.8-0.8c-0.7,0-1.4,0.3-1.8,0.8C219.2,128.4,218.9,129,218.9,129.7z"/>
					<path class="st12" d="M217.7,131.9c0,0.7,0.3,1.4,0.8,1.8c0.5,0.5,1.1,0.8,1.8,0.8c0.7,0,1.4-0.3,1.8-0.8
						c0.5-0.5,0.8-1.1,0.8-1.8c0-0.7-0.3-1.4-0.8-1.8c-0.5-0.5-1.1-0.8-1.8-0.8c-0.7,0-1.4,0.3-1.8,0.8
						C218,130.5,217.7,131.1,217.7,131.9z"/>
					<path class="st12" d="M220.6,132.9c0,0.7,0.3,1.3,0.7,1.7c0.4,0.4,1,0.7,1.7,0.7c0.7,0,1.3-0.3,1.7-0.7c0.4-0.4,0.7-1,0.7-1.7
						c0-0.7-0.3-1.3-0.7-1.7c-0.4-0.4-1-0.7-1.7-0.7c-0.7,0-1.3,0.3-1.7,0.7S220.6,132.3,220.6,132.9z"/>
					<path class="st12" d="M228.5,136.9c0.1-0.1,0.2-0.3,0.2-0.5c0.1-0.2,0.1-0.3,0.2-0.5s0.1-0.4,0.1-0.5c0-0.2,0-0.4-0.1-0.5
						s-0.1-0.3-0.2-0.5c-0.1-0.2-0.2-0.3-0.2-0.5c-0.1-0.1-0.2-0.3-0.3-0.4c-0.1-0.1-0.3-0.2-0.4-0.3c-0.1-0.1-0.3-0.2-0.5-0.2
						c-0.2-0.1-0.3-0.1-0.5-0.2c-0.2,0-0.4-0.1-0.5-0.1c-0.2,0-0.4,0-0.5,0.1c-0.2,0-0.3,0.1-0.5,0.2c-0.2,0.1-0.3,0.2-0.5,0.2
						c-0.1,0.1-0.3,0.2-0.4,0.3c-0.1,0.1-0.2,0.3-0.3,0.4c-0.1,0.1-0.2,0.3-0.2,0.5c-0.1,0.2-0.1,0.3-0.2,0.5c0,0.2-0.1,0.4-0.1,0.5
						c0,0.2,0,0.4,0.1,0.5c0,0.2,0.1,0.3,0.2,0.5c0.1,0.2,0.2,0.3,0.2,0.5"/>
					<path class="st12" d="M216.6,130.9c0,0.5,0.2,1,0.6,1.4c0.3,0.3,0.8,0.6,1.4,0.6c0.5,0,1-0.2,1.4-0.6c0.3-0.3,0.6-0.8,0.6-1.4
						s-0.2-1-0.6-1.4c-0.3-0.3-0.8-0.6-1.4-0.6c-0.5,0-1,0.2-1.4,0.6C216.8,129.9,216.6,130.3,216.6,130.9z"/>
					<path class="st12" d="M214.3,134.9c0,0.4,0.2,0.8,0.4,1s0.6,0.4,1,0.4s0.8-0.2,1-0.4c0.3-0.3,0.4-0.6,0.4-1
						c0-0.4-0.2-0.8-0.4-1c-0.3-0.3-0.6-0.4-1-0.4s-0.8,0.2-1,0.4S214.3,134.5,214.3,134.9z"/>
					<path class="st12" d="M237.2,127.5c0,0.4,0.2,0.8,0.4,1c0.3,0.3,0.6,0.4,1,0.4c0.4,0,0.8-0.2,1-0.4c0.3-0.3,0.4-0.6,0.4-1
						c0-0.4-0.2-0.8-0.4-1c-0.3-0.3-0.6-0.4-1-0.4c-0.4,0-0.8,0.2-1,0.4C237.4,126.7,237.2,127.1,237.2,127.5z"/>
					<path class="st12" d="M214.1,136.8c0.1-0.1,0.2-0.3,0.3-0.5c0.1-0.2,0.1-0.3,0.2-0.5c0-0.2,0.1-0.4,0.1-0.5s0-0.4-0.1-0.5
						c0-0.2-0.1-0.3-0.2-0.5c-0.1-0.2-0.2-0.3-0.3-0.5c-0.1-0.1-0.2-0.3-0.3-0.4c-0.1-0.1-0.3-0.2-0.4-0.3c-0.1-0.1-0.3-0.2-0.5-0.3
						c-0.2-0.1-0.3-0.1-0.5-0.2c-0.2,0-0.4-0.1-0.5-0.1c-0.2,0-0.4,0-0.5,0.1c-0.2,0-0.3,0.1-0.5,0.2c-0.2,0.1-0.3,0.2-0.5,0.3
						c-0.1,0.1-0.3,0.2-0.4,0.3s-0.2,0.3-0.3,0.4c-0.1,0.1-0.2,0.3-0.3,0.5c-0.1,0.2-0.1,0.3-0.2,0.5c0,0.2-0.1,0.4-0.1,0.5
						s0,0.4,0.1,0.5c0,0.2,0.1,0.3,0.2,0.5s0.2,0.3,0.3,0.5"/>
					<path class="st12" d="M223.4,136.9c0,0,0-0.1,0-0.1c0,0,0-0.1,0-0.1c0,0,0-0.1,0-0.1c0,0,0-0.1,0-0.1c0,0,0-0.1,0-0.1
						c0,0,0-0.1,0-0.1c0,0,0-0.1,0-0.1c0,0,0-0.1,0-0.1c0,0,0-0.1,0-0.1c0,0,0-0.1,0-0.1c0,0,0-0.1,0-0.1c0,0,0-0.1,0-0.1
						c0,0,0-0.1,0-0.1c0,0,0-0.1,0-0.1c0,0,0-0.1,0-0.1c0,0,0-0.1,0-0.1c0,0,0-0.1,0-0.1c0,0,0-0.1,0-0.1s0-0.1,0-0.1
						c0,0,0-0.1,0-0.1c0,0,0-0.1-0.1-0.1c0,0,0-0.1-0.1-0.1c0,0,0-0.1-0.1-0.1c0,0,0-0.1-0.1-0.1c0,0,0-0.1-0.1-0.1s0,0-0.1-0.1
						c0,0,0,0-0.1-0.1c0,0,0,0-0.1-0.1c0,0,0,0-0.1-0.1c0,0,0,0-0.1-0.1c0,0,0,0-0.1-0.1c0,0,0,0-0.1-0.1c0,0,0,0-0.1-0.1
						c0,0,0,0-0.1-0.1c0,0,0,0-0.1-0.1c0,0-0.1,0-0.1-0.1s-0.1,0-0.1-0.1c0,0-0.1,0-0.1-0.1c0,0-0.1,0-0.1-0.1c0,0-0.1,0-0.1-0.1
						c0,0-0.1,0-0.1,0c0,0-0.1,0-0.1,0c0,0-0.1,0-0.1,0c0,0-0.1,0-0.1,0c0,0-0.1,0-0.1,0c0,0-0.1,0-0.1,0c0,0-0.1,0-0.1,0
						c0,0-0.1,0-0.1,0c0,0-0.1,0-0.1,0c0,0-0.1,0-0.1,0c0,0-0.1,0-0.1,0c0,0-0.1,0-0.1,0c0,0-0.1,0-0.1,0c0,0-0.1,0-0.1,0
						c0,0-0.1,0-0.1,0c0,0-0.1,0-0.1,0c0,0-0.1,0-0.1,0c0,0-0.1,0-0.1,0c0,0-0.1,0-0.1,0c0,0-0.1,0-0.1,0c0,0-0.1,0-0.1,0
						c0,0-0.1,0-0.1,0c0,0-0.1,0-0.1,0c0,0-0.1,0-0.1,0c0,0-0.1,0-0.1,0c0,0-0.1,0-0.1,0c0,0-0.1,0-0.1,0c0,0-0.1,0-0.1,0
						c0,0-0.1,0-0.1,0c0,0-0.1,0-0.1,0c0,0-0.1,0-0.1,0s-0.1,0-0.1,0c0,0-0.1,0-0.1,0c0,0-0.1,0-0.1,0c0,0-0.1,0-0.1,0
						c0,0-0.1,0-0.1,0c0,0-0.1,0-0.1,0c0,0-0.1,0-0.1,0c0,0-0.1,0-0.1,0c0,0-0.1,0-0.1,0c0,0-0.1,0-0.1,0c0,0-0.1,0-0.1,0
						c0,0-0.1,0-0.1,0c0,0-0.1,0-0.1,0c0,0-0.1,0-0.1,0.1c0,0-0.1,0-0.1,0.1c0,0-0.1,0-0.1,0.1c0,0-0.1,0-0.1,0.1c0,0-0.1,0-0.1,0.1
						c0,0,0,0-0.1,0.1c0,0,0,0-0.1,0.1c0,0,0,0-0.1,0.1c0,0,0,0-0.1,0.1c0,0,0,0-0.1,0.1c0,0,0,0-0.1,0.1c0,0,0,0-0.1,0.1
						c0,0,0,0-0.1,0.1c0,0,0,0-0.1,0.1c0,0,0,0-0.1,0.1c0,0,0,0.1-0.1,0.1c0,0,0,0.1-0.1,0.1c0,0,0,0.1-0.1,0.1c0,0,0,0.1-0.1,0.1
						c0,0,0,0.1-0.1,0.1c0,0,0,0.1,0,0.1c0,0,0,0.1,0,0.1c0,0,0,0.1,0,0.1c0,0,0,0.1,0,0.1c0,0,0,0.1,0,0.1c0,0,0,0.1,0,0.1
						c0,0,0,0.1,0,0.1c0,0,0,0.1,0,0.1s0,0.1,0,0.1c0,0,0,0.1,0,0.1c0,0,0,0.1,0,0.1c0,0,0,0.1,0,0.1c0,0,0,0.1,0,0.1
						c0,0,0,0.1,0,0.1c0,0,0,0.1,0,0.1c0,0,0,0.1,0,0.1c0,0,0,0.1,0,0.1c0,0,0,0.1,0,0.1c0,0,0,0.1,0,0.1c0,0,0,0.1,0,0.1"/>
					<path class="st12" d="M237.9,125.4c0,0.4,0.2,0.8,0.4,1.1c0.3,0.3,0.6,0.4,1.1,0.4s0.8-0.2,1.1-0.4c0.3-0.3,0.4-0.6,0.4-1.1
						s-0.2-0.8-0.4-1.1c-0.3-0.3-0.6-0.4-1.1-0.4s-0.8,0.2-1.1,0.4C238,124.6,237.9,125,237.9,125.4z"/>
					<path class="st12" d="M239.4,126.8c0,0.6,0.2,1.1,0.6,1.5c0.4,0.4,0.9,0.6,1.5,0.6s1.1-0.2,1.5-0.6c0.4-0.4,0.6-0.9,0.6-1.5
						c0-0.6-0.2-1.1-0.6-1.5c-0.4-0.4-0.9-0.6-1.5-0.6s-1.1,0.2-1.5,0.6C239.6,125.7,239.4,126.2,239.4,126.8z"/>
					<path class="st12" d="M239.3,129.4c0,0.7,0.3,1.4,0.8,1.9c0.5,0.5,1.1,0.8,1.9,0.8c0.7,0,1.4-0.3,1.9-0.8
						c0.5-0.5,0.8-1.1,0.8-1.9c0-0.7-0.3-1.4-0.8-1.9c-0.5-0.5-1.1-0.8-1.9-0.8c-0.7,0-1.4,0.3-1.9,0.8
						C239.6,128,239.3,128.7,239.3,129.4z"/>
					<path class="st12" d="M217.1,136.8c0,0,0-0.1-0.1-0.1c0,0-0.1-0.1-0.1-0.1c0,0-0.1-0.1-0.1-0.1c0,0-0.1-0.1-0.1-0.1
						c0,0-0.1-0.1-0.1-0.1c0,0-0.1-0.1-0.1-0.1c0,0-0.1-0.1-0.1-0.1c0,0-0.1-0.1-0.1-0.1c0,0-0.1-0.1-0.1-0.1c0,0-0.1-0.1-0.1-0.1
						c0,0-0.1-0.1-0.1-0.1c0,0-0.1-0.1-0.1-0.1c0,0-0.1-0.1-0.1-0.1c0,0-0.1,0-0.1-0.1c0,0-0.1,0-0.1-0.1c0,0-0.1,0-0.1-0.1
						c-0.1,0-0.1,0-0.2-0.1c-0.1,0-0.1,0-0.2,0c-0.1,0-0.1,0-0.2,0c-0.1,0-0.1,0-0.2,0c-0.1,0-0.1,0-0.2,0c-0.1,0-0.1,0-0.2,0
						c-0.1,0-0.1,0-0.2,0c-0.1,0-0.1,0-0.2,0c-0.1,0-0.1,0-0.2,0c-0.1,0-0.1,0-0.2,0c-0.1,0-0.1,0-0.2,0c-0.1,0-0.1,0-0.2,0
						c-0.1,0-0.1,0-0.2,0c-0.1,0-0.1,0-0.2,0.1c-0.1,0-0.1,0-0.1,0.1c0,0-0.1,0-0.1,0.1c0,0-0.1,0-0.1,0.1c0,0-0.1,0.1-0.1,0.1
						c0,0-0.1,0.1-0.1,0.1c0,0-0.1,0.1-0.1,0.1c0,0-0.1,0.1-0.1,0.1c0,0-0.1,0.1-0.1,0.1c0,0-0.1,0.1-0.1,0.1c0,0-0.1,0.1-0.1,0.1
						c0,0-0.1,0.1-0.1,0.1c0,0-0.1,0.1-0.1,0.1c0,0-0.1,0.1-0.1,0.1c0,0-0.1,0.1-0.1,0.1c0,0-0.1,0.1-0.1,0.1c0,0,0,0.1-0.1,0.1"/>
					<path class="st12" d="M207.1,132.1c0,0.7,0.3,1.3,0.7,1.7c0.4,0.4,1,0.7,1.7,0.7c0.7,0,1.3-0.3,1.7-0.7c0.4-0.4,0.7-1,0.7-1.7
						c0-0.7-0.3-1.3-0.7-1.7c-0.4-0.4-1-0.7-1.7-0.7c-0.7,0-1.3,0.3-1.7,0.7C207.4,130.9,207.1,131.5,207.1,132.1z"/>
					<path class="st12" d="M204.9,132c0,0.7,0.3,1.3,0.7,1.7c0.4,0.4,1,0.7,1.7,0.7c0.7,0,1.3-0.3,1.7-0.7c0.4-0.4,0.7-1,0.7-1.7
						c0-0.7-0.3-1.3-0.7-1.7c-0.4-0.4-1-0.7-1.7-0.7c-0.7,0-1.3,0.3-1.7,0.7C205.2,130.8,204.9,131.4,204.9,132z"/>
					<path class="st12" d="M206.9,129.3c0,0.4,0.2,0.8,0.4,1c0.3,0.3,0.6,0.4,1,0.4s0.8-0.2,1-0.4c0.3-0.3,0.4-0.6,0.4-1
						s-0.2-0.8-0.4-1c-0.3-0.3-0.6-0.4-1-0.4s-0.8,0.2-1,0.4C207.1,128.5,206.9,128.8,206.9,129.3z"/>
					<path class="st12" d="M201.4,126.8c0,0.7,0.3,1.3,0.7,1.8c0.5,0.5,1.1,0.7,1.8,0.7s1.3-0.3,1.8-0.7c0.5-0.5,0.7-1.1,0.7-1.8
						c0-0.7-0.3-1.3-0.7-1.8c-0.5-0.5-1.1-0.7-1.8-0.7s-1.3,0.3-1.8,0.7C201.7,125.5,201.4,126.1,201.4,126.8z"/>
					<path class="st12" d="M199.3,128.1c0,0.5,0.2,1,0.5,1.3c0.3,0.3,0.8,0.5,1.3,0.5c0.5,0,1-0.2,1.3-0.5c0.3-0.3,0.5-0.8,0.5-1.3
						c0-0.5-0.2-1-0.5-1.3c-0.3-0.3-0.8-0.5-1.3-0.5c-0.5,0-1,0.2-1.3,0.5C199.5,127.1,199.3,127.6,199.3,128.1z"/>
					<path class="st12" d="M201.5,130c0,0.8,0.3,1.5,0.8,2c0.5,0.5,1.2,0.8,2,0.8s1.5-0.3,2-0.8c0.5-0.5,0.8-1.2,0.8-2
						c0-0.8-0.3-1.5-0.8-2c-0.5-0.5-1.2-0.8-2-0.8s-1.5,0.3-2,0.8C201.8,128.5,201.5,129.2,201.5,130z"/>
					<path class="st12" d="M205.8,127.7c0,0.3,0.1,0.5,0.3,0.6c0.2,0.2,0.4,0.3,0.6,0.3c0.3,0,0.5-0.1,0.6-0.3
						c0.2-0.2,0.3-0.4,0.3-0.6c0-0.3-0.1-0.5-0.3-0.6c-0.2-0.2-0.4-0.3-0.6-0.3c-0.3,0-0.5,0.1-0.6,0.3
						C205.9,127.2,205.8,127.4,205.8,127.7z"/>
					<path class="st12" d="M202.4,131.6c0,0.6-0.2,1.1-0.6,1.5c-0.4,0.4-0.9,0.6-1.5,0.6s-1.1-0.2-1.5-0.6s-0.6-0.9-0.6-1.5
						c0-0.6,0.2-1.1,0.6-1.5c0.4-0.4,0.9-0.6,1.5-0.6s1.1,0.2,1.5,0.6C202.1,130.5,202.4,131,202.4,131.6z"/>
					<path class="st12" d="M203.3,131.5c0,0.9-0.4,1.7-0.9,2.3c-0.6,0.6-1.4,0.9-2.3,0.9s-1.7-0.4-2.3-0.9c-0.6-0.6-0.9-1.4-0.9-2.3
						c0-0.9,0.4-1.7,0.9-2.3c0.6-0.6,1.4-0.9,2.3-0.9s1.7,0.4,2.3,0.9C203,129.8,203.3,130.6,203.3,131.5z"/>
					<path class="st12" d="M208.6,130.8c0,0.9-0.4,1.7-0.9,2.3c-0.6,0.6-1.4,0.9-2.3,0.9s-1.7-0.4-2.3-0.9c-0.6-0.6-0.9-1.4-0.9-2.3
						c0-0.9,0.4-1.7,0.9-2.3c0.6-0.6,1.4-0.9,2.3-0.9s1.7,0.4,2.3,0.9C208.2,129.1,208.6,129.9,208.6,130.8z"/>
					<path class="st12" d="M234.1,129.1c0,0.9,0.4,1.8,1,2.4c0.6,0.6,1.4,1,2.4,1c0.9,0,1.8-0.4,2.4-1c0.6-0.6,1-1.4,1-2.4
						c0-0.9-0.4-1.8-1-2.4c-0.6-0.6-1.4-1-2.4-1c-0.9,0-1.8,0.4-2.4,1C234.4,127.4,234.1,128.2,234.1,129.1z"/>
					<path class="st12" d="M210.5,136.7c0-0.1,0-0.2,0-0.3c0-0.1,0-0.2,0-0.3c0-0.1,0-0.2,0-0.3c0-0.1,0-0.2,0-0.3s0-0.2,0-0.3
						c0-0.1,0-0.2-0.1-0.3c0-0.1,0-0.2-0.1-0.3c0-0.1-0.1-0.2-0.1-0.3c0-0.1-0.1-0.2-0.1-0.3c0-0.1-0.1-0.2-0.1-0.2
						c0-0.1-0.1-0.2-0.1-0.2c0-0.1-0.1-0.2-0.1-0.2c0-0.1-0.1-0.2-0.1-0.2c-0.1-0.1-0.1-0.1-0.2-0.2c-0.1-0.1-0.1-0.1-0.2-0.2
						c-0.1-0.1-0.1-0.1-0.2-0.2c-0.1-0.1-0.1-0.1-0.2-0.2c-0.1-0.1-0.1-0.1-0.2-0.2c-0.1-0.1-0.1-0.1-0.2-0.2
						c-0.1-0.1-0.1-0.1-0.2-0.2c-0.1-0.1-0.1-0.1-0.2-0.2c-0.1,0-0.1-0.1-0.2-0.1c-0.1,0-0.2-0.1-0.2-0.1c-0.1,0-0.2-0.1-0.2-0.1
						c-0.1,0-0.2-0.1-0.2-0.1c-0.1,0-0.2-0.1-0.3-0.1c-0.1,0-0.2-0.1-0.3-0.1c-0.1,0-0.2-0.1-0.3-0.1c-0.1,0-0.2,0-0.3-0.1
						c-0.1,0-0.2,0-0.3,0c-0.1,0-0.2,0-0.3,0c-0.1,0-0.2,0-0.3,0c-0.1,0-0.2,0-0.3,0c-0.1,0-0.2,0-0.3,0c-0.1,0-0.2,0-0.3,0
						c-0.1,0-0.2,0-0.3,0c-0.1,0-0.2,0-0.3,0c-0.1,0-0.2,0-0.3,0.1s-0.2,0-0.3,0.1c-0.1,0-0.2,0.1-0.3,0.1c-0.1,0-0.2,0.1-0.3,0.1
						c-0.1,0-0.2,0.1-0.2,0.1c-0.1,0-0.2,0.1-0.2,0.1c-0.1,0-0.2,0.1-0.2,0.1c-0.1,0-0.2,0.1-0.2,0.1c-0.1,0.1-0.1,0.1-0.2,0.2
						c-0.1,0.1-0.1,0.1-0.2,0.2c-0.1,0.1-0.1,0.1-0.2,0.2c-0.1,0.1-0.1,0.1-0.2,0.2c-0.1,0.1-0.1,0.1-0.2,0.2
						c-0.1,0.1-0.1,0.1-0.2,0.2c-0.1,0.1-0.1,0.1-0.2,0.2c-0.1,0.1-0.1,0.1-0.2,0.2c-0.1,0.1-0.1,0.1-0.1,0.2c0,0.1-0.1,0.2-0.1,0.2
						c0,0.1-0.1,0.2-0.1,0.2c0,0.1-0.1,0.2-0.1,0.2c0,0.1-0.1,0.2-0.1,0.3c0,0.1-0.1,0.2-0.1,0.3c0,0.1-0.1,0.2-0.1,0.3
						c0,0.1,0,0.2-0.1,0.3c0,0.1,0,0.2,0,0.3c0,0.1,0,0.2,0,0.3c0,0.1,0,0.2,0,0.3c0,0.1,0,0.2,0,0.3c0,0.1,0,0.2,0,0.3"/>
					<path class="st12" d="M211.7,137c0,0-0.1-0.1-0.1-0.1c0,0-0.1-0.1-0.1-0.1c0,0-0.1-0.1-0.1-0.1c0,0-0.1-0.1-0.1-0.1
						c0,0-0.1,0-0.1-0.1c0,0-0.1,0-0.1-0.1c0,0-0.1,0-0.1-0.1c0,0-0.1,0-0.1-0.1c0,0-0.1,0-0.1,0c0,0-0.1,0-0.1,0c0,0-0.1,0-0.1,0
						c0,0-0.1,0-0.1,0c0,0-0.1,0-0.1,0c0,0-0.1,0-0.1,0c0,0-0.1,0-0.1,0c0,0-0.1,0-0.1,0c0,0-0.1,0-0.1,0c0,0-0.1,0-0.1,0
						c0,0-0.1,0-0.1,0c0,0-0.1,0-0.1,0c0,0-0.1,0-0.1,0c0,0-0.1,0-0.1,0c0,0-0.1,0-0.1,0.1c0,0-0.1,0-0.1,0.1c0,0-0.1,0-0.1,0.1
						c0,0-0.1,0-0.1,0.1c0,0-0.1,0-0.1,0.1c0,0-0.1,0.1-0.1,0.1c0,0-0.1,0.1-0.1,0.1c0,0-0.1,0.1-0.1,0.1"/>
					<path class="st12" d="M225.7,136.9C225.7,136.9,225.7,136.9,225.7,136.9c-0.1-0.1-0.1-0.1-0.1-0.1c0,0,0,0-0.1-0.1
						c0,0,0,0-0.1-0.1c0,0,0,0-0.1-0.1c0,0,0,0-0.1-0.1c0,0,0,0-0.1-0.1c0,0,0,0-0.1-0.1c0,0,0,0-0.1-0.1c0,0-0.1,0-0.1,0
						c0,0-0.1,0-0.1,0c0,0-0.1,0-0.1,0c0,0-0.1,0-0.1,0c0,0-0.1,0-0.1,0c0,0-0.1,0-0.1,0c0,0-0.1,0-0.1,0c0,0-0.1,0-0.1,0
						c0,0-0.1,0-0.1,0s-0.1,0-0.1,0c0,0-0.1,0-0.1,0c0,0-0.1,0-0.1,0c0,0-0.1,0-0.1,0c0,0-0.1,0-0.1,0c0,0-0.1,0-0.1,0
						c0,0-0.1,0-0.1,0c0,0-0.1,0-0.1,0c0,0-0.1,0-0.1,0c0,0-0.1,0-0.1,0c0,0-0.1,0-0.1,0c0,0-0.1,0-0.1,0c0,0-0.1,0-0.1,0
						c0,0-0.1,0-0.1,0c0,0-0.1,0-0.1,0c0,0-0.1,0-0.1,0c0,0-0.1,0-0.1,0c0,0-0.1,0-0.1,0c0,0-0.1,0-0.1,0c0,0-0.1,0-0.1,0
						c0,0-0.1,0-0.1,0c0,0-0.1,0-0.1,0c0,0-0.1,0-0.1,0c0,0-0.1,0-0.1,0c0,0-0.1,0-0.1,0c0,0-0.1,0-0.1,0c0,0-0.1,0-0.1,0
						c0,0-0.1,0-0.1,0c0,0-0.1,0-0.1,0c0,0-0.1,0-0.1,0c0,0-0.1,0-0.1,0c0,0-0.1,0-0.1,0c0,0-0.1,0-0.1,0c0,0-0.1,0-0.1,0
						c0,0-0.1,0-0.1,0c0,0-0.1,0-0.1,0c0,0-0.1,0-0.1,0c0,0-0.1,0-0.1,0c0,0-0.1,0-0.1,0c0,0,0,0-0.1,0.1c0,0,0,0-0.1,0.1
						c0,0,0,0-0.1,0.1c0,0,0,0-0.1,0.1c0,0,0,0-0.1,0.1c0,0,0,0-0.1,0.1c0,0,0,0-0.1,0.1c0,0,0,0-0.1,0.1c0,0,0,0-0.1,0.1"/>
					<path class="st12" d="M215.3,132.1c0,0.5,0.2,0.9,0.5,1.2c0.3,0.3,0.7,0.5,1.2,0.5c0.5,0,0.9-0.2,1.2-0.5
						c0.3-0.3,0.5-0.7,0.5-1.2c0-0.5-0.2-0.9-0.5-1.2c-0.3-0.3-0.7-0.5-1.2-0.5c-0.5,0-0.9,0.2-1.2,0.5
						C215.5,131.2,215.3,131.7,215.3,132.1z"/>
					<path class="st12" d="M197.8,136.6c0.2-0.2,0.4-0.3,0.6-0.5c0.2-0.2,0.4-0.4,0.5-0.6c0.2-0.2,0.3-0.5,0.4-0.7
						c0.1-0.3,0.2-0.5,0.3-0.8c0.1-0.3,0.1-0.6,0.1-0.9c0-0.3,0-0.6-0.1-0.9c-0.1-0.3-0.1-0.6-0.3-0.8c-0.1-0.3-0.2-0.5-0.4-0.7
						c-0.2-0.2-0.3-0.4-0.5-0.6c-0.2-0.2-0.4-0.4-0.6-0.5c-0.2-0.2-0.5-0.3-0.7-0.4c-0.3-0.1-0.5-0.2-0.8-0.3
						c-0.3-0.1-0.6-0.1-0.9-0.1c-0.3,0-0.6,0-0.9,0.1c-0.3,0.1-0.6,0.1-0.8,0.3c-0.3,0.1-0.5,0.2-0.7,0.4c-0.2,0.2-0.4,0.3-0.6,0.5
						c-0.2,0.2-0.4,0.4-0.5,0.6c-0.2,0.2-0.3,0.5-0.4,0.7c-0.1,0.3-0.2,0.5-0.3,0.8c-0.1,0.3-0.1,0.6-0.1,0.9c0,0.3,0,0.6,0.1,0.9
						c0.1,0.3,0.1,0.6,0.3,0.8c0.1,0.3,0.2,0.5,0.4,0.7c0.2,0.2,0.3,0.4,0.5,0.6c0.2,0.2,0.4,0.4,0.6,0.5"/>
					<path class="st12" d="M239.5,136.9C239.5,136.9,239.5,136.9,239.5,136.9c0-0.1,0-0.1,0-0.1c0,0,0,0,0-0.1c0,0,0,0,0-0.1
						c0,0,0,0,0-0.1c0,0,0,0,0-0.1s0,0,0-0.1c0,0,0,0,0-0.1c0,0,0,0,0-0.1c0,0,0,0,0-0.1c0,0,0,0,0-0.1c0,0,0,0,0-0.1c0,0,0,0,0-0.1
						c0,0,0,0,0-0.1c0,0,0,0,0-0.1c0,0,0,0,0-0.1c0,0,0,0,0-0.1c0,0,0,0,0-0.1c0,0,0,0,0-0.1c0,0,0,0,0-0.1c0,0,0,0,0-0.1
						c0,0,0,0,0-0.1c0,0,0,0,0-0.1c0,0,0,0,0-0.1c0,0,0,0,0-0.1c0,0,0,0,0-0.1c0,0,0,0,0-0.1c0,0,0,0,0-0.1c0,0,0,0,0-0.1
						c0,0,0,0,0,0c0,0,0,0,0,0c0,0,0,0,0,0c0,0,0,0,0,0c0,0,0,0,0,0c0,0,0,0,0,0c0,0,0,0,0,0s0,0,0,0c0,0,0,0,0,0c0,0,0,0,0,0
						c0,0,0,0,0,0s0,0,0,0c0,0,0,0,0,0c0,0,0,0,0,0c0,0,0,0,0,0c0,0,0,0,0,0c0,0,0,0,0,0c0,0,0,0,0,0c0,0,0,0,0,0c0,0,0,0,0,0
						c0,0,0,0,0,0c0,0,0,0,0,0c0,0,0,0-0.1,0c0,0,0,0-0.1,0c0,0,0,0-0.1,0c0,0,0,0-0.1,0c0,0,0,0-0.1,0c0,0,0,0-0.1,0c0,0,0,0-0.1,0
						c0,0,0,0-0.1,0c0,0,0,0-0.1,0c0,0,0,0-0.1,0c0,0,0,0-0.1,0c0,0,0,0-0.1,0c0,0,0,0-0.1,0c0,0,0,0-0.1,0c0,0,0,0-0.1,0
						c0,0,0,0-0.1,0c0,0,0,0-0.1,0c0,0,0,0-0.1,0c0,0,0,0-0.1,0c0,0,0,0-0.1,0s0,0-0.1,0c0,0,0,0-0.1,0c0,0,0,0-0.1,0s0,0-0.1,0
						c0,0,0,0-0.1,0c0,0,0,0-0.1,0c0,0,0,0-0.1,0c0,0,0,0-0.1,0c0,0,0,0-0.1,0c0,0,0,0-0.1,0c0,0,0,0-0.1,0c0,0,0,0-0.1,0s0,0-0.1,0
						c0,0,0,0-0.1,0c0,0,0,0-0.1,0c0,0,0,0-0.1,0c0,0,0,0-0.1,0c0,0,0,0-0.1,0c0,0,0,0-0.1,0c0,0,0,0-0.1,0c0,0,0,0-0.1,0
						c0,0,0,0-0.1,0c0,0,0,0-0.1,0c0,0,0,0-0.1,0c0,0,0,0-0.1,0c0,0,0,0-0.1,0c0,0,0,0-0.1,0c0,0,0,0-0.1,0c0,0,0,0-0.1,0
						c0,0,0,0-0.1,0c0,0,0,0-0.1,0c0,0,0,0-0.1,0c0,0,0,0-0.1,0s0,0-0.1,0c0,0,0,0-0.1,0c0,0,0,0-0.1,0c0,0,0,0-0.1,0c0,0,0,0-0.1,0
						c0,0,0,0-0.1,0c0,0,0,0-0.1,0c0,0,0,0-0.1,0c0,0,0,0-0.1,0c0,0,0,0-0.1,0c0,0,0,0-0.1,0c0,0,0,0-0.1,0c0,0,0,0-0.1,0
						c0,0,0,0-0.1,0c0,0,0,0-0.1,0c0,0,0,0-0.1,0c0,0,0,0-0.1,0c0,0,0,0-0.1,0c0,0,0,0-0.1,0c0,0,0,0-0.1,0c0,0,0,0-0.1,0s0,0-0.1,0
						c0,0,0,0-0.1,0c0,0,0,0-0.1,0c0,0,0,0-0.1,0c0,0,0,0-0.1,0c0,0,0,0-0.1,0c0,0,0,0-0.1,0c0,0,0,0-0.1,0c0,0,0,0-0.1,0
						c0,0,0,0-0.1,0c0,0,0,0-0.1,0c0,0,0,0-0.1,0c0,0,0,0-0.1,0c0,0,0,0-0.1,0c0,0,0,0-0.1,0c0,0,0,0-0.1,0c0,0,0,0-0.1,0
						c0,0,0,0-0.1,0c0,0,0,0-0.1,0c0,0,0,0-0.1,0c0,0,0,0-0.1,0c0,0,0,0-0.1,0s0,0-0.1,0c0,0,0,0-0.1,0c0,0,0,0-0.1,0c0,0,0,0-0.1,0
						c0,0,0,0-0.1,0c0,0,0,0-0.1,0c0,0,0,0-0.1,0s0,0-0.1,0c0,0,0,0-0.1,0c0,0,0,0-0.1,0c0,0,0,0,0,0c0,0,0,0,0,0c0,0,0,0,0,0
						c0,0,0,0,0,0c0,0,0,0,0,0c0,0,0,0,0,0c0,0,0,0,0,0c0,0,0,0,0,0c0,0,0,0,0,0c0,0,0,0,0,0c0,0,0,0,0,0c0,0,0,0,0,0c0,0,0,0,0,0
						c0,0,0,0,0,0c0,0,0,0,0,0s0,0,0,0c0,0,0,0,0,0c0,0,0,0,0,0c0,0,0,0,0,0c0,0,0,0,0,0c0,0,0,0,0,0c0,0,0,0,0,0c0,0,0,0,0,0.1
						c0,0,0,0,0,0.1c0,0,0,0,0,0.1c0,0,0,0,0,0.1c0,0,0,0,0,0.1c0,0,0,0,0,0.1c0,0,0,0,0,0.1c0,0,0,0,0,0.1c0,0,0,0,0,0.1
						c0,0,0,0,0,0.1c0,0,0,0,0,0.1c0,0,0,0,0,0.1c0,0,0,0,0,0.1c0,0,0,0,0,0.1c0,0,0,0,0,0.1c0,0,0,0,0,0.1c0,0,0,0,0,0.1
						c0,0,0,0,0,0.1c0,0,0,0,0,0.1c0,0,0,0,0,0.1c0,0,0,0,0,0.1c0,0,0,0,0,0.1c0,0,0,0,0,0.1s0,0,0,0.1c0,0,0,0,0,0.1c0,0,0,0,0,0.1
						c0,0,0,0,0,0.1c0,0,0,0,0,0.1c0,0,0,0,0,0.1"/>
					<path class="st12" d="M232.1,133.3c0,0.8,0.3,1.6,0.9,2.1c0.5,0.5,1.3,0.9,2.1,0.9c0.8,0,1.6-0.3,2.1-0.9
						c0.5-0.5,0.9-1.3,0.9-2.1c0-0.8-0.3-1.6-0.9-2.1c-0.5-0.5-1.3-0.9-2.1-0.9c-0.8,0-1.6,0.3-2.1,0.9
						C232.4,131.7,232.1,132.5,232.1,133.3z"/>
					<path class="st12" d="M237.2,133c0,0.8,0.3,1.6,0.9,2.1c0.5,0.5,1.3,0.9,2.1,0.9c0.8,0,1.6-0.3,2.1-0.9
						c0.5-0.5,0.9-1.3,0.9-2.1s-0.3-1.6-0.9-2.1c-0.5-0.5-1.3-0.9-2.1-0.9c-0.8,0-1.6,0.3-2.1,0.9
						C237.5,131.4,237.2,132.1,237.2,133z"/>
					<path class="st12" d="M211.5,132.7c0,0.6,0.3,1.2,0.7,1.6c0.4,0.4,1,0.7,1.6,0.7c0.6,0,1.2-0.3,1.6-0.7c0.4-0.4,0.7-1,0.7-1.6
						c0-0.6-0.3-1.2-0.7-1.6c-0.4-0.4-1-0.7-1.6-0.7c-0.6,0-1.2,0.3-1.6,0.7C211.8,131.5,211.5,132.1,211.5,132.7z"/>
					<path class="st12" d="M240,123.8c0,0.7,0.3,1.3,0.7,1.7c0.4,0.4,1,0.7,1.7,0.7c0.7,0,1.3-0.3,1.7-0.7c0.4-0.4,0.7-1,0.7-1.7
						c0-0.7-0.3-1.3-0.7-1.7c-0.4-0.4-1-0.7-1.7-0.7c-0.7,0-1.3,0.3-1.7,0.7C240.2,122.5,240,123.1,240,123.8z"/>
					<path class="st12" d="M241.9,125.9c0,0.7,0.3,1.3,0.7,1.7c0.4,0.4,1,0.7,1.7,0.7c0.7,0,1.3-0.3,1.7-0.7c0.4-0.4,0.7-1,0.7-1.7
						c0-0.7-0.3-1.3-0.7-1.7c-0.4-0.4-1-0.7-1.7-0.7c-0.7,0-1.3,0.3-1.7,0.7C242.1,124.6,241.9,125.2,241.9,125.9z"/>
					<path class="st12" d="M244.8,127.7c0,0.4,0.2,0.7,0.4,1c0.2,0.2,0.6,0.4,1,0.4c0.4,0,0.7-0.2,1-0.4c0.2-0.2,0.4-0.6,0.4-1
						c0-0.4-0.2-0.7-0.4-1c-0.2-0.2-0.6-0.4-1-0.4c-0.4,0-0.7,0.2-1,0.4C245,127,244.8,127.3,244.8,127.7z"/>
					<path class="st12" d="M249,136.7c0.3-0.2,0.5-0.4,0.7-0.6c0.2-0.2,0.4-0.5,0.6-0.7c0.2-0.3,0.3-0.5,0.4-0.8
						c0.1-0.3,0.2-0.6,0.3-0.9c0.1-0.3,0.1-0.6,0.1-1c0-0.3,0-0.7-0.1-1c-0.1-0.3-0.2-0.6-0.3-0.9c-0.1-0.3-0.3-0.6-0.4-0.8
						c-0.2-0.3-0.4-0.5-0.6-0.7c-0.2-0.2-0.5-0.4-0.7-0.6c-0.3-0.2-0.5-0.3-0.8-0.4s-0.6-0.2-0.9-0.3c-0.3-0.1-0.6-0.1-1-0.1
						s-0.7,0-1,0.1c-0.3,0.1-0.6,0.2-0.9,0.3c-0.3,0.1-0.6,0.3-0.8,0.4c-0.3,0.2-0.5,0.4-0.7,0.6c-0.2,0.2-0.4,0.5-0.6,0.7
						c-0.2,0.3-0.3,0.5-0.4,0.8c-0.1,0.3-0.2,0.6-0.3,0.9s-0.1,0.6-0.1,1c0,0.3,0,0.7,0.1,1s0.2,0.6,0.3,0.9
						c0.1,0.3,0.3,0.6,0.4,0.8c0.2,0.3,0.4,0.5,0.6,0.7c0.2,0.2,0.5,0.4,0.7,0.6"/>
					<path class="st12" d="M225.3,136.9c0,0,0-0.1,0-0.1c0,0,0-0.1,0-0.1c0,0,0-0.1,0-0.1c0,0,0-0.1,0-0.1c0,0,0-0.1,0-0.1
						c0,0,0-0.1,0-0.1c0,0,0-0.1,0-0.1c0,0,0-0.1,0-0.1c0,0,0-0.1,0-0.1c0,0,0-0.1,0-0.1c0,0,0-0.1,0-0.1c0,0,0-0.1,0-0.1
						c0,0,0-0.1-0.1-0.1c0,0,0-0.1-0.1-0.1c0,0,0-0.1-0.1-0.1c0,0,0-0.1-0.1-0.1c0,0,0-0.1-0.1-0.1c0,0-0.1-0.1-0.1-0.1
						c0,0-0.1-0.1-0.1-0.1c0,0-0.1-0.1-0.1-0.1c0,0-0.1-0.1-0.1-0.1c0,0-0.1-0.1-0.1-0.1c0,0-0.1-0.1-0.1-0.1c0,0-0.1,0-0.1-0.1
						c0,0-0.1,0-0.1-0.1c0,0-0.1,0-0.1-0.1c0,0-0.1,0-0.1-0.1c0,0-0.1,0-0.1-0.1c0,0-0.1,0-0.1,0c0,0-0.1,0-0.1,0c0,0-0.1,0-0.1,0
						c0,0-0.1,0-0.1,0c0,0-0.1,0-0.1,0c0,0-0.1,0-0.1,0c0,0-0.1,0-0.1,0c0,0-0.1,0-0.1,0c0,0-0.1,0-0.1,0c0,0-0.1,0-0.1,0
						c0,0-0.1,0-0.1,0c0,0-0.1,0-0.1,0c0,0-0.1,0-0.1,0c0,0-0.1,0-0.1,0c0,0-0.1,0-0.1,0c0,0-0.1,0-0.1,0c0,0-0.1,0-0.1,0.1
						s-0.1,0-0.1,0.1c0,0-0.1,0-0.1,0.1c0,0-0.1,0-0.1,0.1c0,0-0.1,0-0.1,0.1c0,0-0.1,0.1-0.1,0.1c0,0-0.1,0.1-0.1,0.1
						c0,0-0.1,0.1-0.1,0.1c0,0-0.1,0.1-0.1,0.1c0,0-0.1,0.1-0.1,0.1c0,0-0.1,0.1-0.1,0.1c0,0,0,0.1-0.1,0.1c0,0,0,0.1-0.1,0.1
						c0,0,0,0.1-0.1,0.1c0,0,0,0.1-0.1,0.1c0,0,0,0.1-0.1,0.1c0,0,0,0.1,0,0.1c0,0,0,0.1,0,0.1c0,0,0,0.1,0,0.1c0,0,0,0.1,0,0.1
						s0,0.1,0,0.1c0,0,0,0.1,0,0.1c0,0,0,0.1,0,0.1c0,0,0,0.1,0,0.1c0,0,0,0.1,0,0.1c0,0,0,0.1,0,0.1c0,0,0,0.1,0,0.1
						c0,0,0,0.1,0,0.1"/>
					<path class="st12" d="M232,136.9c0,0,0-0.1,0-0.1c0,0,0-0.1,0-0.1c0,0,0-0.1,0-0.1c0,0,0-0.1,0-0.1c0,0,0-0.1,0-0.1
						c0,0,0-0.1,0-0.1c0,0,0-0.1,0-0.1c0,0,0-0.1,0-0.1c0,0,0-0.1,0-0.1c0,0,0-0.1-0.1-0.1c0,0,0-0.1-0.1-0.1c0,0,0-0.1-0.1-0.1
						c0,0,0-0.1-0.1-0.1c0,0,0-0.1-0.1-0.1s-0.1-0.1-0.1-0.1c0,0-0.1-0.1-0.1-0.1c0,0-0.1-0.1-0.1-0.1c0,0-0.1-0.1-0.1-0.1
						c0,0-0.1-0.1-0.1-0.1c0,0-0.1-0.1-0.1-0.1s-0.1,0-0.1-0.1c0,0-0.1,0-0.1-0.1c0,0-0.1,0-0.1-0.1c0,0-0.1,0-0.1-0.1
						c0,0-0.1,0-0.1-0.1c0,0-0.1,0-0.1,0c0,0-0.1,0-0.1,0c0,0-0.1,0-0.1,0c0,0-0.1,0-0.1,0c0,0-0.1,0-0.1,0c0,0-0.1,0-0.1,0
						c0,0-0.1,0-0.1,0c0,0-0.1,0-0.1,0c0,0-0.1,0-0.1,0c0,0-0.1,0-0.1,0c0,0-0.1,0-0.1,0c0,0-0.1,0-0.1,0c0,0-0.1,0-0.1,0
						c0,0-0.1,0-0.1,0c0,0-0.1,0-0.1,0c0,0-0.1,0-0.1,0c0,0-0.1,0-0.1,0.1c0,0-0.1,0-0.1,0.1c0,0-0.1,0-0.1,0.1c0,0-0.1,0-0.1,0.1
						c0,0-0.1,0-0.1,0.1s-0.1,0.1-0.1,0.1c0,0-0.1,0.1-0.1,0.1c0,0-0.1,0.1-0.1,0.1c0,0-0.1,0.1-0.1,0.1c0,0-0.1,0.1-0.1,0.1
						c0,0-0.1,0.1-0.1,0.1s0,0.1-0.1,0.1c0,0,0,0.1-0.1,0.1c0,0,0,0.1-0.1,0.1c0,0,0,0.1-0.1,0.1s0,0.1-0.1,0.1c0,0,0,0.1,0,0.1
						c0,0,0,0.1,0,0.1c0,0,0,0.1,0,0.1c0,0,0,0.1,0,0.1c0,0,0,0.1,0,0.1c0,0,0,0.1,0,0.1c0,0,0,0.1,0,0.1c0,0,0,0.1,0,0.1
						c0,0,0,0.1,0,0.1"/>
				</g>
				<polygon class="st14" points="191.3,137 192.2,137 193.1,137 194.1,137 195,137 195.9,137 196.9,137 197.8,137 198.8,137 
					199.7,137 200.6,137 201.6,137 202.5,137 203.4,137 204.4,137 205.3,137 206.3,137 207.2,137 208.1,137 209.1,137 210,137 
					210.9,137 211.9,137 212.8,137 213.8,137 214.7,137 215.6,137 216.6,137 217.5,137 218.4,137 219.4,137 220.3,137 221.3,137 
					222.2,137 223.1,137 224.1,137 225,137 225.9,137 226.9,137 227.8,137 228.8,137 229.7,137 230.6,137 231.6,137 232.5,137 
					233.4,137 234.4,137 235.3,137 236.3,137 237.2,137 238.1,137 239.1,137 240,137 240.9,137 241.9,137 242.8,137 243.8,137 
					244.7,137 245.6,137 246.6,137 247.5,137 248.4,137 249.4,137 250.3,137 251.3,137 251.3,136.9 251.3,136.9 251.3,136.8 
					251.3,136.8 251.3,136.7 251.3,136.7 251.3,136.6 251.3,136.6 251.3,136.5 251.3,136.5 251.3,136.4 251.3,136.4 251.3,136.3 
					251.3,136.3 251.3,136.2 251.3,136.2 251.3,136.1 251.3,136.1 251.3,136 251.3,136 251.3,135.9 251.3,135.9 251.3,135.8 
					251.3,135.8 251.3,135.7 251.3,135.7 251.3,135.6 251.3,135.6 251.3,135.5 251.3,135.5 251.3,135.4 251.3,135.4 251.3,135.3 
					251.3,135.3 251.3,135.2 251.3,135.2 251.3,135.1 251.3,135.1 251.3,135 251.3,135 251.3,134.9 251.3,134.9 251.3,134.8 
					251.3,134.8 251.3,134.7 251.3,134.7 251.3,134.6 251.3,134.6 251.3,134.5 251.3,134.5 251.3,134.4 251.3,134.4 251.3,134.3 
					251.3,134.3 251.3,134.2 251.3,134.2 251.3,134.1 251.3,134.1 251.3,134 251.3,134 251.3,133.9 251.3,133.9 251.3,133.8 
					251.3,133.8 251,133.8 250.8,133.8 250.5,133.8 250.3,133.8 250.1,133.8 249.8,133.8 249.6,133.8 249.3,133.8 249.1,133.8 
					248.9,133.8 248.6,133.8 248.4,133.8 248.1,133.8 247.9,133.8 247.7,133.8 247.4,133.8 247.2,133.8 247,133.8 246.7,133.8 
					246.5,133.8 246.2,133.8 246,133.8 245.8,133.8 245.5,133.8 245.3,133.8 245,133.8 244.8,133.8 244.6,133.8 244.3,133.8 
					244.1,133.8 243.8,133.8 243.6,133.8 243.4,133.8 243.1,133.8 242.9,133.8 242.7,133.8 242.4,133.8 242.2,133.8 241.9,133.8 
					241.7,133.8 241.5,133.8 241.2,133.8 241,133.8 240.7,133.8 240.5,133.8 240.3,133.8 240,133.8 239.8,133.8 239.5,133.8 
					239.3,133.8 239.1,133.8 238.8,133.8 238.6,133.8 238.4,133.8 238.1,133.8 237.9,133.8 237.6,133.8 237.4,133.8 237.2,133.8 
					236.9,133.8 236.7,133.8 236.4,133.8 236.2,133.8 236,133.8 235.9,133.8 235.9,133.8 235.9,133.8 235.9,133.8 235.9,133.8 
					235.9,133.8 235.8,133.9 235.8,133.9 235.8,133.9 235.8,133.9 235.8,133.9 235.7,133.9 235.7,133.9 235.7,133.9 235.7,133.9 
					235.7,133.9 235.7,133.9 235.6,134 235.6,134 235.6,134 235.6,134 235.6,134 235.6,134 235.5,134 235.5,134 235.5,134 
					235.5,134 235.5,134 235.4,134.1 235.4,134.1 235.4,134.1 235.4,134.1 235.4,134.1 235.4,134.1 235.3,134.1 235.3,134.1 
					235.3,134.1 235.3,134.1 235.3,134.1 235.2,134.2 235.2,134.2 235.2,134.2 235.2,134.2 235.2,134.2 235.2,134.2 235.1,134.2 
					235.1,134.2 235.1,134.2 235.1,134.2 235.1,134.2 235.1,134.3 235,134.3 235,134.3 235,134.3 235,134.3 235,134.3 234.9,134.3 
					234.9,134.3 234.9,134.3 234.9,134.3 234.9,134.4 234.9,134.4 234.8,134.4 234.8,134.4 234.7,134.4 234.6,134.4 234.5,134.4 
					234.4,134.4 234.3,134.4 234.2,134.4 234.1,134.4 234,134.4 233.9,134.4 233.8,134.4 233.7,134.4 233.6,134.4 233.5,134.4 
					233.4,134.4 233.3,134.4 233.2,134.4 233.1,134.4 233,134.4 232.9,134.4 232.8,134.4 232.7,134.4 232.6,134.4 232.5,134.4 
					232.4,134.4 232.3,134.4 232.2,134.4 232.1,134.4 232,134.4 231.9,134.4 231.8,134.4 231.7,134.4 231.6,134.4 231.5,134.4 
					231.4,134.4 231.3,134.4 231.2,134.4 231.1,134.4 231,134.4 230.9,134.4 230.8,134.4 230.7,134.4 230.6,134.4 230.5,134.4 
					230.4,134.4 230.3,134.4 230.2,134.4 230.1,134.4 230,134.4 229.9,134.4 229.8,134.4 229.7,134.4 229.6,134.4 229.5,134.4 
					229.4,134.4 229.3,134.4 229.2,134.4 229.1,134.4 229,134.4 228.9,134.4 228.8,134.4 228.7,134.4 228.6,134.4 228.5,134.4 
					228.4,134.4 228.4,134.4 228.4,134.4 228.4,134.4 228.4,134.3 228.4,134.3 228.3,134.3 228.3,134.3 228.3,134.3 228.3,134.3 
					228.3,134.3 228.3,134.3 228.3,134.3 228.3,134.3 228.3,134.2 228.3,134.2 228.2,134.2 228.2,134.2 228.2,134.2 228.2,134.2 
					228.2,134.2 228.2,134.2 228.2,134.2 228.2,134.2 228.2,134.2 228.2,134.1 228.1,134.1 228.1,134.1 228.1,134.1 228.1,134.1 
					228.1,134.1 228.1,134.1 228.1,134.1 228.1,134.1 228.1,134.1 228.1,134.1 228,134 228,134 228,134 228,134 228,134 228,134 
					228,134 228,134 228,134 228,134 227.9,134 227.9,133.9 227.9,133.9 227.9,133.9 227.9,133.9 227.9,133.9 227.9,133.9 
					227.9,133.9 227.9,133.9 227.9,133.9 227.8,133.9 227.8,133.9 227.8,133.8 227.8,133.8 227.8,133.8 227.8,133.8 227.8,133.8 
					227.8,133.8 227.8,133.8 227.2,133.8 226.6,133.8 226.1,133.8 225.5,133.8 224.9,133.8 224.3,133.8 223.8,133.8 223.2,133.8 
					222.6,133.8 222.1,133.8 221.5,133.8 220.9,133.8 220.3,133.8 219.8,133.8 219.2,133.8 218.6,133.8 218.1,133.8 217.5,133.8 
					216.9,133.8 216.4,133.8 215.8,133.8 215.2,133.8 214.6,133.8 214.1,133.8 213.5,133.8 212.9,133.8 212.4,133.8 211.8,133.8 
					211.2,133.8 210.7,133.8 210.1,133.8 209.5,133.8 208.9,133.8 208.4,133.8 207.8,133.8 207.2,133.8 206.7,133.8 206.1,133.8 
					205.5,133.8 204.9,133.8 204.4,133.8 203.8,133.8 203.2,133.8 202.7,133.8 202.1,133.8 201.5,133.8 201,133.8 200.4,133.8 
					199.8,133.8 199.2,133.8 198.7,133.8 198.1,133.8 197.5,133.8 197,133.8 196.4,133.8 195.8,133.8 195.2,133.8 194.7,133.8 
					194.1,133.8 193.5,133.8 193,133.8 192.4,133.8 191.8,133.8 191.3,133.8 191.3,133.8 191.3,133.9 191.3,133.9 191.3,134 
					191.3,134 191.3,134.1 191.3,134.1 191.3,134.2 191.3,134.2 191.3,134.3 191.3,134.3 191.3,134.4 191.3,134.4 191.3,134.5 
					191.3,134.5 191.3,134.6 191.3,134.6 191.3,134.7 191.3,134.7 191.3,134.8 191.3,134.8 191.3,134.9 191.3,134.9 191.3,135 
					191.3,135 191.3,135.1 191.3,135.1 191.3,135.2 191.3,135.2 191.3,135.3 191.3,135.3 191.3,135.4 191.3,135.4 191.3,135.5 
					191.3,135.5 191.3,135.6 191.3,135.6 191.3,135.7 191.3,135.7 191.3,135.8 191.3,135.8 191.3,135.9 191.3,135.9 191.3,136 
					191.3,136 191.3,136.1 191.3,136.1 191.3,136.2 191.3,136.2 191.3,136.3 191.3,136.3 191.3,136.4 191.3,136.4 191.3,136.5 
					191.3,136.5 191.3,136.6 191.3,136.6 191.3,136.7 191.3,136.7 191.3,136.8 191.3,136.8 191.3,136.9 191.3,136.9 				"/>
			</g>
			<path class="st6" d="M122.2,126.6c0.9,1,1.4,2.4,1.4,4.2c0,2-0.4,3.5-1.3,4.5c-0.9,1-2,1.5-3.4,1.5c-0.9,0-1.6-0.2-2.2-0.7
				c-0.3-0.2-0.6-0.6-0.9-1.1v5.8h-2.9v-15.5h2.8v1.6c0.3-0.5,0.7-0.9,1-1.1c0.7-0.5,1.4-0.7,2.3-0.7
				C120.2,125.2,121.3,125.7,122.2,126.6z M119.9,128.7c-0.4-0.7-1-1-1.9-1c-1.1,0-1.8,0.5-2.2,1.5c-0.2,0.5-0.3,1.2-0.3,2
				c0,1.3,0.3,2.2,1,2.7c0.4,0.3,0.9,0.5,1.5,0.5c0.8,0,1.4-0.3,1.9-0.9c0.4-0.6,0.6-1.5,0.6-2.5
				C120.5,130.2,120.3,129.4,119.9,128.7z"/>
			<path class="st6" d="M128.7,129.8c0.5-0.1,0.9-0.2,1.2-0.3c0.4-0.2,0.6-0.5,0.6-0.8c0-0.5-0.2-0.8-0.5-0.9
				c-0.3-0.2-0.8-0.3-1.4-0.3c-0.7,0-1.2,0.2-1.5,0.5c-0.2,0.3-0.3,0.6-0.4,1h-2.8c0.1-1,0.3-1.8,0.8-2.4c0.8-1,2.1-1.5,4-1.5
				c1.2,0,2.3,0.2,3.3,0.7c1,0.5,1.4,1.4,1.4,2.7v5.1c0,0.4,0,0.8,0,1.3c0,0.4,0.1,0.6,0.2,0.8c0.1,0.1,0.2,0.2,0.4,0.3v0.4h-3.2
				c-0.1-0.2-0.2-0.4-0.2-0.6c0-0.2-0.1-0.4-0.1-0.7c-0.4,0.4-0.9,0.8-1.4,1.1c-0.6,0.4-1.3,0.5-2.1,0.5c-1,0-1.9-0.3-2.5-0.9
				c-0.7-0.6-1-1.4-1-2.4c0-1.4,0.5-2.4,1.6-3c0.6-0.3,1.4-0.6,2.6-0.7L128.7,129.8z M130.5,131.2c-0.2,0.1-0.4,0.2-0.6,0.3
				c-0.2,0.1-0.5,0.1-0.8,0.2l-0.7,0.1c-0.6,0.1-1.1,0.2-1.3,0.4c-0.5,0.3-0.7,0.7-0.7,1.2c0,0.5,0.1,0.9,0.4,1.1
				c0.3,0.2,0.6,0.3,1,0.3c0.6,0,1.2-0.2,1.8-0.6c0.5-0.4,0.8-1,0.8-2V131.2z"/>
			<path class="st6" d="M143.7,126.1c0.7,0.6,1.1,1.6,1.1,3v7.5h-3v-6.8c0-0.6-0.1-1-0.2-1.3c-0.3-0.6-0.8-0.9-1.6-0.9
				c-1,0-1.7,0.4-2,1.3c-0.2,0.4-0.3,1-0.3,1.7v6h-2.9v-11.1h2.8v1.6c0.4-0.6,0.7-1,1.1-1.2c0.6-0.4,1.4-0.7,2.3-0.7
				C142,125.2,143,125.5,143.7,126.1z"/>
			<path class="st6" d="M155.5,135.2c-0.9,1.2-2.4,1.7-4.3,1.7c-1.9,0-3.3-0.6-4.3-1.7c-0.9-1.2-1.4-2.6-1.4-4.2
				c0-1.6,0.5-3,1.4-4.2c0.9-1.2,2.4-1.8,4.3-1.8c1.9,0,3.3,0.6,4.3,1.8c0.9,1.2,1.4,2.6,1.4,4.2
				C156.9,132.7,156.5,134.1,155.5,135.2z M153.2,133.6c0.5-0.6,0.7-1.5,0.7-2.6c0-1.1-0.2-2-0.7-2.6c-0.5-0.6-1.1-0.9-2-0.9
				c-0.9,0-1.5,0.3-2,0.9c-0.5,0.6-0.7,1.5-0.7,2.6c0,1.1,0.2,2,0.7,2.6c0.5,0.6,1.1,0.9,2,0.9C152.1,134.5,152.7,134.2,153.2,133.6
				z"/>
			<path class="st5" d="M158.1,136.6v-15.1h1.3v15.1H158.1z"/>
			<path class="st5" d="M166.3,130.3c0.2,0,0.5-0.1,0.8-0.1c0.3-0.1,0.6-0.1,0.8-0.2c0.2-0.1,0.3-0.3,0.4-0.5c0-0.2,0.1-0.4,0.1-0.6
				c0-0.6-0.2-1.2-0.6-1.6c-0.4-0.4-1.1-0.6-2.1-0.6c-0.4,0-0.8,0-1.2,0.1c-0.4,0.1-0.7,0.2-1,0.4c-0.3,0.2-0.5,0.4-0.7,0.8
				c-0.2,0.3-0.3,0.7-0.3,1.2h-1.3c0-0.6,0.2-1.2,0.4-1.6c0.3-0.5,0.6-0.8,1-1.1c0.4-0.3,0.9-0.5,1.4-0.6c0.5-0.1,1.1-0.2,1.7-0.2
				c0.5,0,1.1,0.1,1.5,0.2c0.5,0.1,0.9,0.3,1.3,0.6c0.4,0.3,0.6,0.6,0.8,1c0.2,0.4,0.3,1,0.3,1.6v5.9c0,0.5,0.1,0.8,0.3,0.9
				c0.2,0.1,0.5,0.1,1.1-0.1v1c-0.1,0-0.2,0.1-0.4,0.1c-0.2,0.1-0.4,0.1-0.6,0.1c-0.2,0-0.4,0-0.6-0.1c-0.2,0-0.4-0.1-0.5-0.2
				c-0.1-0.1-0.2-0.2-0.3-0.4c-0.1-0.1-0.1-0.3-0.2-0.5c0-0.2,0-0.4,0-0.6c-0.5,0.6-1.1,1-1.8,1.3c-0.7,0.3-1.4,0.5-2.2,0.5
				c-0.5,0-0.9-0.1-1.4-0.2c-0.4-0.1-0.8-0.3-1.2-0.6c-0.3-0.3-0.6-0.6-0.8-1c-0.2-0.4-0.3-0.8-0.3-1.4c0-1.8,1.3-2.9,3.8-3.3
				L166.3,130.3z M168.4,130.9c-0.5,0.2-1.1,0.4-1.6,0.4c-0.5,0.1-1.1,0.1-1.6,0.2c-1,0.1-1.7,0.3-2.2,0.6c-0.5,0.4-0.8,0.9-0.8,1.7
				c0,0.3,0.1,0.6,0.2,0.9c0.1,0.2,0.3,0.4,0.5,0.6c0.2,0.2,0.5,0.3,0.8,0.4c0.3,0.1,0.6,0.1,0.9,0.1c0.5,0,1-0.1,1.5-0.2
				c0.5-0.1,0.9-0.3,1.3-0.6c0.4-0.3,0.7-0.6,0.9-1c0.2-0.4,0.3-0.9,0.3-1.4V130.9z"/>
			<path class="st5" d="M173.1,136.6h-1.3v-15.1h1.3v6c0.4-0.7,1-1.2,1.7-1.5c0.7-0.3,1.4-0.5,2.2-0.5c0.8,0,1.5,0.2,2.1,0.5
				c0.6,0.3,1.1,0.7,1.5,1.3c0.4,0.5,0.7,1.1,0.9,1.8c0.2,0.7,0.3,1.4,0.3,2.2c0,0.8-0.1,1.5-0.3,2.2c-0.2,0.7-0.5,1.3-0.9,1.8
				c-0.4,0.5-0.9,0.9-1.5,1.2c-0.6,0.3-1.4,0.4-2.2,0.4c-0.3,0-0.7,0-1.1-0.1c-0.4-0.1-0.7-0.2-1.1-0.4c-0.3-0.2-0.7-0.4-0.9-0.7
				c-0.3-0.3-0.5-0.6-0.7-1h0V136.6z M173.1,131.1c0,0.7,0.1,1.3,0.2,1.8c0.2,0.6,0.4,1.1,0.7,1.5c0.3,0.4,0.7,0.7,1.2,1
				c0.5,0.2,1,0.4,1.6,0.4c0.5,0,1-0.1,1.5-0.3c0.4-0.2,0.8-0.5,1.2-0.8c0.3-0.4,0.6-0.8,0.8-1.3c0.2-0.5,0.3-1.1,0.3-1.8
				c0-0.7,0-1.3-0.2-1.9c-0.1-0.6-0.4-1.1-0.7-1.6c-0.3-0.4-0.7-0.8-1.2-1.1c-0.5-0.3-1-0.4-1.7-0.4c-0.6,0-1.1,0.1-1.5,0.4
				c-0.5,0.2-0.8,0.6-1.2,1c-0.3,0.4-0.6,0.9-0.7,1.4C173.2,129.9,173.1,130.5,173.1,131.1z"/>
			<path class="st5" d="M187.5,136.9c-0.7,0-1.3-0.1-2-0.4c-0.6-0.2-1.1-0.6-1.6-1.1c-0.5-0.5-0.8-1.1-1.1-1.8
				c-0.3-0.7-0.4-1.5-0.4-2.5c0-0.8,0.1-1.5,0.3-2.2c0.2-0.7,0.5-1.3,0.9-1.8c0.4-0.5,0.9-0.9,1.6-1.2c0.6-0.3,1.4-0.4,2.2-0.4
				c0.9,0,1.6,0.2,2.2,0.4c0.6,0.3,1.2,0.7,1.6,1.2c0.4,0.5,0.7,1.1,0.9,1.8c0.2,0.7,0.3,1.4,0.3,2.2c0,0.9-0.1,1.6-0.4,2.3
				c-0.2,0.7-0.6,1.3-1,1.8c-0.4,0.5-1,0.9-1.6,1.2C189,136.7,188.3,136.9,187.5,136.9z M191.2,131.2c0-0.6-0.1-1.2-0.2-1.8
				c-0.1-0.6-0.4-1-0.6-1.5c-0.3-0.4-0.7-0.7-1.1-1c-0.5-0.2-1-0.4-1.7-0.4c-0.7,0-1.2,0.1-1.7,0.4c-0.5,0.3-0.8,0.6-1.1,1
				c-0.3,0.4-0.5,0.9-0.6,1.5c-0.1,0.6-0.2,1.1-0.2,1.7c0,0.7,0.1,1.3,0.2,1.9c0.2,0.6,0.4,1.1,0.7,1.5c0.3,0.4,0.7,0.7,1.2,0.9
				c0.5,0.2,1,0.3,1.6,0.3c0.7,0,1.2-0.1,1.7-0.4c0.5-0.3,0.8-0.6,1.1-1c0.3-0.4,0.5-0.9,0.6-1.5
				C191.1,132.3,191.2,131.8,191.2,131.2z"/>
			<g>
				<circle class="st5" cx="106.3" cy="129.4" r="1.4"/>
				<path class="st5" d="M109,125.2c-0.1,0-5.8,1.2-11.8,1.2c-6,0-11.8-1.2-11.8-1.2l-1.3-0.3v13.3l1.3-0.3c0.1,0,5.8-1.2,11.8-1.2
					c6,0,11.8,1.2,11.8,1.2l1.3,0.3v-13.3L109,125.2z M109.2,136.6c0,0-2.1-0.5-5.1-0.8l-0.9-1.7h0.7l-1.7-3.4l-1.7,3.4h0.7
					l-0.7,1.4c-0.5,0-0.9-0.1-1.4-0.1l-1-1.9h1l-2.2-4.5l-2.2,4.5h1l-1,1.9c-0.5,0-1,0-1.4,0.1l-0.7-1.4h0.7l-1.7-3.4l-1.7,3.4h0.7
					l-0.9,1.7c-3,0.4-5.1,0.8-5.1,0.8v-10.1c0,0,5.8,1.3,12,1.3c6.2,0,12-1.3,12-1.3V136.6z"/>
			</g>
		</g>
	</g>
</g>
<g id="panolabo">
	<g>
		<path class="st6" d="M138.1,197.3c2,2.1,3,5.3,3,9.4c0,4.4-1,7.7-3,10c-2,2.3-4.5,3.4-7.6,3.4c-2,0-3.6-0.5-4.9-1.5
			c-0.7-0.5-1.4-1.3-2.1-2.4v12.9h-6.4v-34.5h6.2v3.7c0.7-1.1,1.4-1.9,2.2-2.5c1.4-1.1,3.2-1.7,5.2-1.7
			C133.6,194.1,136,195.2,138.1,197.3z M133.1,201.9c-0.9-1.5-2.3-2.2-4.3-2.2c-2.4,0-4,1.1-4.9,3.3c-0.5,1.2-0.7,2.7-0.7,4.5
			c0,2.9,0.8,4.9,2.3,6.1c0.9,0.7,2,1,3.3,1c1.8,0,3.2-0.7,4.2-2.1c1-1.4,1.4-3.2,1.4-5.6C134.4,205.1,134,203.4,133.1,201.9z"/>
		<path class="st6" d="M152.7,204.3c1.2-0.2,2.1-0.3,2.6-0.6c0.9-0.4,1.4-1,1.4-1.8c0-1-0.4-1.7-1.1-2.1c-0.7-0.4-1.8-0.6-3.1-0.6
			c-1.5,0-2.6,0.4-3.3,1.1c-0.5,0.6-0.8,1.3-0.9,2.3H142c0.1-2.2,0.7-3.9,1.8-5.3c1.7-2.2,4.7-3.3,8.8-3.3c2.7,0,5.1,0.5,7.3,1.6
			c2.1,1.1,3.2,3.1,3.2,6.1v11.4c0,0.8,0,1.7,0,2.9c0,0.8,0.2,1.4,0.4,1.7c0.2,0.3,0.5,0.6,1,0.7v1h-7c-0.2-0.5-0.3-1-0.4-1.4
			c-0.1-0.4-0.1-0.9-0.2-1.5c-0.9,1-1.9,1.8-3.1,2.5c-1.4,0.8-3,1.2-4.7,1.2c-2.3,0-4.1-0.6-5.6-1.9c-1.5-1.3-2.2-3.1-2.2-5.4
			c0-3,1.2-5.2,3.5-6.6c1.3-0.7,3.2-1.3,5.7-1.6L152.7,204.3z M156.6,207.3c-0.4,0.3-0.8,0.5-1.3,0.6c-0.4,0.2-1,0.3-1.7,0.4
			l-1.5,0.3c-1.4,0.2-2.4,0.5-3,0.9c-1,0.6-1.5,1.5-1.5,2.7c0,1.1,0.3,1.9,0.9,2.4c0.6,0.5,1.4,0.7,2.3,0.7c1.4,0,2.7-0.4,3.9-1.2
			c1.2-0.8,1.8-2.3,1.9-4.5V207.3z"/>
		<path class="st6" d="M185.9,196.1c1.6,1.3,2.4,3.6,2.4,6.7v16.7h-6.6v-15.1c0-1.3-0.2-2.3-0.5-3c-0.6-1.3-1.8-1.9-3.6-1.9
			c-2.2,0-3.7,0.9-4.5,2.8c-0.4,1-0.6,2.2-0.6,3.8v13.4H166v-24.7h6.3v3.6c0.8-1.3,1.6-2.2,2.4-2.7c1.3-1,3-1.5,5-1.5
			C182.2,194,184.3,194.7,185.9,196.1z"/>
		<path class="st6" d="M212.2,216.4c-2.1,2.6-5.3,3.9-9.5,3.9c-4.3,0-7.4-1.3-9.5-3.9c-2.1-2.6-3.1-5.7-3.1-9.3c0-3.6,1-6.7,3.1-9.3
			c2.1-2.6,5.3-3.9,9.5-3.9c4.3,0,7.4,1.3,9.5,3.9c2.1,2.6,3.1,5.7,3.1,9.3C215.3,210.7,214.3,213.8,212.2,216.4z M207,212.8
			c1-1.3,1.5-3.3,1.5-5.7c0-2.5-0.5-4.4-1.5-5.7c-1-1.3-2.5-2-4.4-2c-1.9,0-3.3,0.7-4.4,2c-1,1.3-1.5,3.2-1.5,5.7
			c0,2.5,0.5,4.4,1.5,5.7c1,1.3,2.5,2,4.4,2C204.5,214.8,206,214.1,207,212.8z"/>
		<path class="st5" d="M217.9,219.4v-33.5h2.8v33.5H217.9z"/>
		<path class="st5" d="M236.1,205.3c0.5-0.1,1.2-0.2,1.9-0.3c0.7-0.1,1.3-0.3,1.8-0.5c0.5-0.2,0.8-0.6,0.9-1.1
			c0.1-0.5,0.2-1,0.2-1.4c0-1.4-0.5-2.6-1.4-3.5c-0.9-0.9-2.5-1.4-4.6-1.4c-1,0-1.8,0.1-2.7,0.3c-0.8,0.2-1.5,0.5-2.1,0.9
			c-0.6,0.4-1.1,1-1.5,1.7c-0.4,0.7-0.6,1.6-0.8,2.6h-2.8c0.1-1.4,0.4-2.6,1-3.7c0.6-1,1.3-1.8,2.2-2.5c0.9-0.6,1.9-1.1,3.1-1.4
			c1.2-0.3,2.4-0.4,3.7-0.4c1.2,0,2.3,0.1,3.4,0.4c1.1,0.3,2,0.7,2.8,1.3c0.8,0.6,1.4,1.3,1.9,2.3c0.4,1,0.7,2.1,0.7,3.5v13.1
			c0,1.1,0.2,1.8,0.6,2.1c0.4,0.3,1.2,0.2,2.3-0.2v2.2c-0.2,0.1-0.5,0.2-1,0.3c-0.4,0.1-0.8,0.2-1.2,0.2c-0.4,0-0.9,0-1.3-0.1
			c-0.5-0.1-0.8-0.2-1.1-0.4c-0.3-0.2-0.5-0.5-0.7-0.8c-0.2-0.3-0.3-0.7-0.3-1.1c-0.1-0.4-0.1-0.8-0.1-1.2c-1.2,1.3-2.5,2.3-4,3
			c-1.5,0.7-3.2,1-4.9,1c-1.1,0-2.1-0.1-3-0.4c-1-0.3-1.8-0.7-2.6-1.3c-0.7-0.6-1.3-1.3-1.8-2.2c-0.4-0.9-0.7-1.9-0.7-3
			c0-4.1,2.8-6.5,8.4-7.3L236.1,205.3z M240.8,206.7c-1.2,0.5-2.4,0.8-3.6,1c-1.2,0.2-2.4,0.3-3.6,0.4c-2.1,0.2-3.8,0.6-5,1.4
			c-1.2,0.8-1.8,2-1.8,3.7c0,0.7,0.1,1.4,0.4,1.9c0.3,0.5,0.7,1,1.2,1.3c0.5,0.4,1,0.6,1.7,0.8c0.6,0.2,1.3,0.3,1.9,0.3
			c1.1,0,2.2-0.1,3.3-0.4c1.1-0.3,2-0.7,2.8-1.3c0.8-0.6,1.5-1.3,2-2.2c0.5-0.9,0.7-1.9,0.7-3.1V206.7z"/>
		<path class="st5" d="M251.2,219.4h-2.8v-33.5h2.8v13.3c0.9-1.5,2.1-2.6,3.7-3.4c1.6-0.8,3.2-1.1,4.9-1.1c1.8,0,3.4,0.3,4.8,1
			c1.3,0.7,2.5,1.6,3.3,2.8c0.9,1.2,1.5,2.5,2,4.1c0.4,1.6,0.7,3.2,0.7,4.8c0,1.8-0.2,3.4-0.6,5c-0.4,1.6-1,2.9-1.9,4
			c-0.9,1.1-2,2-3.4,2.7c-1.4,0.7-3,1-5,1c-0.8,0-1.6-0.1-2.4-0.3c-0.8-0.2-1.6-0.5-2.3-0.9c-0.8-0.4-1.5-0.9-2.1-1.5
			c-0.6-0.6-1.2-1.3-1.6-2.1h-0.1V219.4z M251.2,207.2c0,1.5,0.2,2.8,0.5,4.1c0.4,1.3,0.9,2.3,1.6,3.3c0.7,0.9,1.5,1.6,2.6,2.2
			c1,0.5,2.2,0.8,3.5,0.8c1.2,0,2.3-0.2,3.3-0.6c1-0.4,1.9-1,2.6-1.8c0.7-0.8,1.3-1.8,1.7-3c0.4-1.2,0.6-2.5,0.6-4
			c0.1-1.5-0.1-2.9-0.4-4.3c-0.3-1.3-0.8-2.5-1.5-3.5c-0.7-1-1.6-1.8-2.6-2.3c-1.1-0.6-2.3-0.9-3.7-0.9c-1.3,0-2.4,0.3-3.4,0.8
			c-1,0.5-1.9,1.3-2.6,2.2c-0.7,0.9-1.2,2-1.6,3.2C251.4,204.6,251.2,205.9,251.2,207.2z"/>
		<path class="st5" d="M283.3,220c-1.6,0-3-0.3-4.3-0.8c-1.3-0.5-2.5-1.3-3.5-2.4c-1-1.1-1.8-2.4-2.4-4c-0.6-1.6-0.9-3.4-0.9-5.5
			c0-1.8,0.2-3.4,0.7-5c0.5-1.5,1.2-2.9,2.1-4c0.9-1.1,2.1-2.1,3.5-2.7c1.4-0.7,3-1,4.9-1c1.9,0,3.5,0.3,4.9,1
			c1.4,0.7,2.6,1.6,3.5,2.7c0.9,1.1,1.6,2.5,2.1,4c0.4,1.6,0.7,3.2,0.7,5c0,1.9-0.3,3.7-0.8,5.2c-0.5,1.6-1.3,2.9-2.3,4
			c-1,1.1-2.2,2-3.5,2.6C286.5,219.7,285,220,283.3,220z M291.5,207.3c0-1.4-0.2-2.8-0.5-4c-0.3-1.2-0.8-2.3-1.4-3.2
			c-0.7-0.9-1.5-1.6-2.5-2.2c-1-0.5-2.3-0.8-3.8-0.8c-1.5,0-2.7,0.3-3.7,0.9c-1,0.6-1.9,1.3-2.5,2.3c-0.7,0.9-1.1,2-1.4,3.3
			c-0.3,1.2-0.5,2.5-0.5,3.8c0,1.5,0.2,2.9,0.5,4.1c0.4,1.3,0.9,2.3,1.6,3.2c0.7,0.9,1.5,1.6,2.6,2.1c1,0.5,2.2,0.7,3.5,0.7
			c1.5,0,2.7-0.3,3.7-0.9c1-0.6,1.9-1.3,2.5-2.3c0.7-1,1.1-2,1.4-3.3C291.3,209.9,291.5,208.6,291.5,207.3z"/>
		<g>
			<circle class="st5" cx="102.8" cy="203.3" r="3"/>
			<path class="st5" d="M108.9,194.1c-0.1,0-12.8,2.8-26.3,2.8c-13.4,0-26.2-2.7-26.3-2.8l-3-0.6v29.6l3-0.7
				c0.1,0,12.8-2.8,26.3-2.8c13.4,0,26.2,2.7,26.3,2.8l3,0.6v-29.6L108.9,194.1z M109.3,219.5c0,0-4.6-1-11.3-1.8l-1.9-3.9h1.6
				l-3.7-7.5l-3.7,7.5H92l-1.5,3.2c-1-0.1-2.1-0.1-3.1-0.2l-2.1-4.3h2.2l-4.8-9.9l-4.8,9.9h2.2l-2.1,4.3c-1.1,0-2.1,0.1-3.1,0.2
				l-1.5-3.2h1.6l-3.7-7.5l-3.7,7.5h1.6l-1.9,3.9c-6.7,0.8-11.3,1.8-11.3,1.8v-22.5c0,0,12.9,2.8,26.8,2.8s26.8-2.8,26.8-2.8V219.5z
				"/>
		</g>
		<text transform="matrix(1 0 0 1 293.2708 203.9167)" class="st5 st15 st16">®</text>
	</g>
</g>
<g id="panolaboのコピー">
	<g>
		<path class="st6" d="M138.1,197.3c2,2.1,3,5.3,3,9.4c0,4.4-1,7.7-3,10c-2,2.3-4.5,3.4-7.6,3.4c-2,0-3.6-0.5-4.9-1.5
			c-0.7-0.5-1.4-1.3-2.1-2.4v12.9h-6.4v-34.5h6.2v3.7c0.7-1.1,1.4-1.9,2.2-2.5c1.4-1.1,3.2-1.7,5.2-1.7
			C133.6,194.1,136,195.2,138.1,197.3z M133.1,201.9c-0.9-1.5-2.3-2.2-4.3-2.2c-2.4,0-4,1.1-4.9,3.3c-0.5,1.2-0.7,2.7-0.7,4.5
			c0,2.9,0.8,4.9,2.3,6.1c0.9,0.7,2,1,3.3,1c1.8,0,3.2-0.7,4.2-2.1c1-1.4,1.4-3.2,1.4-5.6C134.4,205.1,134,203.4,133.1,201.9z"/>
		<path class="st6" d="M152.7,204.3c1.2-0.2,2.1-0.3,2.6-0.6c0.9-0.4,1.4-1,1.4-1.8c0-1-0.4-1.7-1.1-2.1c-0.7-0.4-1.8-0.6-3.1-0.6
			c-1.5,0-2.6,0.4-3.3,1.1c-0.5,0.6-0.8,1.3-0.9,2.3H142c0.1-2.2,0.7-3.9,1.8-5.3c1.7-2.2,4.7-3.3,8.8-3.3c2.7,0,5.1,0.5,7.3,1.6
			c2.1,1.1,3.2,3.1,3.2,6.1v11.4c0,0.8,0,1.7,0,2.9c0,0.8,0.2,1.4,0.4,1.7c0.2,0.3,0.5,0.6,1,0.7v1h-7c-0.2-0.5-0.3-1-0.4-1.4
			c-0.1-0.4-0.1-0.9-0.2-1.5c-0.9,1-1.9,1.8-3.1,2.5c-1.4,0.8-3,1.2-4.7,1.2c-2.3,0-4.1-0.6-5.6-1.9c-1.5-1.3-2.2-3.1-2.2-5.4
			c0-3,1.2-5.2,3.5-6.6c1.3-0.7,3.2-1.3,5.7-1.6L152.7,204.3z M156.6,207.3c-0.4,0.3-0.8,0.5-1.3,0.6c-0.4,0.2-1,0.3-1.7,0.4
			l-1.5,0.3c-1.4,0.2-2.4,0.5-3,0.9c-1,0.6-1.5,1.5-1.5,2.7c0,1.1,0.3,1.9,0.9,2.4c0.6,0.5,1.4,0.7,2.3,0.7c1.4,0,2.7-0.4,3.9-1.2
			c1.2-0.8,1.8-2.3,1.9-4.5V207.3z"/>
		<path class="st6" d="M185.9,196.1c1.6,1.3,2.4,3.6,2.4,6.7v16.7h-6.6v-15.1c0-1.3-0.2-2.3-0.5-3c-0.6-1.3-1.8-1.9-3.6-1.9
			c-2.2,0-3.7,0.9-4.5,2.8c-0.4,1-0.6,2.2-0.6,3.8v13.4H166v-24.7h6.3v3.6c0.8-1.3,1.6-2.2,2.4-2.7c1.3-1,3-1.5,5-1.5
			C182.2,194,184.3,194.7,185.9,196.1z"/>
		<path class="st6" d="M212.2,216.4c-2.1,2.6-5.3,3.9-9.5,3.9c-4.3,0-7.4-1.3-9.5-3.9c-2.1-2.6-3.1-5.7-3.1-9.3c0-3.6,1-6.7,3.1-9.3
			c2.1-2.6,5.3-3.9,9.5-3.9c4.3,0,7.4,1.3,9.5,3.9c2.1,2.6,3.1,5.7,3.1,9.3C215.3,210.7,214.3,213.8,212.2,216.4z M207,212.8
			c1-1.3,1.5-3.3,1.5-5.7c0-2.5-0.5-4.4-1.5-5.7c-1-1.3-2.5-2-4.4-2c-1.9,0-3.3,0.7-4.4,2c-1,1.3-1.5,3.2-1.5,5.7
			c0,2.5,0.5,4.4,1.5,5.7c1,1.3,2.5,2,4.4,2C204.5,214.8,206,214.1,207,212.8z"/>
		<path class="st5" d="M217.9,219.4v-33.5h2.8v33.5H217.9z"/>
		<path class="st5" d="M236.1,205.3c0.5-0.1,1.2-0.2,1.9-0.3c0.7-0.1,1.3-0.3,1.8-0.5c0.5-0.2,0.8-0.6,0.9-1.1
			c0.1-0.5,0.2-1,0.2-1.4c0-1.4-0.5-2.6-1.4-3.5c-0.9-0.9-2.5-1.4-4.6-1.4c-1,0-1.8,0.1-2.7,0.3c-0.8,0.2-1.5,0.5-2.1,0.9
			c-0.6,0.4-1.1,1-1.5,1.7c-0.4,0.7-0.6,1.6-0.8,2.6h-2.8c0.1-1.4,0.4-2.6,1-3.7c0.6-1,1.3-1.8,2.2-2.5c0.9-0.6,1.9-1.1,3.1-1.4
			c1.2-0.3,2.4-0.4,3.7-0.4c1.2,0,2.3,0.1,3.4,0.4c1.1,0.3,2,0.7,2.8,1.3c0.8,0.6,1.4,1.3,1.9,2.3c0.4,1,0.7,2.1,0.7,3.5v13.1
			c0,1.1,0.2,1.8,0.6,2.1c0.4,0.3,1.2,0.2,2.3-0.2v2.2c-0.2,0.1-0.5,0.2-1,0.3c-0.4,0.1-0.8,0.2-1.2,0.2c-0.4,0-0.9,0-1.3-0.1
			c-0.5-0.1-0.8-0.2-1.1-0.4c-0.3-0.2-0.5-0.5-0.7-0.8c-0.2-0.3-0.3-0.7-0.3-1.1c-0.1-0.4-0.1-0.8-0.1-1.2c-1.2,1.3-2.5,2.3-4,3
			c-1.5,0.7-3.2,1-4.9,1c-1.1,0-2.1-0.1-3-0.4c-1-0.3-1.8-0.7-2.6-1.3c-0.7-0.6-1.3-1.3-1.8-2.2c-0.4-0.9-0.7-1.9-0.7-3
			c0-4.1,2.8-6.5,8.4-7.3L236.1,205.3z M240.8,206.7c-1.2,0.5-2.4,0.8-3.6,1c-1.2,0.2-2.4,0.3-3.6,0.4c-2.1,0.2-3.8,0.6-5,1.4
			c-1.2,0.8-1.8,2-1.8,3.7c0,0.7,0.1,1.4,0.4,1.9c0.3,0.5,0.7,1,1.2,1.3c0.5,0.4,1,0.6,1.7,0.8c0.6,0.2,1.3,0.3,1.9,0.3
			c1.1,0,2.2-0.1,3.3-0.4c1.1-0.3,2-0.7,2.8-1.3c0.8-0.6,1.5-1.3,2-2.2c0.5-0.9,0.7-1.9,0.7-3.1V206.7z"/>
		<path class="st5" d="M251.2,219.4h-2.8v-33.5h2.8v13.3c0.9-1.5,2.1-2.6,3.7-3.4c1.6-0.8,3.2-1.1,4.9-1.1c1.8,0,3.4,0.3,4.8,1
			c1.3,0.7,2.5,1.6,3.3,2.8c0.9,1.2,1.5,2.5,2,4.1c0.4,1.6,0.7,3.2,0.7,4.8c0,1.8-0.2,3.4-0.6,5c-0.4,1.6-1,2.9-1.9,4
			c-0.9,1.1-2,2-3.4,2.7c-1.4,0.7-3,1-5,1c-0.8,0-1.6-0.1-2.4-0.3c-0.8-0.2-1.6-0.5-2.3-0.9c-0.8-0.4-1.5-0.9-2.1-1.5
			c-0.6-0.6-1.2-1.3-1.6-2.1h-0.1V219.4z M251.2,207.2c0,1.5,0.2,2.8,0.5,4.1c0.4,1.3,0.9,2.3,1.6,3.3c0.7,0.9,1.5,1.6,2.6,2.2
			c1,0.5,2.2,0.8,3.5,0.8c1.2,0,2.3-0.2,3.3-0.6c1-0.4,1.9-1,2.6-1.8c0.7-0.8,1.3-1.8,1.7-3c0.4-1.2,0.6-2.5,0.6-4
			c0.1-1.5-0.1-2.9-0.4-4.3c-0.3-1.3-0.8-2.5-1.5-3.5c-0.7-1-1.6-1.8-2.6-2.3c-1.1-0.6-2.3-0.9-3.7-0.9c-1.3,0-2.4,0.3-3.4,0.8
			c-1,0.5-1.9,1.3-2.6,2.2c-0.7,0.9-1.2,2-1.6,3.2C251.4,204.6,251.2,205.9,251.2,207.2z"/>
		<path class="st5" d="M283.3,220c-1.6,0-3-0.3-4.3-0.8c-1.3-0.5-2.5-1.3-3.5-2.4c-1-1.1-1.8-2.4-2.4-4c-0.6-1.6-0.9-3.4-0.9-5.5
			c0-1.8,0.2-3.4,0.7-5c0.5-1.5,1.2-2.9,2.1-4c0.9-1.1,2.1-2.1,3.5-2.7c1.4-0.7,3-1,4.9-1c1.9,0,3.5,0.3,4.9,1
			c1.4,0.7,2.6,1.6,3.5,2.7c0.9,1.1,1.6,2.5,2.1,4c0.4,1.6,0.7,3.2,0.7,5c0,1.9-0.3,3.7-0.8,5.2c-0.5,1.6-1.3,2.9-2.3,4
			c-1,1.1-2.2,2-3.5,2.6C286.5,219.7,285,220,283.3,220z M291.5,207.3c0-1.4-0.2-2.8-0.5-4c-0.3-1.2-0.8-2.3-1.4-3.2
			c-0.7-0.9-1.5-1.6-2.5-2.2c-1-0.5-2.3-0.8-3.8-0.8c-1.5,0-2.7,0.3-3.7,0.9c-1,0.6-1.9,1.3-2.5,2.3c-0.7,0.9-1.1,2-1.4,3.3
			c-0.3,1.2-0.5,2.5-0.5,3.8c0,1.5,0.2,2.9,0.5,4.1c0.4,1.3,0.9,2.3,1.6,3.2c0.7,0.9,1.5,1.6,2.6,2.1c1,0.5,2.2,0.7,3.5,0.7
			c1.5,0,2.7-0.3,3.7-0.9c1-0.6,1.9-1.3,2.5-2.3c0.7-1,1.1-2,1.4-3.3C291.3,209.9,291.5,208.6,291.5,207.3z"/>
		<g>
			<circle class="st5" cx="102.8" cy="203.3" r="3"/>
			<path class="st5" d="M108.9,194.1c-0.1,0-12.8,2.8-26.3,2.8c-13.4,0-26.2-2.7-26.3-2.8l-3-0.6v29.6l3-0.7
				c0.1,0,12.8-2.8,26.3-2.8c13.4,0,26.2,2.7,26.3,2.8l3,0.6v-29.6L108.9,194.1z M109.3,219.5c0,0-4.6-1-11.3-1.8l-1.9-3.9h1.6
				l-3.7-7.5l-3.7,7.5H92l-1.5,3.2c-1-0.1-2.1-0.1-3.1-0.2l-2.1-4.3h2.2l-4.8-9.9l-4.8,9.9h2.2l-2.1,4.3c-1.1,0-2.1,0.1-3.1,0.2
				l-1.5-3.2h1.6l-3.7-7.5l-3.7,7.5h1.6l-1.9,3.9c-6.7,0.8-11.3,1.8-11.3,1.8v-22.5c0,0,12.9,2.8,26.8,2.8s26.8-2.8,26.8-2.8V219.5z
				"/>
		</g>
		<text transform="matrix(1 0 0 1 293.2708 203.9167)" class="st5 st15 st16">®</text>
	</g>
</g>
<g id="ガイド">
</g>
<g id="レイヤー_9">
	<rect x="84" y="115.4" class="st17" width="173.8" height="28"/>
</g>
</svg>
