<svg xmlns="http://www.w3.org/2000/svg" viewBox="0 0 249.94 43.71"><defs><style>.cls-1{fill:#52ab4c;}.cls-2{fill:#fff;}</style></defs><title>アセット 10</title><g id="レイヤー_2" data-name="レイヤー 2"><g id="panolabo白"><path class="cls-1" d="M84.74,11.88q3,3.2,3,9.4,0,6.54-3,10a9.61,9.61,0,0,1-7.62,3.43,8,8,0,0,1-4.94-1.48,9.53,9.53,0,0,1-2.1-2.38v12.9h-6.4V9.22h6.2v3.66a10.42,10.42,0,0,1,2.24-2.54,8.26,8.26,0,0,1,5.16-1.66A9.79,9.79,0,0,1,84.74,11.88Zm-5,4.65a4.61,4.61,0,0,0-4.28-2.2,4.87,4.87,0,0,0-4.89,3.34,12.54,12.54,0,0,0-.69,4.5q0,4.31,2.31,6.06a5.31,5.31,0,0,0,3.26,1,4.73,4.73,0,0,0,4.16-2.09,9.66,9.66,0,0,0,1.43-5.56A9.67,9.67,0,0,0,79.77,16.53Z"/><path class="cls-1" d="M99.34,18.92a10.22,10.22,0,0,0,2.58-.57,2,2,0,0,0,1.4-1.84,2.17,2.17,0,0,0-1.07-2.1,6.75,6.75,0,0,0-3.14-.58A4.13,4.13,0,0,0,95.82,15a4.68,4.68,0,0,0-.92,2.27H88.66a9.47,9.47,0,0,1,1.82-5.34q2.58-3.27,8.85-3.27a15.78,15.78,0,0,1,7.25,1.61q3.17,1.61,3.17,6.08V27.68q0,1.18,0,2.86a3.59,3.59,0,0,0,.39,1.73,2.31,2.31,0,0,0,1,.75v1h-7a7.16,7.16,0,0,1-.41-1.41q-.11-.66-.18-1.5a13.34,13.34,0,0,1-3.11,2.47,9.38,9.38,0,0,1-4.75,1.2,8.19,8.19,0,0,1-5.58-1.92,6.82,6.82,0,0,1-2.2-5.44,7,7,0,0,1,3.54-6.61,15.85,15.85,0,0,1,5.72-1.59Zm4,3a7.08,7.08,0,0,1-1.25.62,10.53,10.53,0,0,1-1.74.44l-1.47.27a9.7,9.7,0,0,0-3,.89,3,3,0,0,0-1.53,2.75,2.87,2.87,0,0,0,.93,2.4,3.55,3.55,0,0,0,2.27.74,6.76,6.76,0,0,0,3.91-1.23q1.79-1.23,1.86-4.47Z"/><path class="cls-1" d="M132.57,10.64q2.43,2,2.43,6.66V34h-6.63V18.92a6.91,6.91,0,0,0-.52-3A3.64,3.64,0,0,0,124.25,14a4.47,4.47,0,0,0-4.49,2.79,9.65,9.65,0,0,0-.63,3.77V34h-6.47V9.27h6.27v3.61a11,11,0,0,1,2.35-2.75,8.15,8.15,0,0,1,5-1.5A9.48,9.48,0,0,1,132.57,10.64Z"/><path class="cls-1" d="M158.87,30.94q-3.13,3.87-9.51,3.87t-9.51-3.87a14.32,14.32,0,0,1-3.13-9.31,14.42,14.42,0,0,1,3.13-9.28q3.13-3.93,9.51-3.93t9.51,3.93A14.42,14.42,0,0,1,162,21.63,14.32,14.32,0,0,1,158.87,30.94Zm-5.18-3.58a9.38,9.38,0,0,0,1.52-5.74,9.33,9.33,0,0,0-1.52-5.72,5.75,5.75,0,0,0-8.73,0,9.28,9.28,0,0,0-1.53,5.72A9.33,9.33,0,0,0,145,27.37a5.73,5.73,0,0,0,8.73,0Z"/><path class="cls-2" d="M164.59,34V.49h2.79V34Z"/><path class="cls-2" d="M182.77,19.93q.79-.09,1.88-.28a7.09,7.09,0,0,0,1.79-.51A1.48,1.48,0,0,0,187.3,18a6.87,6.87,0,0,0,.16-1.42,4.76,4.76,0,0,0-1.37-3.51q-1.37-1.37-4.63-1.37a12.85,12.85,0,0,0-2.65.26,5.77,5.77,0,0,0-2.12.88,4.88,4.88,0,0,0-1.49,1.67,7.1,7.1,0,0,0-.77,2.63h-2.84a8.63,8.63,0,0,1,1-3.65,7.41,7.41,0,0,1,2.16-2.46,9,9,0,0,1,3.07-1.39,15,15,0,0,1,3.7-.44,14.27,14.27,0,0,1,3.42.4,7.94,7.94,0,0,1,2.79,1.26,5.84,5.84,0,0,1,1.86,2.3,8.32,8.32,0,0,1,.67,3.53V29.83q0,1.63.58,2.07t2.35-.21v2.19l-1,.28a4.34,4.34,0,0,1-1.23.19,5.56,5.56,0,0,1-1.26-.14,2.15,2.15,0,0,1-1.12-.44,2.71,2.71,0,0,1-.67-.84,3.45,3.45,0,0,1-.35-1.07,7.75,7.75,0,0,1-.09-1.23,12.11,12.11,0,0,1-4,3,11.9,11.9,0,0,1-4.93,1,11,11,0,0,1-3-.42,7.36,7.36,0,0,1-2.58-1.3,6.47,6.47,0,0,1-1.77-2.16,6.64,6.64,0,0,1-.65-3q0-6.14,8.42-7.25Zm4.7,1.39a13.67,13.67,0,0,1-3.58,1q-1.81.23-3.63.37a10.23,10.23,0,0,0-5,1.44,4.13,4.13,0,0,0-1.79,3.67,4,4,0,0,0,.44,1.93,4.06,4.06,0,0,0,1.16,1.35,4.9,4.9,0,0,0,1.67.79,7.4,7.4,0,0,0,1.93.26,12.66,12.66,0,0,0,3.25-.42,8.79,8.79,0,0,0,2.81-1.28,6.54,6.54,0,0,0,2-2.19,6.32,6.32,0,0,0,.74-3.14Z"/><path class="cls-2" d="M197.88,34h-2.79V.49h2.79V13.75a8.63,8.63,0,0,1,3.7-3.37,11.1,11.1,0,0,1,4.91-1.14,10.25,10.25,0,0,1,4.77,1,9.79,9.79,0,0,1,3.35,2.79,12,12,0,0,1,2,4.07,17.88,17.88,0,0,1,.65,4.84,19.72,19.72,0,0,1-.6,5,10.9,10.9,0,0,1-1.93,4,9.27,9.27,0,0,1-3.37,2.67,11.49,11.49,0,0,1-5,1A9.1,9.1,0,0,1,204,34.3a11.19,11.19,0,0,1-2.35-.93,9.41,9.41,0,0,1-2.09-1.51A7.53,7.53,0,0,1,198,29.74h-.09Zm0-12.14a14.83,14.83,0,0,0,.53,4.07A9.89,9.89,0,0,0,200,29.16a7.33,7.33,0,0,0,2.56,2.16,7.5,7.5,0,0,0,3.49.79,8.28,8.28,0,0,0,3.25-.63,7.45,7.45,0,0,0,2.6-1.84,8.58,8.58,0,0,0,1.74-3,11.85,11.85,0,0,0,.63-4,15.79,15.79,0,0,0-.37-4.25A10.18,10.18,0,0,0,212.39,15a7.37,7.37,0,0,0-2.63-2.35,7.81,7.81,0,0,0-3.74-.86,7.1,7.1,0,0,0-3.42.81A7.89,7.89,0,0,0,200,14.74a10.07,10.07,0,0,0-1.6,3.21A13.29,13.29,0,0,0,197.88,21.84Z"/><path class="cls-2" d="M230,34.62a12.55,12.55,0,0,1-4.35-.84,9.72,9.72,0,0,1-3.53-2.37,11.37,11.37,0,0,1-2.39-4,15.81,15.81,0,0,1-.88-5.53,17,17,0,0,1,.7-5,11.7,11.7,0,0,1,2.09-4,10,10,0,0,1,3.49-2.72,12.54,12.54,0,0,1,9.81,0,10.06,10.06,0,0,1,3.49,2.7,11.13,11.13,0,0,1,2.07,4,17.81,17.81,0,0,1,.67,5,16.1,16.1,0,0,1-.79,5.21,11.71,11.71,0,0,1-2.26,4,9.94,9.94,0,0,1-3.53,2.58A11.29,11.29,0,0,1,230,34.62Zm8.18-12.69a16.5,16.5,0,0,0-.47-4,9.5,9.5,0,0,0-1.44-3.23,6.93,6.93,0,0,0-2.51-2.16,8.16,8.16,0,0,0-3.77-.79,7.64,7.64,0,0,0-3.74.86,7.33,7.33,0,0,0-2.53,2.28,10,10,0,0,0-1.44,3.25,15.37,15.37,0,0,0-.47,3.79,15,15,0,0,0,.53,4.11,9.62,9.62,0,0,0,1.56,3.23,7,7,0,0,0,2.56,2.09,8,8,0,0,0,3.53.74,7.63,7.63,0,0,0,3.74-.86,7.24,7.24,0,0,0,2.53-2.3,10.33,10.33,0,0,0,1.44-3.25A15.15,15.15,0,0,0,238.15,21.93Z"/><circle class="cls-2" cx="49.5" cy="17.9" r="3"/><path class="cls-2" d="M55.56,8.73A140.81,140.81,0,0,1,29.27,11.5,141.15,141.15,0,0,1,3,8.73L0,8.08v29.6L3,37a140.85,140.85,0,0,1,26.3-2.77A141.16,141.16,0,0,1,55.57,37l3,.65V8.08ZM56,34.1s-4.63-1-11.32-1.82L42.8,28.4h1.64l-3.68-7.53L37.08,28.4h1.64l-1.55,3.16q-1.55-.11-3.15-.17l-2.11-4.32h2.2l-4.84-9.9-4.84,9.9h2.2l-2.11,4.32q-1.6.07-3.15.17L19.82,28.4h1.64l-3.68-7.53L14.1,28.4h1.64l-1.9,3.88C7.15,33.09,2.52,34.1,2.52,34.1V11.65a142.1,142.1,0,0,0,26.75,2.82A142.1,142.1,0,0,0,56,11.65Z"/><path class="cls-2" d="M245.47,0A4.39,4.39,0,1,1,241,4.37,4.36,4.36,0,0,1,245.47,0Zm0,7.92a3.4,3.4,0,0,0,3.41-3.53,3.42,3.42,0,1,0-6.84,0A3.44,3.44,0,0,0,245.47,7.92Zm-1.68-1.25V2.23a9.11,9.11,0,0,1,1.63-.14c.79,0,1.94.14,1.94,1.3a1.12,1.12,0,0,1-.91,1v.07c.43.14.65.5.77,1.08a4,4,0,0,0,.34,1.1h-1a3.77,3.77,0,0,1-.34-1.1c-.17-.7-.55-.7-1.46-.7v1.8Zm1-2.5c.74,0,1.56,0,1.56-.67,0-.41-.29-.7-1-.7a2.65,2.65,0,0,0-.58,0Z"/></g></g></svg>