<svg xmlns="http://www.w3.org/2000/svg" viewBox="0 0 173.75 28"><defs><style>.cls-1{fill:#675f58;}.cls-2{fill:#ff931e;}.cls-3{fill:#52ab4c;}.cls-4{fill:#333;}.cls-5{fill:none;}</style></defs><title>panolaboAPI_1</title><g id="レイヤー_2" data-name="レイヤー 2"><g id="api"><g id="api-code-window"><g id="_4" data-name="4"><path class="cls-1" d="M156.09,24.72l-.23,0a1.5,1.5,0,0,1-1.44,1.15H126.3a1.49,1.49,0,0,1-1.48-1.48V5.55h31.09v.94l.19,0h1.58v-3A3.26,3.26,0,0,0,154.43.2H126.3A3.26,3.26,0,0,0,123,3.46v20.9a3.26,3.26,0,0,0,3.26,3.26h28.13a3.25,3.25,0,0,0,3.22-2.9h-1.56Zm-2-22.43a.74.74,0,1,1-.74.74A.74.74,0,0,1,154.08,2.29Zm-5.82,0h3.64a.7.7,0,1,1,0,1.39h-3.64a.7.7,0,1,1,0-1.39Z"/><path class="cls-1" d="M158,12a3.76,3.76,0,1,0,1.65,1A3.76,3.76,0,0,0,158,12Zm0,4.59a1.4,1.4,0,0,1-1,.44,1.38,1.38,0,0,1-.64-.16,1.4,1.4,0,0,1,0-2.49,1.39,1.39,0,0,1,.64-.16,1.4,1.4,0,0,1,1,2.37Z"/><path class="cls-2" d="M164.82,14.49l-1.7-.2a6.2,6.2,0,0,0-.89-2.14l1.06-1.35a.25.25,0,0,0,0-.33l-1.2-1.21a.26.26,0,0,0-.33,0l-1.35,1.06a6.23,6.23,0,0,0-2.14-.89l-.2-1.7a.24.24,0,0,0-.08-.16.25.25,0,0,0-.16-.06h-1.7a.26.26,0,0,0-.25.22l-.2,1.7a6.22,6.22,0,0,0-2.14.89l-1.35-1.06a.26.26,0,0,0-.33,0l-1.2,1.21a.25.25,0,0,0,0,.33l1.06,1.35a6.24,6.24,0,0,0-.89,2.14l-1.7.2a.25.25,0,0,0-.22.25v1.7a.26.26,0,0,0,.22.25l1.7.2a6.26,6.26,0,0,0,.89,2.14l-.69.88-.37.47a.25.25,0,0,0,0,.33l.86.86,0,0,.33.33a.26.26,0,0,0,.33,0l.44-.35,0,0,.89-.7a6.29,6.29,0,0,0,1.45.7l.05,0a6.13,6.13,0,0,0,.64.17l.2,1.7a.26.26,0,0,0,.25.22h1.7a.25.25,0,0,0,.25-.22l.2-1.7a6.37,6.37,0,0,0,.64-.17,6.24,6.24,0,0,0,1.5-.72l.91.71.44.35a.26.26,0,0,0,.33,0l.33-.33.88-.88a.25.25,0,0,0,0-.33L162.23,19a6.22,6.22,0,0,0,.89-2.14l1.7-.2a.26.26,0,0,0,.22-.25v-1.7A.26.26,0,0,0,164.82,14.49Zm-7.3,5.6a4.35,4.35,0,0,1-2.17-.26,4.53,4.53,0,0,1,1-8.73,4.43,4.43,0,0,1,.64-.05,4.53,4.53,0,0,1,.57,9Z"/><path class="cls-1" d="M132.62,12.48l-2.1,6.46h1.91l.33-1.21h2.09l.32,1.21h1.9l-2.12-6.46Zm.5,3.83q.4-1.51.52-2t.16-.74q0,.24.18.8t.24.91l.28,1.05Z"/><path class="cls-1" d="M140.43,12.51H138.2v6.43h1.74V16.8h.49a2.56,2.56,0,0,0,1.8-.59,2.15,2.15,0,0,0,.64-1.66,1.9,1.9,0,0,0-.61-1.51A2.72,2.72,0,0,0,140.43,12.51Zm.45,2.66a.86.86,0,0,1-.62.22h-.32V13.91h.45q.72,0,.72.65A.8.8,0,0,1,140.88,15.17Z"/><rect class="cls-1" x="144.34" y="12.51" width="1.74" height="6.43"/></g></g><path class="cls-3" d="M46.84,11.26a5.94,5.94,0,0,1,1.36,4.23A6.68,6.68,0,0,1,46.87,20a4.32,4.32,0,0,1-3.43,1.54,3.6,3.6,0,0,1-2.22-.66,4.29,4.29,0,0,1-.95-1.07v5.8H37.39V10.07h2.79v1.64a4.69,4.69,0,0,1,1-1.14,3.72,3.72,0,0,1,2.32-.75A4.4,4.4,0,0,1,46.84,11.26Zm-2.23,2.09a2.07,2.07,0,0,0-1.92-1,2.19,2.19,0,0,0-2.2,1.5,5.64,5.64,0,0,0-.31,2,3.21,3.21,0,0,0,1,2.73,2.39,2.39,0,0,0,1.47.46,2.13,2.13,0,0,0,1.87-.94,4.35,4.35,0,0,0,.65-2.5A4.35,4.35,0,0,0,44.61,13.36Z"/><path class="cls-3" d="M53.41,14.43a4.6,4.6,0,0,0,1.16-.26.88.88,0,0,0,.63-.83,1,1,0,0,0-.48-.94,3,3,0,0,0-1.41-.26,1.86,1.86,0,0,0-1.48.51,2.1,2.1,0,0,0-.41,1H48.6a4.26,4.26,0,0,1,.82-2.4q1.16-1.47,4-1.47a7.1,7.1,0,0,1,3.26.73,2.78,2.78,0,0,1,1.43,2.74v5.11q0,.53,0,1.29a1.61,1.61,0,0,0,.17.78,1,1,0,0,0,.43.34v.43H55.55a3.22,3.22,0,0,1-.18-.63q-.05-.3-.08-.67A6,6,0,0,1,53.89,21a4.22,4.22,0,0,1-2.14.54,3.69,3.69,0,0,1-2.51-.86,3.07,3.07,0,0,1-1-2.45,3.17,3.17,0,0,1,1.6-3,7.13,7.13,0,0,1,2.57-.72Zm1.78,1.36a3.19,3.19,0,0,1-.56.28,4.74,4.74,0,0,1-.78.2l-.66.12a4.36,4.36,0,0,0-1.34.4A1.33,1.33,0,0,0,51.16,18a1.29,1.29,0,0,0,.42,1.08,1.6,1.6,0,0,0,1,.33,3,3,0,0,0,1.76-.55,2.34,2.34,0,0,0,.84-2Z"/><path class="cls-3" d="M68.36,10.71a3.68,3.68,0,0,1,1.09,3v7.5h-3V14.43a3.11,3.11,0,0,0-.23-1.35,1.64,1.64,0,0,0-1.62-.86,2,2,0,0,0-2,1.26,4.34,4.34,0,0,0-.28,1.7v6H59.4V10.09h2.82v1.62a4.94,4.94,0,0,1,1.06-1.24,3.67,3.67,0,0,1,2.27-.67A4.27,4.27,0,0,1,68.36,10.71Z"/><path class="cls-3" d="M80.2,19.84a5.18,5.18,0,0,1-4.28,1.74,5.18,5.18,0,0,1-4.28-1.74,6.45,6.45,0,0,1-1.41-4.19,6.49,6.49,0,0,1,1.41-4.18,5.15,5.15,0,0,1,4.28-1.77,5.15,5.15,0,0,1,4.28,1.77,6.49,6.49,0,0,1,1.41,4.18A6.45,6.45,0,0,1,80.2,19.84Zm-2.33-1.61a4.22,4.22,0,0,0,.68-2.58,4.2,4.2,0,0,0-.68-2.58,2.59,2.59,0,0,0-3.93,0,4.17,4.17,0,0,0-.69,2.58,4.2,4.2,0,0,0,.69,2.58,2.58,2.58,0,0,0,3.93,0Z"/><path class="cls-4" d="M82.77,21.21V6.14H84V21.21Z"/><path class="cls-4" d="M91,14.89l.85-.13a3.19,3.19,0,0,0,.81-.23A.67.67,0,0,0,93,14a3.1,3.1,0,0,0,.07-.64,2.14,2.14,0,0,0-.62-1.58,2.88,2.88,0,0,0-2.08-.62,5.79,5.79,0,0,0-1.19.12,2.6,2.6,0,0,0-1,.4,2.2,2.2,0,0,0-.67.75,3.2,3.2,0,0,0-.34,1.18H85.93A3.88,3.88,0,0,1,86.37,12a3.33,3.33,0,0,1,1-1.11,4,4,0,0,1,1.38-.63,6.75,6.75,0,0,1,1.66-.2,6.42,6.42,0,0,1,1.54.18,3.58,3.58,0,0,1,1.26.56,2.63,2.63,0,0,1,.84,1,3.74,3.74,0,0,1,.3,1.59v5.9q0,.73.26.93t1.06-.09v1l-.43.13a2,2,0,0,1-.55.08,2.51,2.51,0,0,1-.57-.06,1,1,0,0,1-.5-.2,1.22,1.22,0,0,1-.3-.38,1.55,1.55,0,0,1-.16-.48,3.49,3.49,0,0,1,0-.55A5.45,5.45,0,0,1,91.27,21,5.35,5.35,0,0,1,89,21.5a5,5,0,0,1-1.37-.19,3.31,3.31,0,0,1-1.16-.59,2.91,2.91,0,0,1-.8-1,3,3,0,0,1-.29-1.37q0-2.76,3.79-3.26Zm2.11.63a6.15,6.15,0,0,1-1.61.44q-.82.1-1.63.17a4.6,4.6,0,0,0-2.25.65,1.86,1.86,0,0,0-.81,1.65,1.79,1.79,0,0,0,.2.87,1.83,1.83,0,0,0,.52.61,2.21,2.21,0,0,0,.75.36,3.33,3.33,0,0,0,.87.12,5.7,5.7,0,0,0,1.46-.19,4,4,0,0,0,1.27-.58,2.94,2.94,0,0,0,.89-1,2.84,2.84,0,0,0,.33-1.41Z"/><path class="cls-4" d="M97.75,21.21H96.5V6.14h1.26v6a3.88,3.88,0,0,1,1.66-1.52,5,5,0,0,1,2.21-.51,4.61,4.61,0,0,1,2.14.47,4.41,4.41,0,0,1,1.51,1.26,5.4,5.4,0,0,1,.89,1.83,8,8,0,0,1,.29,2.18,8.87,8.87,0,0,1-.27,2.24,4.91,4.91,0,0,1-.87,1.81,4.17,4.17,0,0,1-1.52,1.2,5.17,5.17,0,0,1-2.24.44,4.09,4.09,0,0,1-1.07-.15,5,5,0,0,1-1.06-.42,4.23,4.23,0,0,1-.94-.68,3.39,3.39,0,0,1-.7-1h0Zm0-5.46A6.67,6.67,0,0,0,98,17.58,4.45,4.45,0,0,0,98.7,19a3.3,3.3,0,0,0,1.15,1,3.37,3.37,0,0,0,1.57.36,3.73,3.73,0,0,0,1.46-.28,3.35,3.35,0,0,0,1.17-.83,3.86,3.86,0,0,0,.78-1.33,5.33,5.33,0,0,0,.28-1.81,7.11,7.11,0,0,0-.17-1.91,4.58,4.58,0,0,0-.67-1.56,3.32,3.32,0,0,0-1.18-1.06,3.52,3.52,0,0,0-1.68-.39,3.19,3.19,0,0,0-1.54.37,3.55,3.55,0,0,0-1.15,1A4.53,4.53,0,0,0,98,14,6,6,0,0,0,97.75,15.74Z"/><path class="cls-4" d="M112.19,21.5a5.65,5.65,0,0,1-2-.38,4.37,4.37,0,0,1-1.59-1.07,5.12,5.12,0,0,1-1.08-1.78,7.11,7.11,0,0,1-.4-2.49,7.65,7.65,0,0,1,.31-2.23,5.27,5.27,0,0,1,.94-1.81A4.48,4.48,0,0,1,110,10.52a5.64,5.64,0,0,1,4.42,0A4.53,4.53,0,0,1,116,11.74a5,5,0,0,1,.93,1.81,8,8,0,0,1,.3,2.24,7.25,7.25,0,0,1-.36,2.34,5.27,5.27,0,0,1-1,1.8,4.47,4.47,0,0,1-1.59,1.16A5.08,5.08,0,0,1,112.19,21.5Zm3.68-5.71a7.43,7.43,0,0,0-.21-1.8,4.28,4.28,0,0,0-.65-1.45,3.12,3.12,0,0,0-1.13-1,3.67,3.67,0,0,0-1.69-.36,3.44,3.44,0,0,0-1.68.39,3.3,3.3,0,0,0-1.14,1,4.5,4.5,0,0,0-.65,1.46,6.91,6.91,0,0,0-.21,1.71,6.76,6.76,0,0,0,.24,1.85,4.33,4.33,0,0,0,.7,1.45,3.14,3.14,0,0,0,1.15.94,3.6,3.6,0,0,0,1.59.33,3.43,3.43,0,0,0,1.68-.39,3.26,3.26,0,0,0,1.14-1,4.65,4.65,0,0,0,.65-1.46A6.82,6.82,0,0,0,115.88,15.79Z"/><circle class="cls-4" cx="30.98" cy="13.97" r="1.35"/><path class="cls-4" d="M33.71,9.85a63.37,63.37,0,0,1-11.83,1.25A63.52,63.52,0,0,1,10,9.85L8.71,9.55V22.87L10,22.58a63.39,63.39,0,0,1,11.83-1.25,63.52,63.52,0,0,1,11.83,1.25l1.34.29V9.55Zm.21,11.42s-2.09-.46-5.1-.82L28,18.7h.74l-1.66-3.39L25.39,18.7h.74l-.7,1.42L24,20l-1-1.94h1l-2.18-4.46L19.7,18.1h1l-1,1.94-1.42.08-.7-1.42h.74l-1.66-3.39L15.05,18.7h.74l-.85,1.74c-3,.37-5.1.82-5.1.82V11.16a63.94,63.94,0,0,0,12,1.27,63.94,63.94,0,0,0,12-1.27Z"/></g><g id="レイヤー_9" data-name="レイヤー 9"><rect class="cls-5" width="173.75" height="28"/></g></g></svg>